<svg version="1.1" id="Layer_1" xmlns="http://www.w3.org/2000/svg" xmlns:xlink="http://www.w3.org/1999/xlink" x="0px" y="0px"
	 width="100%" viewBox="0 0 1024 1024" enable-background="new 0 0 1024 1024" xml:space="preserve">
<path fill="#000000" opacity="1.000000" stroke="none" 
	d="
M793.785767,553.037292 
	C783.757324,552.944336 780.401245,558.379761 777.905090,567.192566 
	C770.211304,594.356689 756.973511,618.946045 739.869263,641.540527 
	C744.094177,645.877747 748.338074,650.042969 752.368225,654.405762 
	C767.717590,671.021912 780.046570,689.302734 784.696533,711.994080 
	C790.183350,738.768982 779.915527,762.459900 756.246033,776.178345 
	C741.132446,784.937866 724.540955,788.982910 707.265381,790.345459 
	C652.955505,794.628784 604.543579,777.860107 559.901123,748.365784 
	C554.714783,744.939270 549.953552,746.498413 545.106995,746.892029 
	C523.006042,748.687378 500.948547,749.179382 478.884552,746.546692 
	C473.697113,745.927673 469.150421,746.494629 464.342438,749.694031 
	C435.869263,768.640930 404.706879,781.296204 371.083618,787.699402 
	C339.920502,793.634033 309.017426,793.232971 279.346100,780.949463 
	C257.927948,772.082764 242.995575,757.033875 240.202362,732.661438 
	C238.331650,716.338379 242.920563,701.257812 250.011902,686.929749 
	C257.933594,670.923889 269.066772,657.245483 282.639832,645.640503 
	C285.499146,643.195862 285.910645,641.336670 283.615082,638.197327 
	C266.038666,614.160339 253.073120,587.858215 245.465179,559.014893 
	C244.556366,555.569397 242.222977,554.822021 239.277542,554.366455 
	C222.426865,551.760193 207.518951,545.090942 194.495026,533.884766 
	C165.686951,509.097473 162.987991,465.615692 188.928574,437.499878 
	C204.074036,421.084412 223.193115,412.646393 245.241226,410.605743 
	C250.349274,410.133026 253.692688,408.704834 255.957245,403.227478 
	C279.564850,346.127014 318.705536,302.409088 371.787964,271.196228 
	C402.839447,252.937698 436.470001,241.764450 472.144714,236.561844 
	C488.853210,234.125168 505.617249,233.056732 522.432800,233.759979 
	C571.227234,235.800629 616.848694,248.681259 658.760864,274.179962 
	C677.358704,285.494659 694.540283,298.596252 710.005188,313.850494 
	C735.810730,339.304443 755.986877,368.684937 769.332336,402.453125 
	C771.711731,408.473877 775.220093,410.166382 780.955444,410.720581 
	C802.414551,412.793915 821.204163,420.933014 836.190430,436.716553 
	C863.467896,465.445251 860.876892,508.570129 830.762939,534.338806 
	C819.997314,543.551025 807.786316,549.501404 793.785767,553.037292 
M284.992218,383.411591 
	C266.105408,416.605774 256.473541,452.506317 254.749084,490.459229 
	C253.940826,508.247925 255.727371,526.040527 259.617279,543.471375 
	C270.854309,593.825012 296.491821,635.514282 335.983063,668.614685 
	C381.009186,706.354248 433.504089,725.834045 491.601044,730.436096 
	C513.811523,732.195557 536.119568,731.226135 558.267456,727.627808 
	C613.372253,718.674927 661.800415,696.062805 702.424438,657.538086 
	C725.463623,635.689453 742.783447,609.745667 754.736511,580.377197 
	C768.398132,546.811035 773.384766,511.902161 769.822266,475.762726 
	C767.885681,456.117401 763.796936,437.005493 756.924988,418.502075 
	C740.400269,374.007874 713.537109,337.017151 676.195068,307.707520 
	C633.775085,274.412231 585.649170,255.231689 531.870605,251.553391 
	C486.783600,248.469543 443.294739,255.820587 402.138947,275.279724 
	C352.012695,298.980255 312.809631,334.484589 284.992218,383.411591 
M607.116577,733.731201 
	C598.739990,736.235962 590.363342,738.740723 581.979370,741.247681 
	C582.235962,742.452698 583.309875,742.753113 584.135559,743.212952 
	C623.059875,764.893921 664.249084,777.168701 709.284241,772.573120 
	C725.170044,770.952087 740.386536,766.795776 753.277893,756.677429 
	C765.137634,747.368896 769.671570,735.076538 768.062256,720.175049 
	C766.568970,706.347900 760.677917,694.372986 753.088745,683.086304 
	C746.212952,672.860779 738.073608,663.751465 728.413818,655.864319 
	C720.231995,664.695496 712.113464,673.000793 703.247314,680.568665 
	C675.023376,704.659546 643.218506,722.245422 607.116577,733.731201 
M318.667114,772.748352 
	C363.853668,776.748657 404.753387,763.773987 443.449646,741.486755 
	C415.634064,734.011780 389.063293,724.147095 364.185364,709.921204 
	C339.128387,695.592957 317.155060,677.450806 297.865479,656.478210 
	C296.954956,656.729187 296.559296,656.722961 296.336670,656.916138 
	C278.078339,672.756165 263.833496,691.321167 258.451355,715.380371 
	C254.052383,735.044617 261.736084,751.263794 279.264191,761.338562 
	C291.196564,768.197021 304.280365,771.085571 318.667114,772.748352 
M237.585999,497.500183 
	C236.829239,473.979645 241.388992,451.098633 247.025345,427.620972 
	C227.922623,429.835663 212.700638,437.154877 200.834595,450.832642 
	C191.608109,461.467804 187.009949,473.767303 188.825409,488.093109 
	C191.046631,505.620880 201.034103,517.896851 215.195282,527.345459 
	C222.579346,532.272278 230.648911,535.453003 240.154373,536.732605 
	C238.988297,523.612854 237.274445,511.110168 237.585999,497.500183 
M788.293762,429.290283 
	C785.304688,428.517883 782.315369,427.748230 778.620117,428.320648 
	C788.956482,463.939301 791.096802,499.808075 785.473083,535.779053 
	C787.084900,536.716064 788.030823,536.411316 789.013306,536.209900 
	C799.519958,534.056030 808.881897,529.377930 817.091675,522.643616 
	C843.488464,500.991180 843.675781,468.743042 820.870239,446.446625 
	C811.903137,437.679749 800.953125,432.719238 788.293762,429.290283 
z"/>
<path fill="#000000" opacity="1.000000" stroke="none" 
	d="
M600.839355,361.658691 
	C610.143311,362.504120 616.934448,367.016327 622.280884,373.814728 
	C637.475281,393.135681 637.085754,426.514313 621.540222,445.584167 
	C609.691406,460.119232 591.508545,461.023865 579.255859,446.850403 
	C565.425598,430.852051 563.328552,411.972046 568.212646,391.970612 
	C570.177063,383.925842 573.596802,376.630310 579.519653,370.615570 
	C585.290405,364.755249 591.988770,361.283936 600.839355,361.658691 
M606.296448,376.112732 
	C600.063354,372.361481 593.812988,372.340515 589.092773,376.055054 
	C584.681885,379.526123 582.554565,385.755219 584.086609,390.713928 
	C586.054810,397.084442 591.261414,401.500916 597.293579,401.916748 
	C602.677307,402.287842 607.891052,399.101257 610.528625,393.827576 
	C613.289490,388.307312 611.985291,382.118622 606.296448,376.112732 
M581.707031,401.630859 
	C578.988403,402.737823 576.222290,403.941376 578.070251,407.652649 
	C578.973267,409.466095 580.595947,410.836578 582.858093,410.300018 
	C584.676697,409.868713 586.302124,408.789642 586.552368,406.770538 
	C586.926270,403.754150 585.003479,402.338318 581.707031,401.630859 
z"/>
<path fill="#000000" opacity="1.000000" stroke="none" 
	d="
M399.876038,438.951630 
	C388.490692,417.989075 390.643097,386.350555 406.840729,370.094391 
	C417.613434,359.282776 434.347168,358.785767 445.179810,369.504425 
	C453.652130,377.887634 457.761719,388.279480 459.055725,399.708466 
	C460.635498,413.661316 458.832489,427.237396 451.880402,439.788239 
	C442.950226,455.910217 426.369537,461.369415 412.466003,452.712006 
	C407.103210,449.372711 403.308167,444.572144 399.876038,438.951630 
M440.606232,381.007599 
	C439.722839,379.811035 438.963776,378.493073 437.934479,377.438995 
	C433.601654,373.001923 426.662994,371.920441 421.422699,374.760834 
	C415.873016,377.768921 412.591644,384.240479 413.882812,389.630981 
	C415.987000,398.415680 423.842529,403.645966 431.584503,401.513794 
	C438.230225,399.683533 445.635620,389.714081 440.606232,381.007599 
M437.802521,406.867706 
	C438.908783,409.454987 440.438660,411.053864 443.574982,409.778931 
	C445.273102,409.088623 446.661957,408.178253 446.431122,406.228882 
	C446.158600,403.927094 444.256165,402.770081 442.285004,402.462830 
	C439.661743,402.054016 437.755005,403.219513 437.802521,406.867706 
z"/>
<path fill="#000000" opacity="1.000000" stroke="none" 
	d="
M531.678406,503.835876 
	C514.872314,513.482483 496.478577,510.086060 485.922485,495.655548 
	C474.788849,480.435577 476.527527,458.650818 490.334595,446.595215 
	C500.176056,438.002167 511.959320,436.417877 524.115417,440.303375 
	C536.168457,444.155884 543.555115,452.964294 546.216919,465.257172 
	C549.610291,480.928131 544.502075,493.718933 531.678406,503.835876 
M495.440674,470.947479 
	C494.950806,473.844849 495.889435,476.529724 496.694458,479.227997 
	C499.214447,487.674194 506.127838,493.472198 513.396240,493.258148 
	C521.296936,493.025482 527.842529,486.503418 530.105652,476.608795 
	C531.749451,469.422058 527.647766,460.693604 521.196899,457.175323 
	C510.766235,451.486481 497.539001,457.212372 495.440674,470.947479 
z"/>
<path fill="#000000" opacity="1.000000" stroke="none" 
	d="
M363.857880,487.130829 
	C354.616272,486.951660 346.179138,485.393829 338.858795,480.181793 
	C328.352356,472.701141 328.511536,461.213776 339.109650,453.846771 
	C351.999298,444.886871 373.331116,444.731049 386.422150,453.501160 
	C397.041840,460.615692 397.361145,472.039825 387.268494,479.844360 
	C380.472839,485.099365 372.398529,486.071411 363.857880,487.130829 
z"/>
<path fill="#000000" opacity="1.000000" stroke="none" 
	d="
M678.157227,449.575928 
	C681.976318,451.008911 685.267944,452.593933 688.161255,454.914825 
	C697.272827,462.223755 697.236755,473.016754 687.683594,479.692780 
	C676.958191,487.188019 664.931274,488.423645 652.347656,485.784485 
	C647.246155,484.714600 642.372742,483.070892 638.246765,479.749359 
	C628.282349,471.727600 628.842041,459.973938 639.773254,453.350952 
	C651.740540,446.100159 664.558533,445.393494 678.157227,449.575928 
z"/>
</svg>