<svg version="1.1" id="Layer_1" xmlns="http://www.w3.org/2000/svg" xmlns:xlink="http://www.w3.org/1999/xlink" x="0px" y="0px"
	 width="100%" viewBox="0 0 1024 1024" enable-background="new 0 0 1024 1024" xml:space="preserve">
<path fill="#000000" opacity="1.000000" stroke="none" 
	d="
M668.685913,229.544006 
	C695.110352,219.759888 721.708008,212.682587 749.761719,212.669708 
	C770.155212,212.660339 782.449829,221.328430 789.561584,240.494431 
	C794.305603,253.279495 796.367920,266.630920 797.011292,280.095978 
	C798.570923,312.736847 796.518921,345.007568 784.789001,375.999817 
	C781.414368,384.916077 777.129578,393.378662 771.891724,401.325897 
	C770.067200,404.094208 770.277344,406.310791 771.806519,409.131226 
	C774.828613,414.705017 779.532715,418.144348 784.981873,420.916626 
	C791.657776,424.312988 798.795532,426.789429 805.068848,430.985077 
	C814.850220,437.527039 818.312805,446.369476 814.967896,456.243713 
	C813.623962,460.211029 811.945984,462.066040 803.679077,468.570404 
	C808.242554,473.565399 813.325073,478.076752 817.292542,483.559570 
	C823.548523,492.204895 828.450806,501.321869 828.380310,512.398376 
	C828.312622,523.041443 823.918762,528.715271 813.618591,531.311096 
	C812.992310,531.468933 812.386108,531.706482 811.616760,531.956970 
	C811.285583,535.819641 813.407532,539.065430 813.810669,542.649109 
	C814.982361,553.065430 815.194702,563.289490 809.109924,572.570618 
	C804.070679,580.257019 797.166809,583.289062 788.145447,581.412292 
	C785.434753,580.848389 783.635132,580.848877 782.144836,583.841187 
	C769.383667,609.463318 747.509521,624.514404 721.992859,635.289917 
	C711.726013,639.625488 700.822388,642.023987 689.391418,645.785217 
	C695.704041,651.539429 700.179077,657.825806 703.356812,665.448425 
	C721.133911,657.703735 738.700317,650.886902 758.166077,657.653748 
	C760.023926,653.065369 761.593994,648.877869 763.395996,644.792664 
	C769.948853,629.936707 784.005737,621.799744 799.513184,623.789795 
	C813.540955,625.589905 823.852051,636.612122 826.461487,652.592773 
	C826.729065,654.231384 827.362610,655.899231 827.217712,657.498413 
	C826.866089,661.379395 828.248962,663.872620 831.530823,666.158386 
	C837.530640,670.337402 838.898987,677.017700 839.286499,683.806702 
	C840.182983,699.512451 834.058167,712.770447 824.216003,724.455933 
	C820.698059,728.632751 818.668762,732.237427 818.861084,738.394836 
	C819.270325,751.499451 810.705933,760.011780 800.179749,766.529785 
	C788.839172,773.552307 776.256897,776.362854 763.103027,777.018250 
	C760.827026,777.131592 758.953369,777.641968 757.390320,779.479858 
	C750.001709,788.167908 740.051941,790.086304 729.376587,789.617126 
	C710.595154,788.791809 693.725769,781.827759 677.621643,772.788208 
	C674.020813,770.767090 671.885986,770.940063 668.645508,773.761841 
	C656.111084,784.676575 641.751587,788.650818 625.535034,783.200989 
	C623.412048,782.487610 622.079712,783.128052 620.638489,784.449829 
	C608.368347,795.703064 594.502441,799.190247 578.719482,792.865784 
	C575.598633,791.615173 572.747864,792.925720 569.931763,793.599365 
	C540.064514,800.743835 509.914459,800.709290 479.592621,797.622314 
	C470.777496,796.724854 462.178284,794.920288 453.632812,792.713440 
	C450.993408,792.031799 448.473175,792.054932 445.839233,793.150635 
	C432.361786,798.757141 419.943054,795.791931 408.691528,787.527649 
	C404.482697,784.436218 401.142517,783.388245 395.736359,784.740723 
	C374.138184,790.143799 349.948578,774.727600 344.771362,752.741333 
	C343.808960,748.654236 342.561432,746.053833 337.887146,745.171021 
	C332.791168,744.208557 330.036072,739.830383 327.808228,735.443481 
	C321.106903,722.247864 323.016449,709.322205 329.190338,696.563232 
	C329.618286,695.678772 329.991699,694.767944 330.365356,693.926025 
	C315.922058,681.267395 319.243561,663.858337 336.504059,645.709290 
	C331.148743,644.164978 326.155273,642.793823 321.203613,641.285400 
	C297.450439,634.049255 275.699585,623.364441 258.288605,605.056885 
	C252.594101,599.069153 248.109207,592.289612 244.322754,585.040588 
	C242.700592,581.934998 240.954178,580.642700 237.307785,581.552246 
	C229.059128,583.609924 222.576797,580.435974 217.769379,573.775635 
	C210.629196,563.883301 210.283295,552.729431 212.249603,541.253906 
	C212.725204,538.478210 213.466354,535.747986 214.043442,533.183411 
	C213.312973,531.763855 212.080582,531.667114 210.997620,531.302673 
	C200.083206,527.629883 195.281708,518.965576 197.415100,507.496460 
	C200.043793,493.364655 208.238373,482.674896 218.099365,472.918976 
	C219.490143,471.543060 221.349442,470.544800 221.965622,468.548920 
	C221.680847,467.321228 220.586044,467.071381 219.790833,466.526581 
	C207.509750,458.112457 206.391174,444.676117 217.023315,434.264191 
	C223.420258,427.999817 231.832611,425.424835 239.599899,421.687805 
	C245.573059,418.813904 250.921173,415.468384 254.084167,409.261749 
	C255.518036,406.448059 255.782669,404.239349 254.032776,401.427582 
	C236.258575,372.867584 229.763565,341.177643 228.708176,308.096680 
	C228.085815,288.589111 228.450516,269.103119 233.711166,250.084045 
	C235.845322,242.368301 238.357910,234.838028 243.048203,228.140106 
	C250.100098,218.069687 259.838165,213.305176 271.858185,212.695755 
	C284.583313,212.050598 297.071533,213.820694 309.564728,216.087433 
	C344.105774,222.354446 375.972504,235.302765 405.674194,253.831360 
	C407.645386,255.061020 409.557037,256.484985 412.100769,254.978699 
	C425.081573,247.291916 438.600433,248.856598 452.246155,252.716782 
	C453.644226,253.112289 454.980652,254.095078 456.593689,253.300934 
	C457.480988,251.919388 456.924988,250.392624 456.829620,248.950333 
	C455.318573,226.095123 472.701447,218.328339 489.731964,221.221878 
	C502.614716,223.410690 513.384827,229.865219 523.618835,237.514084 
	C525.867981,239.195068 527.795288,241.351700 530.450806,242.380692 
	C530.838013,242.225479 531.263855,242.193604 531.423584,241.970901 
	C538.985718,231.426239 547.942322,229.807266 558.865234,237.065170 
	C563.775269,240.327759 567.985962,244.367813 571.346375,249.189743 
	C573.307556,252.003860 575.237183,253.016571 578.840576,251.914536 
	C590.733337,248.277405 602.508423,248.435349 613.657410,254.674088 
	C616.229675,256.113495 618.075562,254.962372 620.093933,253.751312 
	C635.546631,244.479523 651.443726,236.097458 668.685913,229.544006 
M705.066589,318.574585 
	C706.913330,317.625336 709.690247,317.429108 709.602966,314.647675 
	C709.524170,312.133698 707.100220,311.354126 705.189636,310.365051 
	C704.598938,310.059265 703.993958,309.755920 703.362000,309.558563 
	C689.979675,305.379852 676.873230,304.632324 664.513367,312.776520 
	C662.264526,314.258301 659.951355,315.086151 657.665344,313.035980 
	C655.344910,310.954926 655.225037,308.331909 656.664917,305.756073 
	C657.877747,303.586395 659.267578,301.475433 660.842346,299.554291 
	C682.940796,272.595551 711.741455,257.836609 745.948730,253.032974 
	C750.952881,252.330246 754.880554,255.337082 755.275696,259.820618 
	C755.686035,264.477051 752.476074,267.612030 746.830383,268.304718 
	C726.403198,270.810944 707.825256,277.956512 691.495544,290.620117 
	C690.288086,291.556519 688.537842,292.215118 688.514160,294.463776 
	C690.246094,294.574585 691.885193,294.628052 693.513184,294.792145 
	C702.600769,295.708069 711.242554,297.888641 718.403076,303.985809 
	C722.354980,307.350830 724.683655,311.818329 723.350220,316.823792 
	C722.050293,321.703400 723.973145,323.749878 727.697327,326.201691 
	C737.389221,332.582458 738.908569,340.661743 732.263977,349.971893 
	C730.185303,352.884491 731.802795,354.121460 733.428406,355.760498 
	C742.962280,365.373291 751.515625,375.781006 758.969666,387.089661 
	C759.582764,388.019806 760.072266,389.207306 762.023438,389.141113 
	C767.559692,379.704498 771.953857,369.459045 774.787415,358.707550 
	C782.677673,328.769287 784.867615,298.345978 780.525146,267.645386 
	C779.039795,257.143921 777.149414,246.563660 770.898682,237.455002 
	C767.388489,232.339844 762.569275,229.231155 756.555359,228.399002 
	C748.765320,227.321121 740.832336,227.522781 733.110291,228.591629 
	C694.985413,233.868805 659.569702,246.734512 626.923523,267.224670 
	C620.976135,270.957520 615.488281,275.275421 609.766785,279.292633 
	C605.535095,282.263794 600.763977,282.339111 598.415344,279.542297 
	C595.938782,276.593170 596.649353,272.927277 600.401062,268.900055 
	C601.267639,267.969818 602.624023,267.389099 602.830872,265.617249 
	C596.572510,262.266449 590.101929,262.753113 583.552246,264.535400 
	C580.774353,265.291321 578.125610,266.054749 577.772522,269.744934 
	C577.587219,271.681946 576.090881,272.974365 573.990784,273.143494 
	C571.886414,273.312988 570.533203,272.127136 569.602905,270.418274 
	C568.647766,268.663788 567.821472,266.839813 566.905579,265.063354 
	C563.632385,258.715027 559.162415,253.390396 553.029053,249.672012 
	C551.003479,248.444016 548.647644,246.512894 546.148254,248.374512 
	C543.641968,250.241257 544.013489,253.159409 544.737244,255.749771 
	C545.855713,259.752594 547.270264,263.673706 548.594666,267.617615 
	C549.441650,270.139801 549.031067,272.348083 546.643555,273.667755 
	C544.300415,274.962891 542.106750,274.187805 540.311096,272.347565 
	C539.382935,271.396301 538.618103,270.287384 537.710205,269.314331 
	C523.448792,254.029724 507.996185,240.545822 486.744720,235.951920 
	C476.077850,233.646088 469.303314,240.428391 471.790100,251.102448 
	C473.738190,259.464081 477.738525,266.637146 485.185822,271.434265 
	C487.525726,272.941498 488.983521,274.907959 488.002747,277.688049 
	C486.912598,280.778137 484.186310,281.052185 481.383209,280.733948 
	C477.824554,280.329865 474.745728,278.794128 471.763824,276.844482 
	C462.211365,270.598907 452.122925,265.488068 440.675476,263.827393 
	C434.881256,262.986816 428.966888,262.348663 423.477264,265.974121 
	C425.346313,268.417877 427.022095,270.286163 428.319427,272.388031 
	C429.891266,274.934601 429.522736,277.613312 427.549805,279.789337 
	C425.624634,281.912628 423.083130,282.783569 420.304596,281.595367 
	C418.641632,280.884247 417.037323,279.920319 415.599365,278.818512 
	C409.249268,273.953064 402.718567,269.396576 395.852448,265.250122 
	C359.912262,243.545792 321.332581,230.081207 279.232391,227.544693 
	C274.435822,227.255692 269.623474,227.878571 265.022675,229.666931 
	C255.923782,233.203690 252.327682,241.029190 249.669464,249.438766 
	C245.624557,262.235291 244.495743,275.466309 243.845383,288.823944 
	C242.468964,317.094177 245.844650,344.641479 255.536972,371.278229 
	C257.833832,377.590515 260.966339,383.606842 264.981750,390.268707 
	C274.309265,376.057190 284.330322,363.753265 296.009155,352.271118 
	C289.270508,346.429382 287.964844,339.962097 291.925781,332.618408 
	C293.560120,329.588318 295.952515,327.248138 298.999603,325.763489 
	C302.407593,324.103027 303.981232,322.128387 302.787506,317.999847 
	C301.390869,313.169373 303.136444,308.779938 306.556030,305.161652 
	C309.458374,302.090637 312.974670,299.939545 316.921692,298.391327 
	C323.592712,295.774658 330.582031,294.717865 337.776703,294.370758 
	C337.301514,292.419861 336.069427,291.753510 335.059448,290.946381 
	C318.853302,277.995270 300.014435,271.420959 279.779297,268.380157 
	C273.270569,267.402130 270.089325,264.552429 270.710449,259.512634 
	C271.298859,254.738235 275.488617,252.385132 281.871735,253.315308 
	C303.502197,256.467377 323.429077,264.009521 341.159271,276.884155 
	C351.860901,284.655060 361.652222,293.430908 368.565613,304.941620 
	C370.225769,307.705780 370.882660,310.677185 368.114349,313.122681 
	C365.695923,315.259094 363.218597,314.258057 360.807922,312.693665 
	C348.012268,304.389862 334.592438,305.727325 321.042694,310.344543 
	C319.052917,311.022583 316.566437,312.037262 316.574554,314.533966 
	C316.583740,317.365631 319.379486,317.922272 321.497986,318.796112 
	C322.725403,319.302429 324.026978,319.626892 325.288147,320.054047 
	C328.432800,321.119141 331.629791,322.059723 334.692322,323.324890 
	C336.266693,323.975281 337.420105,325.394135 337.047455,327.321808 
	C336.674042,329.253632 335.104279,329.983032 333.363190,330.128113 
	C331.209564,330.307526 329.029297,330.158051 326.873444,330.321381 
	C319.895905,330.850098 312.871216,331.243958 306.698914,335.147980 
	C304.972626,336.239868 303.328766,337.465881 303.361267,339.775635 
	C303.398315,342.407532 305.425293,343.469543 307.440247,344.291992 
	C309.433350,345.105530 311.553162,345.608490 313.616760,346.249634 
	C315.601288,346.866211 317.389282,347.743652 317.826782,350.036041 
	C318.280243,352.412048 316.782562,353.692841 315.034454,354.859955 
	C313.513824,355.875214 311.991180,356.915588 310.610626,358.108246 
	C293.521240,372.872620 279.805084,390.443329 269.124573,410.204254 
	C262.780670,421.941620 253.870880,430.133484 241.894684,435.486786 
	C237.956192,437.247314 234.110657,439.307648 230.474091,441.625458 
	C226.978760,443.853302 224.081543,446.929779 225.430054,451.551270 
	C226.738953,456.037018 230.740555,457.269653 234.838821,457.716553 
	C237.805099,458.040009 240.834091,457.742340 243.821396,457.934784 
	C245.884903,458.067719 247.823486,458.805969 248.404022,461.119385 
	C248.959122,463.331421 247.960205,464.937958 246.157379,466.227386 
	C243.448257,468.165009 240.669205,470.042603 238.173828,472.234802 
	C227.080292,481.980499 216.741348,492.326660 212.289078,507.022980 
	C209.954041,514.730652 213.356216,518.377930 221.233429,516.304443 
	C225.240524,515.249756 229.048981,513.457703 232.986771,512.114929 
	C234.924255,511.454193 237.070724,511.127716 238.511780,513.003174 
	C239.853439,514.749390 239.570099,516.815735 238.535217,518.663879 
	C237.642776,520.257629 236.587708,521.764648 235.547165,523.270325 
	C231.430588,529.227173 228.431503,535.705994 226.806885,542.752319 
	C225.330795,549.154419 224.891953,555.636780 227.499542,561.868835 
	C228.595078,564.487122 230.379272,567.193115 233.457565,567.363586 
	C236.199890,567.515381 237.527847,564.814270 238.918625,562.749329 
	C240.869614,559.852600 242.642380,556.824646 244.749100,554.048462 
	C245.829666,552.624512 247.429459,551.314697 249.506866,552.228516 
	C251.432297,553.075500 251.880508,554.953979 251.986481,556.812744 
	C252.107620,558.937500 251.538376,560.981323 251.979095,563.223999 
	C254.909790,578.138184 263.146332,589.884521 274.144897,599.722534 
	C288.788971,612.821289 306.156647,621.006836 324.804047,626.935852 
	C342.051117,632.419556 359.796967,635.047974 377.592438,637.609070 
	C381.374298,638.153381 384.752838,639.367920 384.178650,644.006470 
	C383.608398,648.612915 379.811218,648.901855 376.181549,648.850830 
	C372.189362,648.794800 368.199646,648.426880 364.208954,648.428345 
	C350.351746,648.433594 338.730652,657.921082 335.759888,671.580139 
	C335.034637,674.914612 334.714691,678.385620 337.258972,681.048767 
	C340.005341,683.923279 343.182831,681.978760 346.136292,681.087524 
	C348.683838,680.318787 351.364990,678.867493 353.247009,681.985596 
	C355.050110,684.972961 352.825439,686.971924 351.026917,688.943115 
	C346.160034,694.277222 341.951050,700.041992 339.448486,706.885315 
	C336.973419,713.653503 336.309326,720.536987 339.137329,727.344543 
	C341.258881,732.451538 343.873688,732.828247 347.605804,728.863647 
	C348.975769,727.408325 350.224884,725.833435 351.653839,724.440979 
	C353.457123,722.683838 355.489685,720.644165 358.162994,722.354736 
	C360.455780,723.821899 360.095184,726.347961 359.459412,728.716919 
	C358.856201,730.964539 358.289032,733.224854 357.801453,735.500061 
	C353.856079,753.909424 367.981384,771.488770 386.823303,771.642212 
	C391.441925,771.679810 392.837006,770.067139 392.020355,765.567078 
	C391.663879,763.602783 391.079193,761.669617 390.859558,759.693237 
	C390.564789,757.041321 390.157135,754.071716 393.433228,752.892151 
	C396.897491,751.644897 398.576263,753.977173 400.005981,756.672485 
	C404.028717,764.256226 409.110107,771.006714 415.870605,776.397400 
	C421.112579,780.577209 426.892151,783.187622 433.791382,782.726868 
	C436.130463,782.570740 437.984894,781.973206 438.823303,779.477722 
	C440.218292,775.325806 443.507568,774.825500 446.929993,776.124939 
	C459.027710,780.718201 471.585999,782.806946 484.399475,784.088989 
	C502.853821,785.935486 521.279968,786.146667 539.733948,784.405212 
	C553.031921,783.150330 566.082947,780.691772 578.745361,776.339111 
	C582.514648,775.043335 585.728760,775.448486 587.267822,779.742310 
	C588.079102,782.005737 589.815186,782.644714 591.946960,782.761353 
	C595.482300,782.954834 598.905212,782.602783 602.198975,781.120117 
	C609.045532,778.038086 614.755981,773.567017 619.015381,767.380493 
	C621.752014,763.405640 624.267395,759.277649 626.853149,755.199951 
	C628.286255,752.940063 630.291443,752.041504 632.834167,752.829224 
	C635.227600,753.570618 635.497009,755.666626 635.293335,757.725342 
	C635.081787,759.862488 634.679138,761.997070 634.165649,764.085022 
	C632.654846,770.228455 634.099304,772.200684 640.436646,771.587585 
	C655.726807,770.108398 672.999268,756.690430 668.086182,734.671265 
	C667.433899,731.747925 666.608276,728.857727 666.089905,725.912231 
	C665.790833,724.212646 666.292236,722.553955 667.972168,721.623657 
	C669.497498,720.778870 670.874268,721.453308 672.188110,722.253174 
	C674.239563,723.501953 675.478149,725.519775 676.973816,727.301758 
	C678.519653,729.143433 679.501770,732.140747 682.567200,731.535889 
	C685.603882,730.936768 686.244812,727.950012 687.077942,725.444885 
	C687.490784,724.203613 687.605530,722.848572 687.744202,721.533264 
	C689.138367,708.309875 683.355469,697.994934 674.489746,688.938660 
	C672.448669,686.853821 670.248230,684.539856 672.279846,681.563110 
	C674.224609,678.713562 677.030212,680.312317 679.556458,681.110229 
	C682.482178,682.034241 685.610046,684.196899 688.370789,681.189819 
	C691.081909,678.236816 691.093201,674.602661 689.994202,670.846497 
	C686.435608,658.684082 676.253906,645.799561 658.017273,648.541321 
	C654.584656,649.057312 651.023132,649.079102 647.551147,648.857483 
	C644.612915,648.669922 641.960327,647.514832 641.719604,643.875854 
	C641.489319,640.393738 643.526611,638.638062 646.568604,637.905212 
	C648.825684,637.361450 651.158081,637.112366 653.466187,636.800354 
	C677.806274,633.510193 701.741638,628.723572 724.060608,617.884583 
	C742.724304,608.820740 758.911682,596.959106 768.834167,578.090942 
	C772.109863,571.862122 774.553101,565.322632 774.542114,558.148804 
	C774.538269,555.676941 773.617981,552.829285 776.943726,551.910034 
	C779.919800,551.087341 781.513489,553.369507 782.899109,555.483948 
	C784.904968,558.544617 786.517700,561.896057 788.763489,564.758301 
	C791.849243,568.691162 794.854858,568.312744 797.399536,563.993530 
	C799.494324,560.437988 799.884644,556.482361 800.032471,552.437195 
	C800.483826,540.086670 795.294189,529.849670 788.270020,520.242310 
	C786.802368,518.234924 785.040771,516.014404 786.999207,513.469360 
	C789.029114,510.831604 791.719177,511.604034 794.272583,512.711182 
	C798.556213,514.568604 802.841187,516.468933 807.509705,517.086121 
	C812.342346,517.725098 815.174927,514.664490 814.278931,509.876465 
	C813.158386,503.888824 810.786255,498.338470 807.239014,493.459076 
	C800.056396,483.578918 791.919617,474.569580 781.759949,467.581787 
	C779.324280,465.906555 776.026917,464.370972 777.439575,460.677246 
	C778.777649,457.178528 782.242065,457.821808 785.252747,457.877045 
	C787.577942,457.919647 789.969116,458.032623 792.221191,457.574615 
	C796.047791,456.796448 799.792664,455.441437 800.762573,450.996552 
	C801.673828,446.820251 799.273438,444.073914 796.153381,441.765015 
	C791.960144,438.662048 787.160645,436.690643 782.495544,434.502838 
	C770.935364,429.081421 762.464417,420.899384 756.382385,409.432648 
	C745.844849,389.566101 731.902710,372.183350 714.916138,357.301178 
	C712.472412,355.160126 707.468567,354.748871 708.254883,350.182983 
	C708.997437,345.870667 713.683899,346.515594 716.710022,345.116730 
	C719.226929,343.953186 722.581665,343.462433 722.666565,339.916168 
	C722.747253,336.542877 719.702393,335.369080 717.240906,334.031067 
	C715.935059,333.321289 714.486755,332.856445 713.074036,332.363403 
	C706.984619,330.238464 700.666992,330.123077 694.318176,330.266022 
	C692.071899,330.316620 689.613220,330.115143 689.009766,327.557373 
	C688.319031,324.629730 690.784180,323.497559 692.988708,322.673065 
	C696.729736,321.273926 700.545166,320.073639 705.066589,318.574585 
M701.106323,770.320984 
	C703.148743,771.037292 705.217529,771.686890 707.229126,772.481262 
	C716.528931,776.153992 726.167297,777.634094 736.102966,776.647766 
	C739.769470,776.283813 743.691895,775.983521 746.193481,772.462341 
	C744.602478,769.732544 741.722168,769.294189 739.618652,767.761108 
	C738.226074,766.746155 736.845825,765.599670 737.607239,763.659912 
	C738.343323,761.784424 740.119751,761.661499 741.839417,761.830750 
	C742.824524,761.927795 743.783569,762.265564 744.763428,762.445129 
	C758.891113,765.033813 772.871399,765.466614 786.411987,759.562378 
	C794.232788,756.152222 800.931763,751.361450 805.077271,743.694153 
	C807.852295,738.561707 807.113464,737.176392 801.537781,736.240234 
	C799.970459,735.977112 798.575745,735.568481 798.005920,733.934387 
	C797.352600,732.061279 798.302429,730.693665 799.679932,729.604919 
	C801.769043,727.953796 804.001038,726.477051 806.033752,724.762024 
	C818.645508,714.120544 827.438843,701.514221 826.682251,684.079773 
	C826.551758,681.071899 826.186096,678.161682 823.138611,676.494507 
	C820.392944,678.193726 819.429199,681.081665 817.338501,682.960754 
	C816.166809,684.013916 814.936157,684.844971 813.311768,684.056091 
	C811.912659,683.376465 811.534485,682.040710 811.714478,680.673157 
	C812.168640,677.221680 812.559509,673.739929 813.354797,670.359497 
	C815.371094,661.788574 815.095642,653.509033 810.715576,645.675537 
	C807.148376,639.295837 801.657837,636.094177 794.316650,636.288391 
	C784.144592,636.557434 775.354919,644.692078 772.357056,657.011841 
	C770.587830,664.282654 769.916992,671.764954 769.374390,679.224548 
	C769.114319,682.799744 768.395203,686.158936 766.223145,689.043091 
	C764.931824,690.757751 763.126648,691.632385 760.948486,690.914795 
	C759.016907,690.278442 757.979675,688.755249 757.840698,686.781433 
	C757.736511,685.302124 757.816162,683.782288 758.032288,682.312561 
	C759.264282,673.934387 755.712830,669.240662 747.351013,668.283447 
	C735.560974,666.933899 724.559753,669.767517 713.902344,674.520325 
	C708.665955,676.855530 703.712219,679.313782 701.761475,685.451477 
	C701.140991,687.403809 699.569641,689.273560 697.972961,690.645081 
	C695.469299,692.795837 695.507385,694.731140 696.849243,697.567810 
	C701.050049,706.447998 703.541931,715.776428 701.229370,725.622131 
	C698.989319,735.159119 695.299377,743.838928 684.333923,746.352783 
	C682.240784,746.832703 681.862854,748.334900 681.473633,749.964050 
	C681.010864,751.901306 680.867371,753.962097 680.111023,755.770996 
	C678.934326,758.585205 679.996948,760.179749 682.386719,761.409729 
	C688.304688,764.455627 694.075684,767.807434 701.106323,770.320984 
z"/>
<path fill="#000000" opacity="1.000000" stroke="none" 
	d="
M417.242737,512.359741 
	C394.826141,524.364197 370.570496,522.154480 352.847931,506.359863 
	C344.848724,499.230835 340.188660,490.155975 339.708527,479.296631 
	C339.436584,473.146393 341.487213,470.535706 347.481537,469.854095 
	C361.180084,468.296478 374.907806,466.978821 388.638306,465.723969 
	C399.217590,464.757141 409.823822,464.088806 420.409790,463.190186 
	C435.605621,461.900238 439.538330,463.023834 437.819397,481.815186 
	C436.580017,495.363983 428.984467,505.171997 417.242737,512.359741 
M414.383118,477.660156 
	C414.027924,475.925812 412.986359,474.671204 411.581940,473.677887 
	C406.567322,470.131317 393.539917,470.388214 388.616882,474.127075 
	C385.027344,476.853149 385.225372,480.785187 389.466492,482.839966 
	C396.641754,486.316193 403.978760,485.781433 411.150879,482.568542 
	C412.909576,481.780701 413.928040,480.231903 414.383118,477.660156 
M417.703918,495.355957 
	C417.795013,493.499237 417.060211,492.085999 415.263885,491.510864 
	C413.191040,490.847229 411.339844,491.201782 410.134430,493.254242 
	C409.044006,495.110962 409.267761,496.864960 411.061188,498.012604 
	C413.837921,499.789490 416.055237,498.960999 417.703918,495.355957 
z"/>
<path fill="#000000" opacity="1.000000" stroke="none" 
	d="
M677.745300,469.781921 
	C685.795837,472.065765 687.515015,474.692749 686.013123,482.616882 
	C682.733704,499.919098 672.360229,511.252930 655.845276,516.612488 
	C634.746521,523.459534 615.232361,520.488953 599.091797,504.499542 
	C589.722778,495.218292 585.709961,483.613342 588.604919,470.261230 
	C589.900024,464.288086 592.073303,462.457794 598.387512,462.772736 
	C608.347717,463.269440 618.306763,463.937622 628.237549,464.846710 
	C644.611572,466.345551 660.962769,468.094696 677.745300,469.781921 
M601.751587,475.448608 
	C600.250610,479.158051 601.778015,481.541077 605.156067,483.024384 
	C612.298645,486.160614 619.440002,485.915283 626.233337,482.239227 
	C630.662781,479.842346 630.529358,475.961273 626.319214,473.376343 
	C620.551880,469.835297 607.826660,470.602875 601.751587,475.448608 
M627.737732,496.751617 
	C629.371765,498.989655 631.474121,499.482086 633.804688,498.061676 
	C635.354126,497.117310 636.013245,495.521423 635.341919,493.741364 
	C634.608398,491.796478 633.003296,490.935303 630.980530,491.190369 
	C628.151001,491.547180 626.954834,493.234619 627.737732,496.751617 
z"/>
<path fill="#000000" opacity="1.000000" stroke="none" 
	d="
M556.388550,717.604980 
	C546.797791,715.991394 537.863586,713.290344 529.395447,709.698242 
	C519.902893,705.671631 514.311279,693.005676 516.207947,682.838684 
	C520.291443,660.949646 536.954773,646.749268 560.107544,645.770447 
	C574.290894,645.170898 587.899231,647.974426 600.872559,653.773193 
	C601.480103,654.044800 602.072327,654.351440 602.665833,654.653381 
	C606.020020,656.359558 607.236206,659.176697 605.868896,662.550537 
	C604.540100,665.829285 601.752136,666.520264 598.394165,665.471619 
	C588.713074,662.448364 579.033508,659.396301 568.806702,658.751709 
	C554.666992,657.860596 541.835083,660.364868 533.124146,672.950500 
	C529.184143,678.643005 527.421997,685.008118 529.391357,691.866089 
	C530.727478,696.518982 533.704895,699.634094 539.114258,699.967773 
	C541.531067,696.235168 540.361694,690.680969 544.706421,687.902222 
	C546.812317,689.378845 546.213623,691.187988 546.250183,692.741150 
	C546.379333,698.226624 547.600403,703.125427 553.382629,705.254333 
	C559.058777,707.344177 565.714417,705.378357 569.739258,700.686584 
	C570.386658,699.932007 570.856323,699.024902 571.503784,698.270325 
	C572.820984,696.735229 572.571838,693.209229 575.351257,693.767029 
	C578.284973,694.355835 578.756348,697.634766 579.179443,700.177124 
	C580.588196,708.642029 574.665100,715.607788 564.761536,717.187622 
	C562.151550,717.603943 559.461365,717.518005 556.388550,717.604980 
z"/>
<path fill="#000000" opacity="1.000000" stroke="none" 
	d="
M495.246948,656.706604 
	C506.343262,667.639526 512.710754,679.975891 508.191101,695.517578 
	C505.405182,705.097412 498.641449,711.108276 488.565460,712.390625 
	C482.208160,713.199646 477.023743,717.433594 470.461700,717.644714 
	C464.284363,717.843445 458.539490,717.006592 453.304199,713.655029 
	C446.852661,709.524841 445.104004,703.217529 448.408508,696.327332 
	C448.982544,695.130493 449.411102,693.777100 451.054688,693.682312 
	C452.774597,693.583191 453.209137,694.994263 453.807495,696.153931 
	C456.830322,702.012634 461.049561,706.070190 468.163269,705.996338 
	C475.642487,705.918640 479.451782,702.153870 479.769775,694.625671 
	C479.863495,692.406982 478.930878,690.018372 480.717926,687.600647 
	C486.038635,690.166870 484.199951,696.147583 486.586639,699.860474 
	C492.808380,698.945068 496.235626,695.366943 496.757812,689.401733 
	C497.754059,678.021301 491.307831,667.328003 480.766449,662.446777 
	C470.462921,657.675720 459.841187,657.808228 449.012756,659.860962 
	C441.474792,661.289978 434.184113,663.618103 426.854614,665.811890 
	C423.729797,666.747253 421.199615,666.030884 419.779907,662.938232 
	C418.350555,659.824463 419.560944,657.029846 422.186218,655.587585 
	C440.694427,645.419495 474.534668,639.326294 495.246948,656.706604 
z"/>
<path fill="#000000" opacity="1.000000" stroke="none" 
	d="
M347.060394,530.910522 
	C335.854248,541.456726 313.403839,542.211121 301.938629,532.700745 
	C295.319275,527.209961 295.220398,518.557190 301.711304,512.801941 
	C312.617004,503.132233 335.682861,503.569580 346.133545,513.644165 
	C351.271027,518.596802 351.654205,524.147888 347.060394,530.910522 
z"/>
<path fill="#000000" opacity="1.000000" stroke="none" 
	d="
M706.654785,505.818481 
	C713.122620,506.725525 718.777344,508.524811 723.622314,512.350220 
	C730.968628,518.150635 730.859619,527.478760 723.400574,533.116760 
	C713.380127,540.690796 694.209412,541.461182 683.542847,534.718445 
	C673.182800,528.169495 673.389893,516.484253 684.054871,510.316589 
	C690.901733,506.357086 698.403809,505.264008 706.654785,505.818481 
z"/>
<path fill="#000000" opacity="1.000000" stroke="none" 
	d="
M532.838135,525.310913 
	C527.018005,525.539429 521.833008,524.278748 517.991333,520.681091 
	C514.111084,517.047241 511.598877,518.176697 507.908386,520.855103 
	C500.992004,525.874817 493.212921,526.798401 485.189514,523.391296 
	C480.795624,521.525513 477.910492,518.223450 476.603912,513.608276 
	C475.908905,511.153381 476.120148,508.832153 478.605286,507.544525 
	C480.961273,506.323822 482.954407,507.536530 484.165161,509.481964 
	C487.157104,514.289551 491.470856,515.655334 496.654755,514.429382 
	C502.673065,513.006042 506.426086,508.847809 508.446564,503.210388 
	C509.677856,499.775177 507.789917,497.219971 505.357117,494.868317 
	C499.719391,489.418610 500.761810,485.660950 508.390778,483.350342 
	C512.043518,482.244080 515.630615,482.421326 519.150269,483.827332 
	C524.822937,486.093292 525.660400,489.659821 521.608521,494.131378 
	C516.290955,499.999695 516.175232,503.011597 521.030090,509.185608 
	C525.172607,514.453735 532.233032,516.348022 537.533569,513.693909 
	C539.418030,512.750305 540.628601,511.242096 541.717957,509.531921 
	C542.921997,507.641602 544.663696,506.818024 546.854736,507.517151 
	C549.255310,508.283173 549.535767,510.356995 549.336487,512.409607 
	C548.841003,517.512146 545.884827,520.985596 541.450012,523.168518 
	C538.917053,524.415222 536.156372,525.170227 532.838135,525.310913 
z"/>
</svg>