<svg version="1.1" id="Layer_1" xmlns="http://www.w3.org/2000/svg" xmlns:xlink="http://www.w3.org/1999/xlink" x="0px" y="0px"
	 width="100%" viewBox="0 0 1024 1024" enable-background="new 0 0 1024 1024" xml:space="preserve">
<path fill="#000000" opacity="1.000000" stroke="none" 
	d="
M280.391388,431.594147 
	C281.819916,427.792206 282.946259,424.291321 284.438049,420.953796 
	C285.845490,417.804993 285.250763,416.350769 281.799347,415.119843 
	C255.697647,405.810669 240.270599,386.833099 236.107452,359.972046 
	C231.221375,328.446472 243.362747,302.730560 268.923859,284.458710 
	C298.360474,263.416534 329.846893,261.401489 362.043427,278.910522 
	C363.169830,279.523102 364.125641,280.652435 366.164978,280.129852 
	C366.513672,277.277313 366.670776,274.177338 367.296295,271.174957 
	C370.842804,254.152100 381.141510,241.405228 394.082062,230.719162 
	C412.565308,215.456085 433.719116,206.482071 457.957855,205.584824 
	C459.283447,205.535767 460.597534,205.229019 461.922241,205.093567 
	C465.699615,204.707352 466.886139,203.242569 465.893494,199.105362 
	C462.200989,183.715668 463.578064,168.976639 473.429108,155.920212 
	C486.578827,138.491852 504.773560,132.893692 525.577454,135.255966 
	C531.881104,135.971741 534.960938,134.295731 537.796265,129.102570 
	C544.531494,116.766548 552.614868,105.381607 563.241821,95.974480 
	C566.261414,93.301453 569.493591,90.987701 573.053406,89.140343 
	C580.087708,85.489868 588.221497,87.461823 591.958435,93.655792 
	C595.939636,100.254646 593.851807,109.106171 587.196533,113.472656 
	C583.540649,115.871254 579.421570,117.191742 575.250610,118.434593 
	C563.718445,121.870865 552.881775,126.402328 546.792419,137.846695 
	C546.413818,138.558136 546.086792,139.296951 545.741821,140.010483 
	C547.843384,142.805008 550.908020,143.971573 553.431091,145.802795 
	C560.745911,151.111847 566.519226,157.638626 570.114990,165.943008 
	C571.218689,168.492050 573.017944,169.704178 575.484314,170.663696 
	C596.908020,178.998383 608.657410,194.842331 611.317383,217.513870 
	C611.925293,222.694931 613.851624,225.790024 619.436890,227.214157 
	C643.764709,233.417160 658.913208,251.751450 661.358521,277.157990 
	C661.418457,277.781036 661.671509,278.385498 661.834961,279.000305 
	C664.244324,279.523651 665.778564,277.989502 667.473877,277.109528 
	C717.377014,251.206055 778.595581,280.021881 789.892395,335.144012 
	C796.572876,367.740967 778.533142,402.626923 746.201416,414.369812 
	C740.139709,416.571411 740.227234,416.540894 742.331177,422.447998 
	C749.419617,442.349548 753.869507,462.758667 753.228638,484.001770 
	C753.038940,490.289734 752.266541,496.611206 751.124695,502.799896 
	C750.454895,506.430695 751.670654,507.640381 754.750000,508.995026 
	C774.052002,517.486206 786.605652,531.995850 792.469788,552.262573 
	C794.218567,558.306580 794.331665,564.469116 792.902466,570.527893 
	C792.233093,573.365662 792.939514,575.198914 794.717590,577.261780 
	C808.416748,593.155090 812.301147,610.922607 804.142090,630.614929 
	C798.931702,643.190308 789.138489,651.360352 776.687805,656.015808 
	C771.276611,658.039062 768.239685,661.427490 766.128601,666.329773 
	C760.131470,680.255615 755.121460,694.558899 750.187988,708.874390 
	C739.557129,739.722046 728.717651,770.485535 716.925354,800.916016 
	C711.992676,813.645081 703.118713,822.675903 692.111023,830.042847 
	C668.692871,845.715759 642.370972,853.903564 615.084778,859.219788 
	C578.659973,866.316467 541.732239,868.425903 504.731140,867.856689 
	C464.414368,867.236450 424.214844,864.496155 385.174896,853.231567 
	C362.953308,846.819763 341.847260,838.055359 324.017822,822.618286 
	C312.989227,813.069519 308.510071,800.036987 303.666443,787.091553 
	C289.256256,748.577698 276.551178,709.446655 261.682709,671.098755 
	C260.840424,668.926331 259.814758,666.822388 259.029755,664.630981 
	C257.521667,660.420837 254.768585,658.171753 250.355591,656.644043 
	C218.099335,645.476868 207.461578,605.725891 229.437592,579.147583 
	C231.708725,576.400818 233.486053,573.938110 232.814972,569.824036 
	C230.119476,553.299805 236.552689,539.414001 246.627014,527.014099 
	C253.100449,519.046265 261.069885,512.606323 270.826630,509.008759 
	C274.706451,507.578186 275.293884,505.417084 274.633240,501.915649 
	C270.138672,478.095398 273.471954,454.889587 280.391388,431.594147 
M547.117676,604.617493 
	C550.428955,604.287292 553.795532,604.227905 557.038757,603.564636 
	C562.171753,602.515015 567.972839,603.761169 572.363098,600.136597 
	C591.096191,584.670532 612.113892,581.122009 635.169861,587.660156 
	C637.417603,588.297607 639.501099,588.733765 641.965088,588.045410 
	C656.456299,583.996948 670.441162,578.726135 683.714722,571.606873 
	C700.151733,562.790955 714.216553,551.270386 724.138428,535.285889 
	C736.341675,515.626160 741.422791,494.313416 740.010071,471.040497 
	C738.851868,451.961212 734.723206,433.765198 726.842590,416.565979 
	C709.083862,377.808228 681.180481,348.569550 642.989197,329.292328 
	C640.335510,327.952911 638.832092,328.294312 636.478699,330.124359 
	C613.310852,348.140381 587.368103,352.555084 559.221924,345.180542 
	C557.030579,344.606384 555.188599,344.434692 552.984558,345.242035 
	C509.184235,361.286652 465.119537,362.165619 420.968414,346.886017 
	C410.759338,343.352936 400.353394,339.458527 393.365784,330.579620 
	C390.223114,326.586304 387.681610,326.808624 383.747192,328.821747 
	C363.217163,339.326172 344.751495,352.548004 329.615692,370.044006 
	C300.300415,403.930695 283.045319,442.439056 286.326538,488.178619 
	C288.422424,517.394897 301.152283,541.437561 324.214691,559.687561 
	C340.377258,572.477539 359.011200,580.421997 378.458893,586.759338 
	C383.247406,588.319702 387.545044,588.374146 392.480316,587.133362 
	C415.000854,581.471497 435.760254,584.627014 453.489319,600.791382 
	C454.636078,601.836975 455.835236,602.539856 457.441437,602.662903 
	C470.711731,603.679565 483.936646,605.238647 497.252991,605.716614 
	C513.588562,606.302979 529.885986,605.556702 547.117676,604.617493 
M648.712097,274.931458 
	C647.003174,261.469666 641.057739,250.601883 629.300171,243.318756 
	C627.974304,242.497498 626.798035,240.970322 624.885681,242.412781 
	C622.308960,244.356262 620.691895,242.705734 619.054749,240.772751 
	C616.640808,237.922562 613.717651,235.925995 609.668579,235.898270 
	C608.538940,238.920685 607.643127,241.777008 606.428589,244.490662 
	C599.652954,259.629486 586.755737,266.675354 571.697815,271.339874 
	C554.646057,276.621979 536.891174,273.673645 519.669922,276.558014 
	C518.256836,276.794678 517.076416,276.140167 516.456848,274.716797 
	C515.710999,273.003540 516.579285,271.804871 517.772461,270.795807 
	C519.873657,269.018677 522.476868,268.315979 525.079895,267.759338 
	C531.119568,266.467682 537.250061,265.998871 543.416626,265.661987 
	C554.257507,265.069763 565.019470,263.621826 575.133179,259.483002 
	C582.893494,256.307220 590.404358,252.310745 594.536011,244.506973 
	C605.300903,224.174408 598.252930,197.468719 578.969299,184.803833 
	C577.230652,183.661972 575.517639,182.139450 572.669312,182.955963 
	C572.349915,188.677155 571.580200,194.376999 568.574097,199.548889 
	C561.739136,211.308456 551.008972,217.875748 538.688049,222.430786 
	C519.152039,229.653320 499.128906,230.780060 478.709839,227.393967 
	C476.195801,226.977066 473.564178,226.949722 472.647156,223.991776 
	C471.575836,220.536148 475.305908,220.870575 476.646515,219.297913 
	C474.087616,214.026901 469.456329,213.930771 464.682190,214.411865 
	C447.787048,216.114471 431.568756,220.060883 416.815643,228.895203 
	C401.443878,238.100006 388.944305,250.012070 381.755157,266.710907 
	C376.158142,279.711517 381.340759,289.848907 394.852142,293.542419 
	C406.449280,296.712616 417.982605,295.451538 429.443878,293.179474 
	C450.782318,288.949432 470.029083,279.407501 488.957062,269.136047 
	C492.323975,267.308990 495.697479,265.491852 499.107635,263.747742 
	C500.861633,262.850647 502.725922,262.583740 504.006561,264.487183 
	C505.225281,266.298584 504.585144,268.072388 503.151031,269.443634 
	C501.712891,270.818726 500.166443,272.123962 498.508148,273.218506 
	C486.674896,281.029144 474.441986,288.186096 461.479889,293.929596 
	C444.107452,301.627289 425.973816,306.318512 406.795959,305.672913 
	C400.167969,305.449799 395.684753,311.270599 398.098145,317.526855 
	C399.572937,321.349854 401.930054,324.462372 405.172363,327.009460 
	C411.567230,332.033081 418.889252,335.220367 426.500244,337.713348 
	C449.260712,345.168640 472.684326,347.057251 496.484833,345.849182 
	C517.645020,344.775146 538.100525,340.701447 557.415222,331.813690 
	C566.937622,327.431885 576.460938,322.962921 583.984009,315.275818 
	C585.900940,313.317108 588.360596,311.685028 590.975281,314.154938 
	C593.671204,316.701569 591.640381,319.028168 590.111267,321.198395 
	C588.562012,323.397339 586.418030,325.000763 584.390930,326.740112 
	C579.856689,330.630646 574.485840,333.394104 569.001160,337.332367 
	C583.017334,338.637085 595.640869,337.629669 608.071045,333.598175 
	C632.043152,325.823334 651.733826,303.168518 648.712097,274.931458 
M589.106506,692.398743 
	C587.254395,692.150635 585.486450,692.460083 583.692017,692.974243 
	C562.241150,699.119995 540.392212,703.600281 518.648438,708.526123 
	C514.658508,709.430054 510.733429,709.633667 506.775208,708.761719 
	C494.754150,706.113831 482.699219,703.597412 470.748596,700.659241 
	C460.895966,698.236877 451.198303,695.191101 441.384399,692.601929 
	C434.211792,690.709717 429.680054,693.757690 430.403137,699.872681 
	C431.495667,709.112000 432.824982,718.323059 433.961914,727.557373 
	C436.113892,745.036194 438.340118,762.507690 440.278717,780.010620 
	C442.640167,801.331299 445.031067,822.645996 447.583771,843.944946 
	C448.303314,849.948486 450.963074,851.336365 456.022705,851.595947 
	C488.461700,853.260559 520.900146,854.769165 553.376587,852.632996 
	C559.851013,852.207092 566.308472,851.520142 572.783508,851.106323 
	C576.186646,850.888855 577.576965,849.547058 577.875061,845.908936 
	C578.621033,836.803711 579.937866,827.745361 581.021667,818.667725 
	C583.561707,797.393127 586.089172,776.116943 588.641113,754.843750 
	C590.799988,736.847229 592.774841,718.824280 595.296021,700.878357 
	C596.000366,695.864624 595.014343,693.191101 589.106506,692.398743 
M587.318665,666.593018 
	C586.591370,673.593567 589.828552,680.159485 595.903381,681.983887 
	C610.048706,686.231873 623.964844,691.631958 638.736389,693.267212 
	C652.438965,694.784180 666.869568,695.121643 678.381348,687.065796 
	C685.157715,682.323730 690.957397,681.990234 698.353210,681.625977 
	C714.711731,680.820374 726.026855,670.621155 735.525391,658.196472 
	C736.375305,657.084717 736.326904,655.846924 736.228943,654.434509 
	C735.948853,650.399536 738.309387,648.297058 742.077087,649.042114 
	C753.379211,651.277100 763.525818,647.849121 773.365845,643.065430 
	C788.968750,635.480042 796.158936,622.516357 794.670654,605.304504 
	C793.956665,597.047058 790.316101,590.063293 785.467407,583.523315 
	C782.140198,579.035645 777.412170,578.015198 772.351074,577.480530 
	C769.622009,577.192200 767.919250,575.526550 768.080383,572.871460 
	C768.259399,569.923645 770.397888,568.807190 773.281311,568.640503 
	C780.070801,568.247986 781.028564,567.242554 780.673218,560.328491 
	C780.129089,549.740601 775.557678,540.727905 768.860535,532.820068 
	C763.114563,526.035400 756.303406,520.588074 746.761230,518.185303 
	C732.372314,561.813293 698.280640,583.291382 657.895325,597.168213 
	C660.550903,600.096924 662.641296,602.449158 664.781738,604.755066 
	C678.795105,619.852173 677.625305,642.280212 661.234680,654.431702 
	C646.079712,665.667236 628.313293,668.967102 609.698486,667.741577 
	C603.349976,667.323669 597.293396,665.316101 591.334473,663.180359 
	C588.576843,662.192078 587.135925,662.597778 587.318665,666.593018 
M339.896179,585.722168 
	C312.484711,572.037598 291.748840,551.978210 280.763123,522.923706 
	C278.940674,518.103882 276.710419,518.127686 273.029785,520.071960 
	C259.340790,527.302917 250.429718,538.380737 246.341064,553.294495 
	C244.932190,558.433472 244.536057,563.633362 245.870605,569.071167 
	C247.680359,568.935425 248.987396,568.833496 250.295029,568.740051 
	C253.589478,568.504456 257.186340,568.376038 257.554718,572.720642 
	C257.941772,577.285583 254.264313,577.984192 250.785736,578.160522 
	C248.034622,578.299927 245.602707,578.902039 243.388351,580.654541 
	C229.791595,591.415283 226.636246,617.877869 237.939590,631.065613 
	C249.766281,644.863953 265.021515,651.005615 283.257812,649.141418 
	C287.822052,648.674805 290.686768,650.259644 290.129425,653.897522 
	C289.613800,657.263367 291.167389,659.260437 293.011902,661.398804 
	C297.504486,666.607300 302.595978,671.259949 308.494171,674.694702 
	C317.247192,679.791931 326.140442,685.167114 337.049957,680.632935 
	C338.882477,679.871216 340.976959,680.665283 341.673920,682.592590 
	C343.049347,686.396057 346.364929,687.568359 349.500031,689.024048 
	C361.104858,694.412231 373.377991,694.385620 385.733643,693.239380 
	C400.609100,691.859314 414.295776,685.606018 428.764923,682.534973 
	C434.055817,681.411987 436.909363,677.414551 438.987518,673.020752 
	C440.421814,669.988098 440.517639,666.203552 438.502411,663.454102 
	C436.813293,661.149658 434.125153,663.307800 432.131317,664.022095 
	C412.305847,671.124390 393.193024,668.021240 374.266602,660.472656 
	C348.437775,650.171265 343.062958,620.387695 363.742767,601.893555 
	C365.153381,600.632019 367.120514,599.793823 367.773834,597.438354 
	C358.528595,593.891602 349.277802,590.598267 339.896179,585.722168 
M563.920898,642.337952 
	C559.746216,634.627319 560.483765,626.299011 561.126526,617.995117 
	C558.330383,616.782410 555.665588,617.258240 553.083496,617.601562 
	C541.354980,619.160522 529.545105,619.801086 517.752869,619.823425 
	C501.964172,619.853333 486.152435,619.670654 470.448792,617.479797 
	C464.675934,616.674377 464.405334,617.219421 464.970245,623.182434 
	C466.117798,635.296204 462.143616,645.621460 452.916168,653.440247 
	C449.083923,656.687439 446.478333,659.407959 448.859100,664.613953 
	C449.340332,665.666260 449.060120,667.323547 448.607422,668.500610 
	C446.870544,673.016663 447.846100,678.027954 445.469055,682.461243 
	C446.376007,682.956177 446.903046,683.401062 447.503174,683.548340 
	C464.453979,687.710571 481.272339,692.445251 498.447021,695.643982 
	C504.098877,696.696594 509.596069,699.015625 515.555298,697.944214 
	C533.221863,694.767944 550.700745,690.755859 568.007324,686.016541 
	C572.431213,684.805115 577.137573,684.408325 581.362610,682.059082 
	C579.897278,674.908447 577.946228,668.002441 578.763367,660.787048 
	C579.014343,658.571411 577.488464,657.522217 576.019897,656.403137 
	C571.200439,652.730774 567.075439,648.446716 563.920898,642.337952 
M297.775391,282.329315 
	C265.425140,293.371033 246.467484,320.354919 248.301163,352.749786 
	C249.589600,375.511963 266.902191,397.487213 288.491730,403.748718 
	C290.191101,404.241577 292.148376,405.483368 293.473816,403.391632 
	C298.174652,395.972900 302.735382,388.465363 307.278961,381.105255 
	C305.798553,378.832092 303.675568,378.081848 301.934967,376.858124 
	C290.554016,368.856720 284.607178,355.000641 287.266418,342.564880 
	C290.214386,328.778931 300.788116,318.329834 314.394379,315.756775 
	C329.202332,312.956421 343.270905,318.750916 351.082001,331.289795 
	C353.071106,334.482849 354.689545,334.923309 357.784607,332.997650 
	C363.436768,329.480957 369.225067,326.171356 375.060638,322.964752 
	C380.450104,320.003235 380.774384,319.407837 378.270813,313.670990 
	C377.674713,312.305115 376.912048,311.008850 376.183746,309.704163 
	C360.592682,281.776428 327.053101,272.623077 297.775391,282.329315 
M742.220215,288.281097 
	C719.011169,276.148560 695.589966,274.404449 671.983276,287.058838 
	C667.142944,289.653503 661.415894,292.235229 659.232910,297.147522 
	C655.664246,305.177826 652.229004,313.186401 646.424377,320.583191 
	C655.421143,325.629883 664.117615,329.759277 672.124268,335.619843 
	C681.165405,319.034393 694.928772,312.198547 712.757629,316.072784 
	C727.719604,319.324066 737.042236,329.481201 738.722839,344.833954 
	C740.485229,360.933899 732.899658,372.649750 718.336060,380.295044 
	C722.981018,388.025818 727.475037,395.561676 732.033386,403.058350 
	C733.448792,405.386139 735.464844,404.382843 737.381409,403.805695 
	C759.410156,397.171539 776.795410,374.697906 777.725708,351.703979 
	C778.862061,323.618469 766.086792,303.240784 742.220215,288.281097 
M426.891632,743.308777 
	C425.175873,727.656311 423.460114,712.003845 421.649384,695.485168 
	C406.666809,700.773132 391.912842,703.694702 376.530243,705.369995 
	C377.581635,712.408936 378.264526,718.826172 379.526794,725.127441 
	C386.904938,761.959717 394.559875,798.737244 401.748199,835.606018 
	C402.951416,841.777222 405.509491,844.684631 411.752106,845.453369 
	C420.566589,846.538879 429.209625,849.011108 438.088562,849.063660 
	C439.038879,846.675171 438.439972,844.731995 438.210602,842.768188 
	C437.034698,832.700073 435.708099,822.644348 434.796600,812.551575 
	C432.733368,789.706787 429.754822,766.970154 426.891632,743.308777 
M637.634460,767.261108 
	C641.793762,746.799194 646.381653,726.414490 649.360596,704.836304 
	C633.768616,704.714111 619.399414,700.816589 605.291748,696.281860 
	C603.480469,700.509399 586.966309,842.384521 587.322021,849.116821 
	C588.369873,849.905640 589.540833,849.614624 590.666870,849.407654 
	C598.849060,847.903931 606.982910,846.039001 615.220581,844.970642 
	C620.593750,844.273682 622.731079,841.777466 623.725403,836.594116 
	C628.112488,813.725098 632.876526,790.928345 637.634460,767.261108 
M679.540649,785.129089 
	C688.875916,754.827393 698.211243,724.525696 707.792847,693.424377 
	C700.025818,693.589661 692.915833,692.052307 686.227234,695.787476 
	C679.019714,699.812439 671.278503,702.343445 663.123108,703.375244 
	C658.384521,703.974792 656.057983,705.922668 655.105042,710.944641 
	C648.005432,748.357483 640.552124,785.703064 633.302673,823.087769 
	C632.181274,828.870850 630.254578,834.567627 630.369324,840.947571 
	C632.141296,840.697449 633.475220,840.680420 634.701660,840.308838 
	C643.944397,837.508301 653.131775,834.568115 661.961304,830.574280 
	C664.622070,829.370789 666.153442,827.747498 667.012268,824.945190 
	C671.010620,811.898560 675.186340,798.906128 679.540649,785.129089 
M378.909698,753.369934 
	C376.118317,738.502380 373.333069,723.633728 370.529297,708.768494 
	C370.080170,706.387390 369.436371,704.478088 366.286133,704.209229 
	C356.589722,703.381531 347.438019,700.405518 338.442566,696.767761 
	C331.998871,694.161926 325.297119,692.452271 317.913788,693.316040 
	C318.283173,694.673645 318.546600,695.786743 318.888000,696.875366 
	C331.175201,736.052002 344.149475,775.033569 355.349884,814.518311 
	C358.719330,826.396423 364.510742,832.617554 375.657745,835.533936 
	C382.158173,837.234497 388.284943,840.339600 396.200653,841.399353 
	C390.394592,811.764587 384.755127,782.980103 378.909698,753.369934 
M424.293152,641.331848 
	C425.374146,638.958862 427.058472,637.471680 429.790771,638.252991 
	C432.528442,639.035767 432.265747,641.450928 432.300934,643.616943 
	C432.322540,644.949463 432.346771,646.282898 432.325562,647.615173 
	C432.267242,651.284546 434.038940,652.590454 437.385681,651.215271 
	C445.129333,648.033447 451.144958,642.986633 453.475647,634.621521 
	C456.912903,622.284851 451.826447,610.359985 440.187103,602.999512 
	C426.980286,594.647827 412.672729,592.438232 397.552246,595.898865 
	C386.021179,598.538025 375.366852,602.916931 367.426697,612.353149 
	C357.058716,624.674561 360.233826,641.470154 374.441864,648.615845 
	C380.102173,651.462585 380.947662,650.938232 381.729950,644.588928 
	C382.116547,641.451172 382.513336,637.693359 386.846649,637.968140 
	C390.864685,638.223022 390.228912,641.765259 390.288483,644.552002 
	C390.306305,645.384705 390.300110,646.217957 390.310425,647.050842 
	C390.374481,652.220825 392.820007,655.362976 397.912750,656.756042 
	C401.867859,657.837891 405.828949,657.694824 409.812195,657.687195 
	C421.325775,657.665039 423.211060,655.864441 423.723785,644.615784 
	C423.761566,643.787842 423.918518,642.965271 424.293152,641.331848 
M637.672302,598.833923 
	C622.052917,592.647766 606.491516,592.630005 591.138000,599.611755 
	C582.521545,603.529846 575.757568,609.444885 572.420349,618.665771 
	C567.773621,631.504822 574.577332,646.253479 587.343384,650.916687 
	C591.495239,652.433289 593.244141,651.350159 593.740295,646.993591 
	C593.946533,645.182190 594.164001,643.368591 594.479858,641.574158 
	C594.791809,639.801697 595.692688,638.340088 597.645203,638.243103 
	C599.782288,638.137024 600.827576,639.544373 601.525269,641.459045 
	C602.470276,644.052429 602.171265,646.719482 602.341736,649.362610 
	C602.563049,652.794006 603.830872,655.661377 607.424438,656.530151 
	C614.299683,658.192139 621.260620,658.441650 628.172424,656.712280 
	C632.322876,655.673706 634.793762,653.104553 634.856934,648.570984 
	C634.891602,646.079285 634.991760,643.575195 635.291260,641.104431 
	C635.569641,638.808044 637.113953,637.669250 639.402222,637.507324 
	C641.610535,637.351074 642.829346,638.506897 643.354553,640.514954 
	C643.942017,642.760925 644.556274,645.006042 644.995789,647.283020 
	C645.578979,650.304138 646.951782,651.112671 649.912109,649.825195 
	C664.470886,643.493958 668.812988,626.096802 658.996948,613.548645 
	C653.566772,606.607300 646.286499,602.460510 637.672302,598.833923 
M313.318512,773.309448 
	C316.248840,781.098511 319.379974,788.819214 322.062927,796.692566 
	C326.188873,808.800537 335.997223,815.337708 345.962097,821.789490 
	C346.244293,821.972168 346.818848,821.703186 347.573975,821.602661 
	C346.559967,818.039490 345.667877,814.679932 344.649231,811.359253 
	C332.694153,772.387207 320.730194,733.417786 308.721649,694.462158 
	C308.110748,692.480469 308.026062,690.078979 305.591583,689.096375 
	C295.873383,685.173828 287.078918,679.493469 277.246887,673.894653 
	C289.370819,707.303894 301.214264,739.940125 313.318512,773.309448 
M719.386414,689.979553 
	C718.697388,691.662109 717.880920,693.304688 717.338196,695.033264 
	C706.426880,729.787231 695.433105,764.516113 684.752991,799.341248 
	C682.505737,806.668762 679.594727,813.889282 678.394409,822.592102 
	C689.198914,815.933594 698.984253,809.776001 703.332886,797.983948 
	C707.938599,785.494934 712.711426,773.066772 717.233337,760.547791 
	C727.568848,731.933655 737.795898,703.280334 748.249146,674.135254 
	C738.962219,680.234619 729.430603,684.824097 719.386414,689.979553 
M729.062622,345.252655 
	C727.122620,333.405609 720.253601,326.936462 707.353943,324.807739 
	C698.686462,323.377411 686.263184,329.413788 682.193970,336.862152 
	C680.469482,340.018707 680.317261,342.263397 683.598938,344.807770 
	C692.932007,352.043945 701.655212,359.999878 709.031921,369.287872 
	C711.256714,372.089081 713.606506,371.969757 716.483398,370.587952 
	C724.745300,366.619659 730.258362,356.141144 729.062622,345.252655 
M296.595001,346.067108 
	C295.632812,357.004456 300.333252,365.000702 309.388519,370.752472 
	C312.180237,372.525696 314.303558,372.421753 316.626740,369.562103 
	C324.212067,360.225098 332.974030,352.014191 342.507050,344.716278 
	C345.757019,342.228333 345.531677,340.208527 343.704681,337.233887 
	C338.524719,328.800110 327.525909,323.239319 318.707520,324.762451 
	C305.660126,327.016083 299.242676,333.021667 296.595001,346.067108 
M487.747040,160.276413 
	C485.700531,163.302704 483.459686,166.232315 483.354645,170.135101 
	C483.204529,175.711792 486.691772,178.570419 491.964111,176.781494 
	C499.355835,174.273438 504.790283,169.088760 508.743744,162.599152 
	C511.511963,158.055084 509.056213,154.024857 503.720062,153.331772 
	C497.343414,152.503555 492.468994,155.382675 487.747040,160.276413 
M580.987854,97.791084 
	C571.572754,98.733818 567.191711,106.417725 561.419739,112.407158 
	C567.809875,110.586967 574.070190,108.544060 579.952820,105.715599 
	C582.797119,104.348000 583.958435,101.305717 580.987854,97.791084 
M527.217346,147.226532 
	C526.553833,147.399948 525.785217,147.783371 526.092896,148.484787 
	C527.596191,151.912094 533.142761,153.463867 537.281372,151.360260 
	C534.534302,150.229980 533.829163,147.692184 532.839355,145.698639 
	C530.672302,145.330994 529.429749,146.753220 527.217346,147.226532 
M484.657410,183.814133 
	C484.164459,181.795151 482.906189,180.466858 480.811493,180.726746 
	C479.157104,180.932007 478.443817,182.369720 478.352631,184.022705 
	C478.237000,186.118820 478.471466,188.566055 480.670990,188.981216 
	C483.680450,189.549240 484.353271,186.940063 484.657410,183.814133 
M743.774231,665.095459 
	C745.962952,663.733398 748.151733,662.371338 750.641785,660.821777 
	C744.738647,659.615662 744.738647,659.615662 743.774231,665.095459 
M278.322418,662.501770 
	C279.575958,662.979614 280.482300,664.559326 282.189453,663.804993 
	C280.470825,659.123901 280.470825,659.123901 276.775940,661.182068 
	C277.150238,661.511047 277.516052,661.832520 278.322418,662.501770 
z"/>
<path fill="#000000" opacity="1.000000" stroke="none" 
	d="
M649.241943,147.469849 
	C657.252075,149.008987 662.782471,153.541153 666.022827,160.235367 
	C667.800232,163.907227 669.790405,164.086533 673.019104,163.396149 
	C681.041992,161.680618 688.330688,163.548798 694.429565,168.928238 
	C705.053650,178.299103 704.052795,194.081528 691.894409,203.618546 
	C678.117126,214.425507 662.016418,218.556488 644.680969,218.260422 
	C641.875305,218.212509 639.335083,217.017944 637.783691,214.741272 
	C628.255066,200.757919 620.756409,186.060196 622.721313,168.340500 
	C624.222717,154.800644 635.642639,145.671112 649.241943,147.469849 
M672.353760,173.773926 
	C670.507568,174.511398 668.620605,175.161743 666.823181,176.003403 
	C662.263062,178.138763 660.736267,177.427109 659.580688,172.345505 
	C658.717407,168.548798 657.374268,165.016388 654.571594,162.194168 
	C647.710632,155.285294 637.873108,157.494141 634.826965,166.679138 
	C633.396729,170.991577 633.119080,175.326645 633.842468,179.934219 
	C635.247131,188.881500 639.271484,196.622147 643.672363,204.305954 
	C645.480042,207.462067 648.068970,208.126694 651.272766,207.553314 
	C657.331055,206.469040 663.402527,205.390625 669.224915,203.334930 
	C674.578918,201.444580 679.789917,199.171875 684.142151,195.429367 
	C688.705933,191.504883 690.578186,185.572418 688.910400,181.196533 
	C687.027405,176.255646 682.634521,173.571167 676.139221,173.435120 
	C675.144897,173.414291 674.147400,173.544922 672.353760,173.773926 
z"/>
<path fill="#000000" opacity="1.000000" stroke="none" 
	d="
M432.164551,425.687317 
	C456.177704,439.867950 459.760254,469.832947 444.288971,489.913269 
	C433.781677,503.550781 414.311127,509.074707 396.985474,503.271210 
	C380.044403,497.596527 368.959839,481.988312 368.620636,464.387054 
	C367.965057,430.369232 402.769073,410.624573 432.164551,425.687317 
M409.218109,435.657806 
	C404.006073,441.303223 402.941284,446.633820 405.881470,452.362030 
	C408.366882,457.204254 414.301361,460.255493 420.071381,459.657806 
	C426.203613,459.022644 430.653259,454.833313 432.233551,448.207153 
	C433.264954,443.882477 430.829071,438.060699 426.791504,435.200378 
	C421.187012,431.230103 415.973572,431.223816 409.218109,435.657806 
M390.387634,468.917389 
	C387.510345,467.622650 385.540466,468.607208 384.555664,471.458740 
	C383.890350,473.385101 384.512482,475.148499 386.290741,476.169220 
	C388.400757,477.380432 390.496704,477.090332 392.070862,475.159637 
	C393.950104,472.854736 393.166046,470.894104 390.387634,468.917389 
z"/>
<path fill="#000000" opacity="1.000000" stroke="none" 
	d="
M625.905090,504.198059 
	C608.978821,508.245605 594.585571,504.111450 583.338684,491.591003 
	C571.643127,478.570953 569.475647,463.048248 575.324219,446.797760 
	C581.617126,429.312653 599.750854,419.003418 619.773987,420.677155 
	C637.243164,422.137360 652.658203,436.247894 656.248474,454.064819 
	C660.847839,476.889374 648.907471,496.850677 625.905090,504.198059 
M616.682983,435.754913 
	C608.090515,430.330475 599.629028,431.739838 595.147522,439.341888 
	C591.672424,445.236786 593.192139,452.451965 598.782166,456.598511 
	C604.998047,461.209290 613.065796,460.541382 618.194580,454.991394 
	C623.106445,449.676086 622.732544,442.326080 616.682983,435.754913 
M633.420349,473.928802 
	C634.419006,475.956299 636.002686,477.063873 638.259094,476.423431 
	C640.139038,475.889771 641.645020,474.537689 641.442444,472.473541 
	C641.205139,470.055969 639.475891,468.481476 637.063232,468.493042 
	C634.165405,468.506927 633.088501,470.482056 633.420349,473.928802 
M593.393677,465.972717 
	C593.972412,463.657806 593.423340,461.736542 590.769287,461.836395 
	C588.911926,461.906250 587.838989,463.677765 588.394409,465.493622 
	C589.211792,468.165314 591.049133,468.041016 593.393677,465.972717 
z"/>
<path fill="#000000" opacity="1.000000" stroke="none" 
	d="
M555.680054,496.265747 
	C553.591858,503.764984 548.959351,508.690399 542.210999,511.106812 
	C538.051758,512.596130 537.028259,514.928406 537.269775,518.903931 
	C537.687744,525.783081 537.014587,532.562805 533.773010,538.818176 
	C529.420105,547.218201 522.531067,552.032166 513.009705,551.921082 
	C503.528961,551.810608 496.635498,546.990845 492.419830,538.501343 
	C489.393524,532.407104 488.186157,525.882874 488.722931,519.133362 
	C489.055511,514.951721 487.922699,512.659912 483.586487,511.028290 
	C476.569794,508.388153 471.782196,503.078339 470.130798,495.478638 
	C469.820831,494.052338 469.738464,492.457397 470.038452,491.043701 
	C470.581726,488.483612 471.879303,486.129028 474.864746,486.127563 
	C477.842712,486.126129 478.973846,488.151947 479.411621,491.025818 
	C480.321838,497.000549 483.833344,500.849792 489.688019,502.607635 
	C495.834167,504.452972 501.256256,503.291870 505.739532,498.728455 
	C510.759277,493.618927 510.148041,487.346283 504.403168,483.200775 
	C502.766937,482.020050 501.250336,480.740295 500.211945,478.985626 
	C497.967651,475.193268 499.136230,471.546753 503.419403,470.326904 
	C509.613159,468.562927 516.012634,469.259796 522.218628,470.199615 
	C526.319519,470.820648 527.674683,475.216217 525.542664,478.867035 
	C524.152039,481.248260 521.967224,482.855530 519.676086,484.174896 
	C516.738342,485.866730 516.166016,488.350433 516.477356,491.373718 
	C517.136292,497.774200 523.248169,503.211731 530.265686,503.610992 
	C538.218933,504.063477 545.584106,499.239532 546.510559,492.545654 
	C546.981262,489.144592 547.305481,485.702515 551.625366,486.260559 
	C555.740295,486.792114 556.462280,490.279114 556.156494,493.914215 
	C556.101074,494.573303 555.920105,495.221802 555.680054,496.265747 
M498.388489,526.887695 
	C498.747345,529.731567 499.832001,532.311707 501.136505,534.840698 
	C503.759766,539.926147 508.104218,542.572632 513.595093,542.515320 
	C519.009460,542.458923 522.802002,539.260437 525.233582,534.422241 
	C527.220337,530.469177 527.993164,526.312256 527.987549,521.914062 
	C527.976379,513.065857 526.204041,511.214844 516.915955,510.904968 
	C515.490540,514.699890 516.754028,518.765869 515.974243,522.627014 
	C515.714478,523.913269 515.358521,525.432312 513.843262,525.717773 
	C511.959045,526.072754 511.242828,524.440002 510.748901,523.091431 
	C510.245667,521.717407 510.087341,520.196106 509.923615,518.723145 
	C509.604614,515.852844 510.306122,512.856812 509.260468,510.023956 
	C497.954041,512.865051 497.780731,513.090088 498.186035,524.021484 
	C498.210663,524.685120 498.263702,525.347656 498.388489,526.887695 
z"/>
<path fill="#000000" opacity="1.000000" stroke="none" 
	d="
M654.702698,502.518768 
	C665.883423,496.864838 676.971741,496.292358 688.307983,500.745514 
	C691.963379,502.181427 694.999756,504.463196 697.400818,507.528229 
	C701.700684,513.017334 701.204407,519.787231 696.248413,524.654724 
	C685.284180,535.423096 660.321045,535.591492 649.262939,524.971741 
	C644.288452,520.194458 643.812500,513.153503 648.372864,507.907806 
	C650.093689,505.928314 652.362061,504.424774 654.702698,502.518768 
z"/>
<path fill="#000000" opacity="1.000000" stroke="none" 
	d="
M377.967377,523.694580 
	C365.785950,535.119812 343.809448,536.066833 331.195892,525.999023 
	C323.501343,519.857422 323.437317,511.092804 331.041046,504.808197 
	C342.250427,495.543549 363.687744,495.730652 374.752380,505.189697 
	C380.779114,510.341949 381.925293,516.384033 377.967377,523.694580 
z"/>
<path fill="#000000" opacity="1.000000" stroke="none" 
	d="
M639.211060,391.842529 
	C636.737671,394.129211 622.046082,390.494293 621.107239,387.753357 
	C620.505005,385.995087 621.599487,384.913147 622.877380,384.058716 
	C627.923889,380.684601 638.182739,385.316986 639.211060,391.842529 
z"/>
<path fill="#000000" opacity="1.000000" stroke="none" 
	d="
M388.648224,386.571716 
	C392.659637,384.056244 396.424011,382.081757 401.028046,383.493347 
	C402.561127,383.963470 403.876282,384.653778 403.968719,386.378143 
	C404.065460,388.183868 402.768768,388.928955 401.184113,389.273468 
	C398.079803,389.948273 395.394684,391.591095 392.573181,392.939087 
	C390.792358,393.789764 388.726746,395.916687 386.954254,393.282410 
	C385.367096,390.923553 385.961060,388.549347 388.648224,386.571716 
z"/>
<path fill="#000000" opacity="1.000000" stroke="none" 
	d="
M642.687378,345.309845 
	C645.534180,346.527252 646.753174,348.231506 645.495911,350.970032 
	C644.588318,352.946777 642.902100,353.557251 640.930542,353.051849 
	C638.664368,352.470795 636.746399,350.997650 636.988342,348.564087 
	C637.279602,345.634277 639.890076,345.329041 642.687378,345.309845 
z"/>
<path fill="#000000" opacity="1.000000" stroke="none" 
	d="
M387.164398,347.146790 
	C388.475342,350.055389 386.718140,351.314880 384.791870,352.398621 
	C383.660950,353.034882 382.514893,352.728210 381.643616,351.815552 
	C380.700714,350.827881 380.166443,349.612640 380.461365,348.215454 
	C380.750000,346.848083 381.774414,346.398590 383.051392,346.493103 
	C384.343811,346.588837 385.629578,346.773560 387.164398,347.146790 
z"/>
<path fill="#000000" opacity="1.000000" stroke="none" 
	d="
M602.000122,296.787476 
	C595.321899,295.177338 592.072021,291.236267 592.864441,286.169281 
	C593.606445,281.424347 598.421448,278.058716 603.553040,278.698090 
	C608.015625,279.254120 611.127563,282.548401 611.316833,286.916626 
	C611.554504,292.403534 609.147095,295.062714 602.000122,296.787476 
z"/>
<path fill="#000000" opacity="1.000000" stroke="none" 
	d="
M516.747192,309.856049 
	C515.015259,303.173584 517.470215,298.137512 522.783203,296.780151 
	C527.593872,295.551056 532.428101,298.631805 533.781067,303.788879 
	C535.033020,308.560760 531.955994,313.719635 526.965332,314.893707 
	C522.478210,315.949280 519.225769,314.008331 516.747192,309.856049 
z"/>
<path fill="#000000" opacity="1.000000" stroke="none" 
	d="
M434.597961,243.871552 
	C439.298004,245.506226 441.359802,248.674454 441.219025,253.144531 
	C441.071045,257.844086 437.223236,262.131561 433.048492,262.576630 
	C429.157288,262.991486 424.979126,260.101166 423.925446,256.265533 
	C422.656189,251.645248 425.023956,246.604614 429.340332,244.582306 
	C430.907837,243.847900 432.508514,243.620575 434.597961,243.871552 
z"/>
<path fill="#000000" opacity="1.000000" stroke="none" 
	d="
M484.651093,247.235901 
	C483.685883,243.375366 485.104736,240.693756 487.805878,238.667938 
	C492.073578,235.467194 498.523407,236.284485 501.712036,240.360611 
	C504.359192,243.744476 504.229065,247.155060 501.254242,250.218613 
	C497.618835,253.962448 490.463470,254.001602 486.801239,250.392532 
	C485.991455,249.594498 485.445374,248.528854 484.651093,247.235901 
z"/>
<path fill="#000000" opacity="1.000000" stroke="none" 
	d="
M553.390015,246.662567 
	C549.873291,243.365280 549.516663,239.713593 551.347900,235.936081 
	C552.989929,232.548965 555.862671,230.641708 559.762512,230.719772 
	C563.158386,230.787781 565.548645,232.732086 566.634399,235.678879 
	C568.072388,239.581604 568.173157,243.711700 564.674438,246.725525 
	C561.220764,249.700516 557.394958,249.584290 553.390015,246.662567 
z"/>
<path fill="#000000" opacity="1.000000" stroke="none" 
	d="
M458.149414,314.901428 
	C464.169769,313.508240 468.192108,315.370880 469.806274,319.978729 
	C471.300323,324.243652 469.065613,329.262604 464.811096,331.197510 
	C460.974884,332.942108 456.163330,331.443207 453.961395,327.817474 
	C451.353302,323.523041 452.820404,318.633789 458.149414,314.901428 
z"/>
<path fill="#000000" opacity="1.000000" stroke="none" 
	d="
M515.586365,745.326843 
	C522.756348,738.008179 531.293396,735.340759 540.866516,737.192993 
	C555.795898,740.081360 562.809937,756.435730 555.977173,771.596436 
	C553.329468,777.471191 549.225098,782.299072 544.631775,786.648010 
	C536.745850,794.114502 527.655212,800.011658 518.516296,805.802551 
	C515.486084,807.722717 512.441711,809.037598 508.776764,806.819397 
	C497.066681,799.731995 485.719452,792.172424 476.515656,781.896851 
	C470.446106,775.120422 466.758698,767.418152 467.491425,757.883728 
	C468.648041,742.833496 481.035645,733.677734 495.754395,737.276733 
	C502.589233,738.947998 508.405518,742.188538 512.281921,747.871338 
	C514.128662,747.595520 514.583008,746.386780 515.586365,745.326843 
z"/>
<path fill="#000000" opacity="1.000000" stroke="none" 
	d="
M727.815796,616.205933 
	C728.519226,616.321167 728.857971,616.359070 729.165955,616.477234 
	C734.212158,618.413025 737.192322,622.945068 735.933289,627.197571 
	C734.707397,631.337891 731.860352,633.569336 727.382385,633.353882 
	C723.094055,633.147644 719.965637,629.818420 719.625671,625.116394 
	C719.246826,619.876953 721.309326,617.513550 727.815796,616.205933 
z"/>
<path fill="#000000" opacity="1.000000" stroke="none" 
	d="
M701.425781,592.684204 
	C699.307129,590.611328 696.629517,588.996826 698.590149,585.838684 
	C700.444153,582.852234 703.268982,582.499207 706.433350,583.523499 
	C709.762390,584.601074 712.008057,586.728149 711.870728,590.321838 
	C711.685303,595.176270 707.046631,596.302551 701.425781,592.684204 
z"/>
<path fill="#000000" opacity="1.000000" stroke="none" 
	d="
M306.203857,622.386597 
	C306.265442,623.457031 306.337891,624.124695 306.268616,624.777283 
	C305.706726,630.066589 302.898621,633.085449 298.364868,633.313782 
	C294.198914,633.523499 290.563507,630.861938 289.974884,627.171143 
	C289.273773,622.775208 292.180878,618.125366 296.532684,616.681946 
	C300.764191,615.278442 303.578156,616.827820 306.203857,622.386597 
z"/>
<path fill="#000000" opacity="1.000000" stroke="none" 
	d="
M320.004700,583.758179 
	C323.122375,583.324097 326.101227,582.169800 327.664581,585.766052 
	C328.811890,588.405273 327.411804,590.305664 325.479950,591.736267 
	C322.763672,593.747803 320.109619,596.603455 316.219269,594.471130 
	C314.547668,593.554932 313.595703,591.851562 313.844604,589.881836 
	C314.269958,586.515747 316.538269,584.752747 320.004700,583.758179 
z"/>
</svg>