<svg version="1.1" id="Layer_1" xmlns="http://www.w3.org/2000/svg" xmlns:xlink="http://www.w3.org/1999/xlink" x="0px" y="0px"
	 width="100%" viewBox="0 0 1024 1024" enable-background="new 0 0 1024 1024" xml:space="preserve">
<path fill="#000000" opacity="1.000000" stroke="none" 
	d="
M673.601868,838.564819 
	C647.396606,869.851868 595.457947,871.199219 569.657410,841.549561 
	C567.014221,838.512085 564.723206,835.221191 562.907959,831.666931 
	C561.558838,829.025208 559.813416,828.285034 556.928040,828.515686 
	C533.181702,830.413635 509.415558,831.146118 485.613098,829.470154 
	C480.316132,829.097168 474.976776,829.494324 469.694305,828.615845 
	C467.530212,828.255981 466.184357,829.078857 464.998627,831.244812 
	C454.659912,850.130859 438.149780,859.777222 417.193604,862.321045 
	C397.232330,864.744080 379.273590,859.580383 363.319763,847.388794 
	C344.088806,832.692932 334.635315,804.488464 341.313934,781.140808 
	C342.230835,777.935669 341.877014,775.610596 340.009583,772.870483 
	C327.735168,754.859741 321.366974,734.883057 319.490936,713.158203 
	C316.376312,677.090576 322.344116,642.584106 335.784821,609.178772 
	C337.954407,603.786560 336.997986,597.977539 337.954285,592.433899 
	C339.547211,583.199768 342.664368,574.449707 347.383301,565.865295 
	C344.553040,564.141418 341.943756,562.431213 339.225952,560.915466 
	C312.552887,546.039429 292.700012,524.980469 281.238037,496.481934 
	C273.991272,478.463867 271.428833,459.664032 272.396576,440.265198 
	C274.013702,407.848083 284.927948,378.537201 301.496948,351.032928 
	C302.010345,350.180664 302.463165,349.288605 302.888824,348.388855 
	C303.020447,348.110657 302.968231,347.745453 303.006409,347.356293 
	C302.220520,345.725128 300.471680,345.309723 299.044495,344.585815 
	C266.410339,328.033356 254.158997,287.487061 272.597443,252.483032 
	C290.028351,219.391769 330.888275,204.880280 364.194824,214.691040 
	C384.937469,220.801010 400.162170,233.733978 408.998474,253.750839 
	C411.751099,259.986389 411.761383,259.988251 418.431274,257.737457 
	C431.065796,253.473862 443.949280,250.150513 457.056915,247.739075 
	C459.817261,247.231247 461.504089,245.916473 462.673706,243.440994 
	C470.856018,226.123398 479.074036,208.822495 487.362854,191.555725 
	C488.302979,189.597351 488.316589,187.856812 487.758392,185.824722 
	C487.012360,183.108810 485.998566,180.205704 486.974121,177.471695 
	C488.635071,172.816864 486.701477,169.905502 483.156067,167.290619 
	C478.538635,163.885132 475.720703,159.397537 477.293549,153.516006 
	C478.878235,147.590347 483.439972,144.115814 489.258759,143.628128 
	C495.312958,143.120697 498.673218,140.632965 500.941895,135.004654 
	C503.037872,129.804871 507.392426,126.646454 513.461670,126.653099 
	C520.150940,126.660423 524.733948,130.316635 526.982178,136.006409 
	C528.970886,141.039413 531.817322,143.264206 537.095520,143.637772 
	C543.213379,144.070724 547.951782,147.099045 549.656372,153.344208 
	C551.346191,159.535233 548.205627,164.027191 543.519409,167.484680 
	C540.178162,169.949844 538.700378,172.575897 540.101440,176.812759 
	C540.746765,178.764160 540.876831,181.383209 540.097656,183.212814 
	C537.969421,188.210388 540.149048,192.113342 542.187378,196.352982 
	C549.475342,211.511841 556.655823,226.723801 563.700378,241.997147 
	C565.328735,245.527618 567.494995,247.157883 571.471069,247.844620 
	C584.606873,250.113297 597.408691,253.862732 610.016235,258.163544 
	C613.971741,259.512878 616.198242,259.382874 617.975586,254.961807 
	C634.331726,214.276642 685.523132,198.649780 726.858459,223.529373 
	C750.258240,237.613632 762.829407,258.542450 763.082703,285.744324 
	C763.323364,311.593414 751.697510,331.428864 728.923279,344.310577 
	C727.484314,345.124481 726.055908,345.956909 724.601501,346.792816 
	C724.428650,350.070465 726.657959,352.155792 728.064514,354.466003 
	C743.209473,379.340118 753.017639,406.241028 755.003784,435.209991 
	C758.503174,486.250946 739.957520,527.336121 696.561707,556.013306 
	C692.259827,558.856079 687.770203,561.447266 683.205750,563.847168 
	C680.645691,565.193237 680.358948,566.652771 681.618225,569.003845 
	C687.389587,579.778809 689.999329,591.354004 690.337097,603.519836 
	C690.377075,604.961121 690.909973,606.451965 691.483459,607.805847 
	C704.881348,639.439819 711.001465,672.426514 709.094299,706.717041 
	C707.770935,730.510254 701.787720,753.043762 687.938660,772.905090 
	C685.921326,775.798218 685.775696,778.269043 686.681152,781.627747 
	C692.365112,802.711182 686.768311,821.362915 673.601868,838.564819 
M504.770477,555.637512 
	C507.724182,557.778870 510.542572,561.383484 513.667603,561.672424 
	C517.173279,561.996643 519.564270,557.326111 522.960938,555.560486 
	C524.137390,554.948975 525.159302,554.045776 526.318787,553.395081 
	C551.989258,538.989807 585.683960,542.437744 603.082214,569.837341 
	C604.558289,572.161865 606.109863,572.298157 608.470215,571.927002 
	C633.991882,567.912781 658.519165,560.739685 681.185486,548.167725 
	C703.982605,535.523315 721.495789,517.776550 731.812073,493.461060 
	C743.953979,464.842804 743.576538,435.538361 734.878601,406.445709 
	C718.477234,351.586304 683.385254,311.740631 633.558777,284.477631 
	C615.785583,274.752808 596.838501,267.964691 576.960388,263.900787 
	C574.834412,263.466156 572.006958,262.044037 571.162964,265.512329 
	C568.118835,278.022675 558.614197,283.310852 547.589417,286.902649 
	C527.280396,293.519196 506.636139,294.112549 486.079010,288.783875 
	C472.234833,285.195312 458.450897,280.635193 455.698792,263.299927 
	C454.623871,263.299927 453.800140,263.224091 452.996246,263.318054 
	C451.842987,263.452820 450.693481,263.664917 449.560669,263.923889 
	C391.569702,277.181854 345.968689,308.365875 314.194061,358.789856 
	C294.963135,389.307861 283.868500,422.390381 287.281219,459.124908 
	C290.480103,493.557068 306.662628,520.601746 334.678894,540.545471 
	C360.261353,558.756714 389.659119,566.937744 420.093872,572.243835 
	C422.709625,572.699951 423.687836,571.300415 424.799469,569.566101 
	C428.424805,563.910034 432.591766,558.717651 438.281616,554.999023 
	C460.278595,540.622742 482.244110,542.524841 504.770477,555.637512 
M577.625793,679.027222 
	C575.000244,677.585693 572.151306,676.434082 569.807068,674.627502 
	C567.044556,672.498474 565.229980,672.802368 562.503235,674.959595 
	C550.537720,684.426147 537.379639,691.835510 522.872986,696.762329 
	C516.642456,698.878296 510.536041,698.828918 504.283600,696.746460 
	C489.861969,691.942993 477.246002,683.908020 465.163605,674.974670 
	C462.326599,672.877075 460.365265,672.528320 457.318542,674.593933 
	C446.686646,681.802002 434.636169,685.363159 421.954712,685.137817 
	C389.664886,684.564148 364.877197,670.343628 348.002594,642.650940 
	C346.423370,640.059265 344.908936,637.428040 342.982544,634.169250 
	C341.935883,636.854370 341.148712,638.512695 340.632935,640.251404 
	C333.294128,664.993835 331.119293,690.238892 334.253693,715.808350 
	C339.877869,761.688782 366.319397,790.037598 409.538269,803.912109 
	C435.623627,812.286133 462.663086,814.561523 489.766388,815.525391 
	C517.716064,816.519348 545.676392,816.055481 573.539124,812.755127 
	C591.111084,810.673767 608.489197,807.811829 625.105164,801.625977 
	C659.205200,788.931274 682.538391,766.108643 691.047058,729.874329 
	C695.666077,710.204468 695.448059,690.276794 693.145752,670.351990 
	C691.699463,657.835449 689.479126,645.442322 684.865112,632.958557 
	C683.934082,634.703491 683.224915,635.947205 682.593506,637.229187 
	C676.916443,648.755615 669.412109,658.952087 659.065613,666.593201 
	C634.439880,684.779724 607.792603,691.311707 577.625793,679.027222 
M526.997498,679.481323 
	C536.615601,675.167603 545.678772,669.958679 553.862122,663.245850 
	C555.874329,661.595215 556.431213,660.108154 555.206604,657.724487 
	C553.144531,653.710876 552.032166,649.394714 551.198242,644.935364 
	C546.734741,621.067932 565.627563,597.519592 590.049500,596.687317 
	C595.768188,596.492432 596.442444,595.696777 595.534119,590.215332 
	C592.727417,573.279114 576.950378,559.748474 559.824036,559.293030 
	C543.902771,558.869568 531.158936,565.422791 520.316040,576.525635 
	C515.325256,581.635925 512.139954,581.640686 507.308411,576.566284 
	C502.665680,571.690247 497.343567,567.746948 491.409973,564.597656 
	C466.581299,551.419678 438.252747,563.270264 431.894501,589.498169 
	C430.392670,595.693237 430.995575,596.223083 437.212708,596.727051 
	C452.735413,597.985291 464.827362,605.045715 472.267883,618.961365 
	C478.754333,631.092712 478.427063,643.665222 472.974701,656.030762 
	C471.292084,659.846863 471.833588,661.914490 475.157928,664.256409 
	C483.481354,670.119873 492.060333,675.437683 501.194366,680.009521 
	C509.830963,684.332153 517.971069,684.819702 526.997498,679.481323 
M366.432709,283.908630 
	C369.038391,281.965546 372.147003,280.626251 374.080139,277.995850 
	C367.370483,265.081573 353.832947,258.948029 339.324554,262.441437 
	C327.642334,265.254333 319.169769,272.110535 316.106567,284.075287 
	C313.378387,294.731323 315.574707,304.408905 323.353241,312.688690 
	C326.710480,316.262299 329.051422,315.949280 332.296936,312.557190 
	C342.449097,301.946594 353.686981,292.571198 366.432709,283.908630 
M660.747253,268.202667 
	C659.010620,269.984436 657.223694,271.720398 655.548523,273.558167 
	C652.620850,276.769928 653.133118,279.048309 657.009949,281.370270 
	C661.985901,284.350525 666.594360,287.955383 671.295288,291.381500 
	C681.380371,298.731781 690.389465,307.317719 698.936523,316.184418 
	C713.466553,308.499908 716.697876,285.943329 705.491882,272.977051 
	C694.287354,260.012390 677.089661,257.977570 660.747253,268.202667 
M533.052795,223.516327 
	C537.788269,218.477280 536.775146,212.979965 529.400452,204.626160 
	C527.841797,205.780670 526.210754,206.894516 524.683167,208.135696 
	C514.828186,216.142456 504.529175,223.583786 492.525848,227.902344 
	C486.191528,230.181320 481.954926,233.606186 480.030792,240.032303 
	C479.416107,242.085159 478.233887,243.961777 477.408600,245.959213 
	C475.663239,250.183456 473.981873,254.434158 472.215393,258.820221 
	C481.830078,260.026184 517.899902,238.904755 533.052795,223.516327 
M491.821411,275.651581 
	C496.858490,276.246765 502.014465,279.212128 506.930298,276.732758 
	C521.426208,269.421570 534.788086,260.398132 546.072327,248.570404 
	C547.301880,247.281662 549.085938,245.931183 548.470459,243.904297 
	C546.850647,238.569458 544.586609,233.510468 541.122620,228.269745 
	C522.942566,248.382751 500.039764,259.550476 474.870056,268.663544 
	C480.446381,272.806366 485.855530,273.865417 491.821411,275.651581 
M502.165802,154.254395 
	C498.460052,154.419418 494.687073,154.261398 491.043549,156.323380 
	C494.225098,160.194534 498.692810,162.473877 500.777649,166.716003 
	C502.976013,171.189133 498.479370,175.584000 499.900665,180.286774 
	C502.067352,180.887695 503.856537,180.033844 505.143646,178.892120 
	C511.006134,173.692108 516.664001,174.038467 522.543274,178.844452 
	C523.698181,179.788467 525.256287,180.939438 527.206177,179.718369 
	C528.916992,175.286530 524.236328,171.085602 526.354614,166.726486 
	C528.402588,162.512299 533.157898,160.584915 535.855774,156.745911 
	C533.445312,154.993713 530.785461,154.592361 528.448059,154.645355 
	C522.077148,154.789795 519.224365,151.274719 517.437622,145.840317 
	C516.755859,143.766830 516.144287,141.270432 513.173035,140.434509 
	C510.603180,142.714005 510.013916,146.140289 508.633392,149.071838 
	C507.423889,151.640167 506.001678,153.693161 502.165802,154.254395 
M493.975922,217.103088 
	C505.513855,211.367111 516.229431,204.470123 526.258240,195.151077 
	C523.107361,193.635574 520.766357,192.783249 518.726746,191.464752 
	C515.631958,189.464142 512.787476,187.977997 509.428162,191.000961 
	C506.856079,193.315475 502.346069,192.832947 500.615509,196.163483 
	C497.331451,202.483948 494.469727,209.026154 491.512085,215.512512 
	C490.605804,217.500061 491.674042,217.869476 493.975922,217.103088 
M538.575256,268.146942 
	C534.659546,270.842834 530.743896,273.538727 525.894531,276.877441 
	C535.975159,276.327148 544.346985,273.903992 551.811401,269.037598 
	C557.660217,265.224518 557.752747,261.393250 552.788818,256.118011 
	C548.242004,259.976746 543.690125,263.839722 538.575256,268.146942 
M610.299988,592.600708 
	C610.464844,598.630737 612.434631,600.089966 621.558899,600.819397 
	C623.321289,596.859619 623.917908,592.667297 623.577759,588.326904 
	C623.392334,585.961060 622.620056,583.972534 619.678284,584.391174 
	C616.451721,584.850342 613.249390,585.480286 609.878784,586.063110 
	C610.032715,588.208374 610.161133,589.998352 610.299988,592.600708 
M417.580688,588.695801 
	C414.755280,582.868164 409.195679,585.793640 404.867065,583.849548 
	C403.939331,588.944397 403.813263,593.188782 404.328491,597.473450 
	C404.696655,600.535400 405.764252,601.463989 409.224945,600.767395 
	C415.778656,599.448181 417.513000,595.264343 417.580688,588.695801 
z"/>
<path fill="#000000" opacity="1.000000" stroke="none" 
	d="
M797.610107,470.518799 
	C810.354736,467.103394 817.383667,458.920593 819.901611,446.534912 
	C820.685425,442.679535 822.479980,439.487671 826.950806,439.348419 
	C831.345764,439.211609 833.447021,442.110687 834.609253,445.932220 
	C834.754211,446.408844 835.040649,446.852020 835.128845,447.334930 
	C837.407288,459.806580 845.151794,467.115753 856.986023,470.649658 
	C859.207825,471.313110 861.447021,472.134521 862.975708,474.057770 
	C866.022888,477.891510 864.640564,484.051331 859.730835,485.399475 
	C845.512634,489.303589 836.810913,498.097382 833.651367,512.490662 
	C832.913757,515.850647 830.562622,517.506958 827.123474,517.536865 
	C823.663696,517.566956 821.537170,515.775208 820.457764,512.577332 
	C820.085449,511.474365 819.554810,510.414307 819.282959,509.289551 
	C816.412231,497.412079 809.192322,489.752838 797.360107,486.491394 
	C793.196350,485.343628 789.860352,483.145905 789.911133,478.353699 
	C789.959839,473.751251 793.409790,471.897614 797.610107,470.518799 
M830.330383,488.814331 
	C833.257874,484.024445 837.965637,481.296783 843.945190,478.309479 
	C835.477722,475.297089 830.907349,469.781647 827.283386,461.894470 
	C823.722839,470.153564 818.513794,475.175385 810.635315,478.558380 
	C818.613159,481.796875 823.532104,486.753479 826.849487,494.062775 
	C828.312439,491.848969 829.124023,490.620880 830.330383,488.814331 
z"/>
<path fill="#000000" opacity="1.000000" stroke="none" 
	d="
M233.123413,472.874634 
	C238.074020,478.683960 237.365997,483.926178 230.684921,485.822174 
	C217.072784,489.685028 209.276489,498.289795 206.289566,511.839905 
	C205.494141,515.448364 203.079880,517.680725 199.202133,517.671936 
	C195.510666,517.663635 193.483414,515.434631 192.466537,512.076782 
	C192.177872,511.123596 191.715378,510.217834 191.481277,509.254181 
	C188.531967,497.114197 180.928146,489.628021 168.886307,486.527130 
	C164.892166,485.498596 161.794846,483.589783 161.702438,478.865173 
	C161.610062,474.142181 164.684875,472.207275 168.567169,470.880493 
	C170.293518,470.290497 171.902023,469.347260 173.636917,468.792114 
	C182.905472,465.826202 188.089752,459.208954 190.604904,450.117188 
	C191.135757,448.198242 191.808563,446.316010 192.474136,444.437439 
	C193.596161,441.270691 195.838379,439.577515 199.226700,439.521545 
	C202.740570,439.463470 204.737991,441.484497 205.868179,444.555725 
	C207.130051,447.984833 208.315720,451.441925 209.540207,454.884827 
	C211.723221,461.022827 215.744614,465.346680 221.867447,467.778442 
	C225.571411,469.249512 229.150681,471.034576 233.123413,472.874634 
M192.985199,471.467773 
	C190.690613,474.686981 186.436569,475.658234 183.696259,479.167206 
	C190.505264,482.360962 195.489288,486.996674 199.079315,494.352142 
	C202.812256,486.901642 207.921280,482.382843 215.016159,478.756714 
	C207.589630,474.936127 202.816238,469.853912 199.119339,463.019867 
	C196.878448,466.137634 195.161957,468.525757 192.985199,471.467773 
z"/>
<path fill="#000000" opacity="1.000000" stroke="none" 
	d="
M233.723785,558.278198 
	C230.906158,557.150574 228.378616,556.282043 225.990051,555.126221 
	C222.811722,553.588257 221.492874,550.901123 221.664780,547.371887 
	C221.824692,544.089172 223.529968,541.914490 226.568924,541.237427 
	C236.401520,539.046875 241.981598,532.787292 244.589569,523.346558 
	C245.625061,519.598083 248.133148,517.369080 252.231934,517.456848 
	C256.357391,517.545105 258.651062,519.949829 259.551697,523.730103 
	C261.667969,532.612732 267.039764,538.236755 275.812042,540.849670 
	C279.634491,541.988220 282.191650,544.750122 282.071503,548.915771 
	C281.948975,553.162292 279.016205,555.575134 275.167023,556.395752 
	C266.288147,558.288452 261.460785,563.866943 259.458862,572.432617 
	C258.530151,576.406433 256.695343,579.595093 251.847610,579.584473 
	C246.959045,579.573792 245.448959,576.036133 244.147690,572.339478 
	C242.157684,566.686279 240.736145,560.667664 233.723785,558.278198 
M258.892914,546.270691 
	C255.867279,544.571716 254.084854,541.524048 251.550217,538.823303 
	C249.162964,542.865417 245.730545,545.228455 242.486526,548.242310 
	C246.512009,550.708984 248.995773,554.255615 252.138824,557.280579 
	C254.808212,554.351196 256.679138,551.151428 259.946167,549.244446 
	C261.674835,548.235413 260.171021,547.378967 258.892914,546.270691 
z"/>
<path fill="#000000" opacity="1.000000" stroke="none" 
	d="
M397.453400,465.912537 
	C380.368164,462.076294 365.890564,454.820099 356.810577,439.611969 
	C345.547180,420.746796 349.738922,397.570496 367.365112,381.791901 
	C383.272797,367.551605 401.760529,360.696198 423.351807,363.631714 
	C445.833862,366.688354 463.098999,388.534790 461.689423,411.185791 
	C460.860260,424.510498 458.063293,436.949524 449.586151,447.453033 
	C437.586517,462.320984 421.886200,468.640228 402.843964,466.495087 
	C401.190308,466.308838 399.531189,466.171265 397.453400,465.912537 
M414.565765,408.043640 
	C414.977417,408.326141 415.365082,408.654480 415.804321,408.884338 
	C423.635590,412.982788 433.386627,409.810272 436.456818,402.175262 
	C439.823578,393.802734 435.817780,384.808960 427.401367,381.843994 
	C419.081696,378.913177 411.145599,383.576385 408.966034,392.802856 
	C407.568237,398.720154 409.733063,403.541199 414.565765,408.043640 
M398.946442,443.780365 
	C402.751404,445.835449 406.058105,445.118713 408.550415,441.678192 
	C410.542755,438.927948 410.205139,436.056824 408.009979,433.478638 
	C405.008942,429.953918 401.028839,429.439423 397.969177,432.123840 
	C394.456635,435.205597 394.573181,438.914642 398.946442,443.780365 
M436.141632,412.655365 
	C434.015778,414.698395 433.598846,416.846893 435.806061,419.098511 
	C437.610626,420.939362 439.580902,420.857025 441.615112,419.483032 
	C443.500336,418.209686 444.397430,416.360107 443.273956,414.376709 
	C441.860229,411.880890 439.719177,410.405884 436.141632,412.655365 
z"/>
<path fill="#000000" opacity="1.000000" stroke="none" 
	d="
M634.394409,366.390625 
	C647.071289,370.615936 657.408325,377.516724 665.652100,387.613190 
	C681.462219,406.976318 680.812622,431.895905 662.844727,449.318726 
	C647.290283,464.401276 628.076416,470.051239 606.786499,465.677399 
	C585.320801,461.267456 569.715332,442.756897 566.641296,420.521210 
	C565.288269,410.734436 565.750916,401.289276 569.202393,392.083160 
	C576.583984,372.394348 597.772583,360.898956 618.933228,363.085663 
	C624.052734,363.614655 629.148376,364.446899 634.394409,366.390625 
M615.402100,405.837891 
	C622.538879,395.735229 618.113831,382.852844 606.966797,381.280579 
	C599.758850,380.263916 593.667908,383.793243 591.045105,390.506409 
	C588.535156,396.930664 590.462280,403.983307 595.810242,407.944794 
	C601.672058,412.286926 608.538940,411.724335 615.402100,405.837891 
M617.963501,440.470367 
	C619.604370,443.697876 621.999084,445.903290 625.836060,445.006866 
	C628.912415,444.288116 631.140381,442.276611 631.728638,438.978027 
	C632.318848,435.668701 630.945984,433.160431 628.187988,431.394379 
	C626.226990,430.138733 624.116028,429.893311 622.102173,431.200195 
	C619.016663,433.202484 616.834290,435.748657 617.963501,440.470367 
M583.431641,414.934418 
	C583.235413,418.907288 585.176331,420.847015 589.060791,420.216431 
	C590.829041,419.929382 592.331360,418.582550 592.539917,416.519318 
	C592.745911,414.481049 591.654358,413.080780 589.926208,412.181946 
	C587.153870,410.740051 585.264709,412.089294 583.431641,414.934418 
z"/>
<path fill="#000000" opacity="1.000000" stroke="none" 
	d="
M540.837646,491.430908 
	C533.891724,511.256775 516.068970,515.030334 503.135956,509.782288 
	C490.645996,504.713898 486.189606,493.906372 485.155670,481.507782 
	C484.667328,475.651764 484.881744,470.325165 479.169434,466.257812 
	C476.031738,464.023682 475.051880,459.533020 476.644928,455.265228 
	C477.342285,453.397095 478.382629,451.981049 480.485596,451.880585 
	C482.502777,451.784241 483.232849,453.326965 484.009857,454.880859 
	C488.395355,463.651215 501.245636,464.968140 507.388245,457.251038 
	C509.610687,454.458923 510.476410,451.799744 506.304535,449.660217 
	C503.528168,448.236359 501.348145,445.928833 502.033447,442.476562 
	C502.672333,439.258270 505.509186,438.341949 508.308502,437.497528 
	C512.611694,436.199524 516.833008,436.461121 521.064880,437.754822 
	C523.776184,438.583710 525.965820,439.947510 526.369568,443.033264 
	C526.742859,445.886200 525.141357,447.756561 522.975220,449.239044 
	C521.621094,450.165802 520.193420,450.985229 518.847961,451.822205 
	C520.478271,457.915436 524.005432,461.214661 529.310486,461.749847 
	C536.743591,462.499725 541.029724,460.535217 543.784668,454.868439 
	C544.764587,452.852814 545.994141,451.460052 548.333313,451.847168 
	C550.596680,452.221832 551.700317,453.948059 552.063904,456.036804 
	C552.922485,460.968323 550.953552,465.085297 547.213684,467.901764 
	C543.867126,470.422089 542.852722,473.305542 542.882751,477.272369 
	C542.917786,481.914032 542.432556,486.576019 540.837646,491.430908 
M498.321838,482.109589 
	C498.781830,484.206940 498.987885,486.401001 499.743439,488.385834 
	C504.365540,500.528900 517.580322,503.367950 525.362000,493.870636 
	C528.506165,490.033264 529.594727,485.400238 529.988037,480.468323 
	C530.357056,475.841736 529.393921,472.933716 524.074646,472.348083 
	C520.463318,471.950500 508.572479,472.314240 504.907043,472.500458 
	C498.707336,472.815369 497.435913,476.012177 498.321838,482.109589 
z"/>
<path fill="#000000" opacity="1.000000" stroke="none" 
	d="
M336.798981,489.410889 
	C324.595947,481.350647 325.111176,469.970001 338.078156,464.057526 
	C350.502411,458.392548 363.068848,459.270538 374.967834,466.027374 
	C379.646362,468.684082 382.873291,472.673096 382.645599,478.546204 
	C382.418915,484.393585 378.479309,487.575562 373.808960,489.621765 
	C361.653168,494.947479 349.347961,495.282318 336.798981,489.410889 
z"/>
<path fill="#000000" opacity="1.000000" stroke="none" 
	d="
M646.476929,484.152313 
	C643.386292,477.179565 644.637146,471.928619 650.162842,467.437744 
	C660.891724,458.718109 681.725464,458.138306 692.875061,466.249084 
	C701.204773,472.308533 701.404175,481.018707 693.309265,487.482178 
	C689.433960,490.576447 684.841064,492.261261 680.033508,492.811096 
	C667.940430,494.194214 655.988159,494.508087 646.476929,484.152313 
z"/>
</svg>