<svg version="1.1" id="Layer_1" xmlns="http://www.w3.org/2000/svg" xmlns:xlink="http://www.w3.org/1999/xlink" x="0px" y="0px"
	 width="100%" viewBox="0 0 1024 1024" enable-background="new 0 0 1024 1024" xml:space="preserve">
<path fill="#000000" opacity="1.000000" stroke="none" 
	d="
M797.258850,715.061523 
	C787.070862,730.807922 772.440796,737.540833 754.483826,738.108459 
	C744.014526,738.439453 733.603149,739.965515 723.073425,739.253357 
	C717.934143,738.905823 712.885193,737.948181 707.402588,737.226990 
	C707.566345,739.532898 708.907043,740.776001 709.869080,742.177063 
	C721.871094,759.655518 732.749268,777.766724 740.917297,797.398132 
	C743.102600,802.650391 744.754211,808.100586 745.190369,813.770447 
	C746.225647,827.230408 740.300049,837.229614 729.212585,844.395508 
	C724.003174,847.762390 718.332458,850.592590 712.317505,851.697083 
	C701.536499,853.676575 692.645325,858.744080 683.922241,865.140991 
	C669.413574,875.780579 652.318420,879.542847 634.717468,881.326904 
	C619.428589,882.876648 604.179077,882.596375 588.966370,880.450989 
	C586.982544,880.171265 585.406494,881.054199 583.790894,881.913269 
	C563.470215,892.718323 541.512634,896.659668 518.797668,897.325256 
	C494.745758,898.030029 471.073639,895.625183 449.176178,885.039368 
	C441.138214,881.153687 433.590881,881.129333 425.222321,881.670288 
	C397.332642,883.473267 369.933746,881.811401 344.922150,867.255737 
	C344.634369,867.088257 344.285675,866.992188 344.050873,866.771729 
	C334.277740,857.597107 322.265350,853.156799 309.465729,850.358032 
	C308.662933,850.182434 307.915405,849.758728 307.138397,849.460205 
	C282.991852,840.181396 275.357513,822.943848 284.817078,798.924500 
	C292.673737,778.975159 303.388641,760.589661 315.579498,743.020874 
	C316.794769,741.269470 318.019562,739.524658 319.770874,737.016296 
	C308.970886,738.380981 298.962494,740.247253 288.889069,739.229309 
	C276.538788,737.981201 263.913818,739.051270 251.944031,734.403625 
	C234.562271,727.654724 223.634064,713.010742 223.655991,695.858215 
	C223.676819,679.567444 232.633606,667.986084 248.393585,663.880859 
	C249.187103,663.674133 249.993530,663.517029 251.129929,663.261169 
	C250.481583,660.376953 248.139465,659.198059 246.317108,657.717651 
	C236.239944,649.531738 225.815125,641.796875 217.411026,631.691772 
	C194.846512,604.560364 191.094391,574.367981 202.576355,541.755798 
	C209.768280,521.328674 222.792542,504.699432 238.275864,489.982849 
	C258.586090,470.678497 272.118805,447.752899 277.047668,420.018768 
	C279.000580,409.030060 279.916168,397.925018 280.101685,386.765686 
	C280.941193,336.265900 298.177948,292.303192 333.401520,255.967972 
	C357.729828,230.871872 387.115997,213.559494 420.378296,202.828430 
	C423.122620,201.943069 426.810608,201.814957 426.614166,197.645737 
	C426.380890,192.695480 430.658966,187.236664 423.738251,183.007660 
	C416.485596,178.575836 413.665771,167.765564 416.301056,159.290909 
	C418.950989,150.769073 426.668518,144.963440 435.746887,144.662476 
	C454.348999,144.045776 463.320923,157.528275 457.094452,177.098358 
	C461.098907,180.316910 465.812469,182.259918 470.657928,184.018463 
	C472.727020,184.769394 474.212921,183.760025 475.802155,182.928558 
	C484.957947,178.138306 491.228424,170.429062 497.056305,161.842560 
	C496.159668,160.357971 495.238739,158.814331 494.299835,157.281693 
	C488.361694,147.588379 489.924255,137.149429 498.407593,129.868393 
	C506.222900,123.160736 519.714233,123.052094 527.575317,129.633560 
	C536.041138,136.721329 538.323425,148.391754 532.251465,157.493195 
	C529.700806,161.316483 530.051819,163.634979 532.745728,166.892303 
	C537.545349,172.695663 542.352356,178.380081 548.945984,182.283554 
	C552.023438,184.105423 554.971558,184.868988 558.232239,182.764084 
	C559.479187,181.959167 560.939697,181.486771 562.298340,180.852921 
	C569.093018,177.682907 569.092529,177.681717 567.572205,170.436493 
	C565.264648,159.439545 570.380249,149.609573 580.402405,145.782654 
	C590.442810,141.948761 602.641113,145.939911 607.626770,154.690094 
	C613.203979,164.478607 610.982544,176.652557 601.936218,183.302353 
	C598.507935,185.822403 597.785522,188.696823 598.660645,192.343292 
	C599.677124,196.578842 598.862000,201.207703 605.224182,203.135666 
	C632.974304,211.544891 657.992737,225.158554 679.961609,244.248505 
	C707.133118,267.859344 726.477417,296.544220 737.319336,330.991150 
	C743.942932,352.035461 745.469971,373.643585 746.479797,395.494019 
	C747.818054,424.451904 754.682434,451.891327 773.906494,474.699707 
	C781.729858,483.981689 790.751953,492.245056 798.737976,501.399872 
	C814.466858,519.430664 825.726440,539.681091 828.640198,563.949341 
	C832.142883,593.122375 822.991638,617.733765 802.373596,638.318604 
	C795.053833,645.626587 786.843384,651.915161 778.898560,658.506592 
	C777.414856,659.737549 775.571716,660.734314 775.039551,662.855347 
	C801.029114,672.856873 809.204651,691.854675 797.258850,715.061523 
M332.265594,279.736847 
	C304.610931,314.635773 293.565460,354.705811 294.926147,399.470459 
	C299.977448,397.290192 304.601685,395.485596 309.060181,393.337006 
	C329.317841,383.574585 346.136780,369.275055 361.652954,353.266235 
	C364.408752,350.422913 367.729462,346.314148 371.664795,349.795105 
	C375.624084,353.297241 371.748230,357.126587 369.479401,360.278320 
	C360.901093,372.194916 349.785309,381.449127 337.957916,389.928589 
	C326.770020,397.949524 314.591949,404.143219 301.090454,409.351654 
	C311.916840,410.283752 321.781799,409.219940 331.673309,407.740479 
	C364.940613,402.764648 394.530212,389.674255 420.304077,368.048828 
	C427.191986,362.269531 433.900269,356.276489 440.766174,350.470459 
	C442.284241,349.186737 444.176758,347.946106 446.133331,349.708221 
	C447.962616,351.355835 447.353302,353.354828 446.342041,355.192657 
	C444.413422,358.697571 442.184265,361.989441 439.748688,365.185242 
	C435.521149,370.732239 430.266876,375.309753 425.384338,380.427795 
	C427.895721,381.785675 430.249603,381.707733 432.565643,381.677185 
	C440.873749,381.567596 449.157990,381.635498 457.475220,380.775543 
	C486.205750,377.804932 514.030945,371.701080 539.531128,357.584869 
	C561.808167,345.252899 580.271851,329.221710 588.616333,304.025818 
	C589.345154,301.825012 590.525085,299.943420 593.048889,299.935059 
	C595.956421,299.925446 596.896240,302.224670 597.419739,304.588715 
	C598.968994,311.584778 600.874023,318.485657 603.381104,325.188965 
	C620.159973,370.051422 650.610474,399.295746 698.684998,408.241760 
	C706.780273,409.748169 714.950684,410.570007 724.500366,409.683197 
	C722.748413,408.822662 722.205811,408.521423 721.637207,408.281952 
	C706.047424,401.716644 691.359070,393.575012 678.367798,382.676849 
	C669.426819,375.176453 660.811951,367.276154 654.815735,357.042389 
	C653.398010,354.622650 652.686768,351.787323 655.041138,349.696564 
	C657.545532,347.472565 660.038269,349.099701 662.189148,350.837463 
	C663.220520,351.670715 664.139465,352.652954 665.052490,353.621307 
	C677.914185,367.261200 691.826782,379.627686 708.374817,388.680328 
	C715.621216,392.644379 722.855408,396.733093 731.462036,399.268555 
	C732.531006,354.058167 720.991943,313.466187 692.663574,278.469971 
	C668.799683,248.988998 638.124023,229.319641 602.001831,217.161942 
	C601.048401,220.197083 601.236572,222.526932 601.470520,224.807983 
	C602.255249,232.460342 601.939209,240.129532 601.819275,247.786301 
	C601.716675,254.338257 599.916931,256.373474 593.717163,257.926788 
	C572.299500,263.292755 550.413147,264.973846 528.467529,266.015900 
	C509.329346,266.924622 490.207764,266.373993 471.158936,264.249969 
	C458.114349,262.795441 445.061859,261.296326 432.287903,258.121063 
	C425.790619,256.505981 425.030975,255.059708 424.551514,248.483353 
	C423.814789,238.377960 424.233459,228.276733 424.498535,218.146179 
	C402.559357,219.681000 356.585266,250.372742 332.265594,279.736847 
M659.596863,861.069763 
	C668.463806,857.854675 676.541321,853.283569 683.535400,846.920837 
	C687.302124,843.494080 691.310547,841.044983 696.608093,840.280823 
	C705.870300,838.944824 714.851074,836.435242 722.711853,830.935547 
	C729.151245,826.430298 731.724304,820.404602 729.985168,812.822021 
	C726.353088,796.986816 718.167908,783.206299 710.026794,769.446045 
	C704.989746,760.932129 699.688538,752.563171 692.689636,744.873169 
	C687.499451,757.634644 678.152710,764.366150 665.483704,767.541504 
	C651.402039,771.070862 637.408875,770.429382 623.459412,767.674622 
	C590.439636,761.153748 562.004456,745.443726 536.803345,723.504578 
	C528.031860,715.868408 520.315369,707.210083 513.034180,697.888794 
	C511.934601,699.084839 511.082306,699.878418 510.384766,700.790344 
	C496.321106,719.177063 478.939270,733.827332 459.041962,745.413757 
	C431.686768,761.343201 402.777985,772.177673 370.362854,769.274292 
	C354.087555,767.816589 340.203583,762.084839 333.529694,745.473022 
	C333.452545,745.281006 332.981964,745.247009 332.572205,745.093079 
	C327.076782,751.579712 322.566559,758.778625 318.169220,766.039001 
	C309.796417,779.863342 301.408356,793.704102 296.847748,809.394409 
	C293.747406,820.060791 296.008118,825.919861 305.189453,831.935730 
	C312.744415,836.885986 321.326721,838.983032 330.015045,840.555420 
	C334.109314,841.296387 337.606506,842.669617 340.655548,845.508667 
	C344.561890,849.145996 348.788666,852.373352 353.461639,855.029114 
	C365.698242,861.983643 378.884186,865.673035 392.851318,866.774292 
	C408.136841,867.979431 423.412354,868.930298 438.495758,864.963684 
	C441.154297,864.264526 443.332306,865.426453 445.509491,866.791809 
	C452.465210,871.154053 459.948944,874.329468 467.798859,876.731567 
	C484.728790,881.912109 502.112671,883.291748 519.658386,882.619263 
	C541.009827,881.800842 561.679993,878.003967 580.336243,866.720642 
	C582.666199,865.311401 585.040527,864.353882 587.897339,864.943298 
	C611.859070,869.886780 635.518494,868.603638 659.596863,861.069763 
M559.756226,359.311371 
	C534.578430,376.795319 506.255432,385.811829 476.252167,390.254517 
	C456.862976,393.125488 437.459229,393.281708 418.062256,390.260803 
	C415.326874,389.834808 412.784760,388.907104 409.945862,390.776489 
	C393.983185,401.287933 376.847809,409.310394 358.319183,414.191681 
	C355.781860,414.860107 354.365875,416.020203 354.055939,418.856323 
	C353.478760,424.138031 352.503754,429.376373 351.689697,434.632080 
	C349.203674,450.681793 348.464752,466.822052 352.027740,482.720245 
	C358.205566,510.285889 376.329041,528.402954 400.519409,541.061951 
	C430.204254,556.596252 462.507355,561.940002 495.449280,563.492859 
	C516.533936,564.486816 537.705505,564.220276 558.682312,560.742310 
	C581.079163,557.028931 603.151855,552.319946 623.647766,542.005798 
	C658.895264,524.268372 678.214539,496.662292 676.553650,456.273010 
	C676.185974,447.332733 674.199829,438.459656 673.820312,429.519043 
	C673.351501,418.474609 669.284241,412.042145 658.239929,407.134369 
	C627.648315,393.540283 608.620300,368.346008 595.511169,338.265106 
	C594.142395,335.124359 592.759644,331.989685 591.046875,328.084900 
	C582.094727,340.454956 572.300842,350.787506 559.756226,359.311371 
M320.664886,488.830170 
	C311.593781,479.430756 306.856750,468.269379 306.622864,455.141754 
	C306.388611,441.994049 309.925262,430.286224 319.963593,420.437897 
	C310.299377,420.084869 301.474579,421.058807 293.178406,418.705597 
	C291.830994,420.498444 291.586853,421.957611 291.301758,423.436096 
	C285.748291,452.233948 272.950775,477.102783 251.485168,497.369965 
	C240.167511,508.055725 230.185577,519.905518 222.643906,533.591431 
	C213.224503,550.684753 208.700760,568.824158 212.283630,588.389221 
	C215.439758,605.624023 224.601669,619.390930 237.162521,631.256531 
	C246.255081,639.845825 257.079376,646.368530 265.658875,655.549866 
	C271.271393,661.556091 276.509491,667.750977 278.709686,675.942078 
	C281.630920,686.817627 277.359894,696.657288 268.175995,700.032593 
	C261.891266,702.342346 254.204498,698.743591 252.878769,692.754578 
	C252.367813,690.446289 252.233658,687.993103 254.590210,686.441650 
	C256.850800,684.953430 258.669891,686.108093 260.381104,687.665161 
	C261.094269,688.314026 261.772339,689.165771 262.951630,688.900696 
	C266.801575,683.401001 264.312439,678.158691 257.486969,677.391785 
	C245.173615,676.008118 235.419174,688.336426 238.906052,701.177246 
	C242.242767,713.465149 251.253723,720.029907 263.021210,722.513428 
	C276.467743,725.351379 287.511383,720.129700 295.107788,709.102661 
	C305.719757,693.698059 304.823700,677.473572 296.268677,661.393127 
	C291.301788,652.057190 284.430328,644.088501 277.414520,636.265381 
	C255.556793,611.892395 251.135345,584.572876 263.003326,554.191589 
	C269.781036,536.841064 280.819916,522.286072 292.044434,507.787323 
	C293.851593,505.452942 296.088348,503.152710 299.164459,504.687683 
	C302.600006,506.402039 301.556641,509.889465 300.803864,512.710876 
	C299.667633,516.969543 296.743958,520.320557 294.285583,523.869751 
	C286.027252,535.792664 277.723999,547.671021 272.993591,561.595581 
	C270.026764,570.328918 268.024536,579.237976 268.528381,588.484802 
	C269.402405,604.525269 276.716705,617.724243 287.162628,629.482422 
	C295.132660,638.453613 302.954651,647.539368 308.278625,658.455872 
	C314.950409,672.135925 316.931793,686.210388 312.489380,701.023254 
	C309.747894,710.164490 304.555634,717.710266 297.265137,725.106323 
	C310.105347,724.540283 321.415405,721.949402 332.033813,716.440979 
	C333.816986,715.515991 334.608276,713.959290 335.280334,712.214111 
	C339.162933,702.132751 345.129242,693.326294 352.195007,685.263916 
	C354.104309,683.085388 354.800934,680.867065 354.920074,678.068542 
	C355.318207,668.715210 352.365051,660.321106 347.717865,652.465515 
	C343.988953,646.162231 339.834137,640.112549 335.966034,633.889648 
	C320.720551,609.362671 320.380829,584.109009 332.121735,558.153442 
	C337.461731,546.348267 345.269257,536.171021 352.672058,525.711243 
	C353.912231,523.958923 354.829498,522.556335 353.168579,520.444214 
	C348.820740,514.915466 345.559448,508.719238 342.726196,502.304352 
	C341.778900,500.159546 340.438202,498.762909 337.988464,498.441650 
	C331.237427,497.556305 325.908264,493.976196 320.664886,488.830170 
M725.752319,513.343994 
	C724.950806,510.316864 723.259766,506.763641 726.909119,504.826782 
	C730.706177,502.811401 732.484619,506.604462 734.457886,508.865845 
	C742.470764,518.048279 749.631348,527.872009 755.678467,538.456116 
	C763.463867,552.082581 768.372009,566.690491 769.270081,582.418579 
	C770.495056,603.871643 761.802795,621.544617 747.840027,637.141174 
	C739.612427,646.331543 731.540283,655.663879 726.973022,667.394226 
	C722.300964,679.393311 721.562744,691.393555 727.379944,703.228271 
	C739.626038,728.141907 768.163635,729.252014 783.223450,709.570129 
	C788.861694,702.201477 789.763855,694.037048 784.901123,685.738770 
	C781.139587,679.319641 773.015930,675.784302 765.994995,677.411865 
	C763.319519,678.032043 761.653259,679.588745 761.088562,682.407288 
	C760.634644,684.672791 760.641174,686.880554 762.318970,688.476318 
	C764.715820,690.755859 766.091736,687.855103 767.844482,686.993408 
	C770.770569,685.554626 772.390808,686.960510 772.996033,689.636841 
	C773.828003,693.316101 772.060242,696.127441 769.230347,698.262268 
	C763.003296,702.959900 755.395569,701.554688 750.421509,694.877319 
	C745.075134,687.700073 745.300659,676.843750 750.802307,667.537964 
	C756.348999,658.155823 764.517944,651.359802 772.767395,644.567932 
	C782.652100,636.429810 792.969116,628.747681 800.555908,618.148071 
	C811.483826,602.880249 816.339539,585.945679 814.169312,567.305176 
	C811.090393,540.858826 797.125305,520.063904 778.883728,501.732544 
	C766.502441,489.290253 754.593445,476.560822 746.950867,460.457001 
	C741.487000,448.944000 737.823608,436.890625 735.471191,424.399841 
	C734.906311,421.400421 734.468079,418.323120 729.972046,419.300049 
	C721.860291,421.062653 713.591003,420.170502 705.162231,420.260254 
	C715.809753,430.259003 720.885742,444.503479 719.157532,459.994354 
	C717.238586,477.195496 705.539429,495.757050 687.408691,498.475952 
	C685.026611,498.833160 684.240356,500.632812 683.431213,502.494751 
	C681.032593,508.014984 678.214355,513.370300 674.538452,518.084290 
	C671.697754,521.727173 672.417236,524.307312 674.836792,527.666260 
	C679.699829,534.417297 684.568665,541.220459 688.732178,548.409180 
	C705.809509,577.895325 707.838013,607.354736 688.165771,636.752075 
	C681.977539,645.999573 675.586121,655.214172 672.329407,666.099548 
	C669.889343,674.255310 669.043152,681.636475 676.255005,688.520508 
	C682.392151,694.378723 686.683411,701.971802 689.602234,710.022705 
	C691.239685,714.539307 694.191284,716.940186 698.416809,718.664795 
	C708.147156,722.636108 718.175171,724.936401 728.995605,724.865540 
	C727.594971,722.852783 725.651306,721.521790 724.144897,719.806641 
	C708.351501,701.824646 706.959229,677.133484 719.876526,654.225098 
	C726.503601,642.472290 736.084900,633.134583 744.251343,622.644226 
	C752.822144,611.634644 757.514832,599.134338 757.326782,585.205627 
	C757.117249,569.686279 751.801147,555.495117 743.954590,542.307922 
	C738.256653,532.731873 731.994873,523.491394 725.752319,513.343994 
M654.818665,686.675659 
	C632.831970,668.722778 608.067871,659.263245 579.424805,663.408020 
	C558.044556,666.501709 537.792358,672.958313 520.417786,686.839478 
	C521.436584,688.417847 522.002319,689.434082 522.697998,690.351746 
	C546.689209,721.996155 578.284302,742.555969 616.123596,753.621826 
	C630.086853,757.705383 644.452393,759.351196 659.069519,756.762512 
	C676.759888,753.629517 684.033813,743.098145 679.924072,725.684326 
	C676.228149,710.024170 667.182861,697.670593 654.818665,686.675659 
M403.004608,755.511780 
	C428.326538,749.432312 451.048370,737.933533 471.715881,722.274841 
	C483.162781,713.602051 493.648193,703.918640 502.107086,692.172913 
	C504.710022,688.558533 504.997894,686.166931 500.766449,683.371826 
	C481.390900,670.573853 459.904755,663.854431 437.022125,662.589966 
	C415.565979,661.404358 395.886963,668.365356 378.515594,680.784546 
	C362.729218,692.070557 350.542358,706.468445 345.784760,725.876526 
	C341.867401,741.856934 347.783997,751.537354 363.599640,755.929138 
	C376.481995,759.506226 389.324768,757.793579 403.004608,755.511780 
M467.363007,196.446991 
	C460.404541,194.955505 454.303467,191.612671 448.385742,187.807632 
	C444.172455,185.098541 441.644653,186.259628 441.262726,190.990524 
	C439.925171,207.558777 438.186646,224.101959 438.888916,240.780777 
	C439.015198,243.780502 439.606262,245.146561 442.790283,245.802933 
	C460.764587,249.508255 478.910767,251.436646 497.244995,251.725021 
	C525.889465,252.175583 554.460999,251.773239 582.712219,246.001617 
	C586.825684,245.161255 587.671997,243.428375 587.739136,239.693665 
	C587.903992,230.521820 587.282898,221.400864 586.569275,212.281982 
	C586.050049,205.647644 585.362915,199.021851 584.556824,192.415894 
	C583.813171,186.321564 581.555542,185.257263 576.284546,188.190643 
	C572.942078,190.050766 569.574585,191.866180 566.210388,193.686981 
	C556.552063,198.914398 547.408264,197.695450 538.472290,191.734589 
	C530.280273,186.269974 524.075745,178.931549 518.404541,171.078720 
	C514.706909,165.958725 511.704529,165.789627 508.051788,170.783035 
	C503.815918,176.573608 499.470642,182.374557 493.788788,186.756180 
	C486.317810,192.517532 478.766205,198.663895 467.363007,196.446991 
M608.279114,564.319153 
	C607.424133,564.716064 606.261780,564.781067 606.282166,566.276672 
	C614.354370,571.895752 621.421021,578.664673 627.281189,586.639954 
	C641.966553,606.625671 645.601868,635.011230 622.929993,652.575256 
	C636.088745,656.745483 647.718201,663.315063 659.317444,671.250977 
	C661.416992,656.197754 668.746155,644.178223 676.784912,632.509583 
	C687.641968,616.750244 692.434204,599.698364 688.714294,580.536011 
	C685.080139,561.815796 674.627808,546.818970 663.341431,531.565979 
	C647.706421,547.367737 628.927185,556.787415 608.279114,564.319153 
M353.971069,639.605347 
	C360.166534,648.928955 364.792480,658.945190 366.951569,670.807983 
	C378.440216,662.658630 390.162109,656.669312 403.786072,652.561157 
	C397.293335,647.588745 392.186951,642.637512 389.683411,635.665710 
	C383.369781,618.083801 387.825989,602.286743 397.965179,587.593262 
	C403.845032,579.072266 411.562073,572.258972 420.406311,565.633911 
	C398.901520,557.687927 379.054443,548.154358 362.437622,531.969482 
	C353.523865,544.706482 344.699066,556.544312 339.827209,570.748901 
	C334.800201,585.405762 334.274048,600.100708 339.779510,614.736694 
	C343.087372,623.530579 348.363678,631.259644 353.971069,639.605347 
M521.979126,616.627563 
	C519.413391,622.531860 520.468262,627.195374 525.359192,631.251587 
	C528.470581,633.831970 532.070374,635.585266 535.815002,637.006470 
	C555.336975,644.415771 575.442139,648.180664 596.397949,646.666077 
	C611.939575,645.542847 621.617920,637.601135 624.323792,623.632996 
	C626.107971,614.422913 622.245850,608.374084 613.216858,605.980042 
	C609.447083,604.980469 605.639160,605.089661 601.817505,605.077209 
	C592.934753,605.048279 584.393005,607.361816 575.710754,608.767456 
	C563.826538,610.691467 551.714844,613.724854 541.224731,604.168579 
	C539.849060,602.915283 537.323792,601.322937 535.508118,603.799622 
	C531.894531,608.728699 526.523193,611.699219 521.979126,616.627563 
M460.406342,610.355347 
	C456.033295,610.599915 451.806061,609.768616 447.564789,608.805664 
	C437.179535,606.447632 426.805847,604.160706 415.985657,605.234924 
	C407.326447,606.094543 403.331299,608.737244 402.125122,615.235168 
	C399.339661,630.241089 408.360199,643.166260 423.730804,645.677307 
	C441.115265,648.517395 458.232147,646.589966 475.042786,641.748413 
	C483.186035,639.403076 491.482452,637.267395 498.683167,632.529358 
	C506.512085,627.377930 507.088348,619.771851 500.300232,613.450928 
	C497.133911,610.502625 493.683044,607.808411 490.847046,604.573120 
	C488.593506,602.002258 486.372925,602.163391 484.423859,604.019653 
	C477.805084,610.323364 470.009399,611.787048 460.406342,610.355347 
M525.664673,645.999817 
	C520.835327,644.071716 516.728577,640.975769 512.570496,637.558350 
	C500.823578,648.285400 485.811462,651.270142 470.452881,656.079102 
	C485.594727,660.961914 499.250519,666.850403 511.472961,675.628357 
	C513.099182,676.796326 514.190125,675.960510 515.438293,675.000488 
	C522.492981,669.573730 530.436096,665.759033 538.611938,662.391479 
	C543.849976,660.234070 549.122986,658.161621 555.000549,655.802124 
	C544.776306,653.006165 535.407227,650.131653 525.664673,645.999817 
M422.869568,582.370544 
	C418.941833,585.912659 414.787689,589.260132 411.436676,594.388184 
	C416.730896,594.113525 420.849915,593.745239 424.969879,593.733826 
	C428.417725,593.724365 431.515564,593.808838 432.915497,589.612427 
	C433.535522,587.753906 435.388824,586.415527 437.711823,586.801514 
	C439.812561,587.150635 441.029022,588.849609 441.141693,590.623596 
	C441.434052,595.226929 444.543396,596.102539 448.138000,596.683350 
	C450.762268,597.107422 453.429688,597.427063 455.973328,598.157349 
	C463.346893,600.274353 470.245331,600.639282 476.341156,594.716736 
	C477.926208,593.176819 480.401672,592.516663 482.523651,591.577759 
	C484.153656,590.856567 485.610352,589.929993 485.498413,588.009766 
	C485.285645,584.359436 486.578644,581.007996 487.757111,577.160278 
	C476.401520,576.083679 465.180511,576.209595 454.802002,573.010742 
	C443.126465,569.412170 434.543579,573.957947 425.876587,580.208740 
	C425.067535,580.792236 424.266479,581.386719 422.869568,582.370544 
M594.767212,576.739014 
	C589.337646,574.167664 584.617737,569.659729 577.714722,571.395203 
	C568.998108,573.586548 560.093018,574.678772 551.155212,575.699219 
	C546.885742,576.186646 542.201050,575.360352 538.205750,577.887695 
	C543.305054,589.590759 543.715637,589.725891 552.609131,596.402466 
	C556.590820,599.391541 560.452576,600.340088 565.132751,599.024780 
	C567.689514,598.306213 570.316833,597.759583 572.948669,597.405090 
	C577.513977,596.790283 580.797302,595.346130 582.231934,590.139832 
	C583.499695,585.539185 588.450317,584.637207 590.436035,588.424377 
	C593.152588,593.605591 597.149963,593.988464 602.004272,593.716797 
	C605.790588,593.504944 609.609924,593.485535 614.128418,594.965027 
	C609.482666,586.348328 602.400330,581.773804 594.767212,576.739014 
M328.542694,475.906433 
	C330.721802,478.309570 332.727203,480.944275 336.785583,482.227814 
	C333.986267,464.059784 334.685669,446.518188 337.995422,428.659790 
	C332.949982,429.007721 330.063080,430.921051 327.690674,433.906769 
	C318.880463,444.994446 319.033997,461.543427 328.542694,475.906433 
M690.379700,469.808044 
	C690.118896,473.748718 689.858093,477.689392 689.594360,481.674591 
	C697.809265,480.105072 705.742493,462.369080 704.637207,451.333435 
	C703.404846,439.028687 697.398071,430.450989 688.819824,429.283539 
	C687.958862,430.901581 688.679565,432.493530 688.847839,434.121765 
	C690.041931,445.679199 692.506592,457.182831 690.379700,469.808044 
M500.911224,582.445496 
	C496.647705,586.480408 496.199524,588.990784 498.948303,593.750671 
	C501.912750,598.884094 506.266479,602.714233 510.849152,606.318237 
	C511.929657,607.167969 513.078369,607.867798 514.413330,606.752441 
	C519.369446,602.611572 524.706055,598.823120 527.472473,592.652649 
	C529.189697,588.822266 528.484863,585.469788 525.201294,582.899048 
	C521.823547,580.254456 518.581299,581.196960 515.897705,584.057678 
	C513.531067,586.580566 511.657104,586.424133 509.258362,584.032104 
	C507.219086,581.998596 504.636047,580.724548 500.911224,582.445496 
M523.016541,148.473282 
	C524.136658,142.492172 520.994995,137.979416 514.749390,136.598129 
	C510.034943,135.555481 504.657074,138.771133 503.415619,143.375031 
	C502.091370,148.286133 505.205017,153.171326 510.640808,154.711029 
	C515.338196,156.041580 519.227844,154.250809 523.016541,148.473282 
M435.966156,174.563095 
	C444.332947,174.523819 449.286743,169.065323 446.776917,162.650940 
	C445.110016,158.390869 441.028870,155.902115 436.502625,156.385452 
	C431.462616,156.923630 427.696991,160.223068 427.439423,164.819382 
	C427.137543,170.205429 430.526825,172.908325 435.966156,174.563095 
M592.248108,157.052841 
	C587.417114,155.425766 583.345886,156.386520 580.650513,160.896683 
	C578.363708,164.723267 578.624634,168.544617 581.819519,171.823257 
	C584.973999,175.060333 590.094543,175.517761 594.249146,173.260666 
	C600.273865,169.987534 600.234070,160.314713 592.248108,157.052841 
z"/>
<path fill="#000000" opacity="1.000000" stroke="none" 
	d="
M405.688599,449.982056 
	C402.543091,438.769226 403.798218,428.481018 409.723114,418.937714 
	C419.793304,402.717438 440.079773,401.524109 452.073303,416.332550 
	C462.229340,428.872253 461.104858,452.408539 449.801971,463.874603 
	C437.050140,476.810455 416.334808,473.128662 408.093903,456.421570 
	C407.142944,454.493683 406.523407,452.402313 405.688599,449.982056 
M422.258667,427.558746 
	C423.237976,433.849792 426.358948,436.780670 431.958893,436.668091 
	C436.575897,436.575287 441.461121,432.427612 442.213562,427.961639 
	C442.884308,423.980804 439.272888,419.364258 434.264404,417.800079 
	C429.081818,416.181549 424.034302,419.965851 422.258667,427.558746 
M440.622070,441.122070 
	C441.911743,443.028137 443.585175,443.360291 445.077789,441.635223 
	C446.317017,440.202972 445.447357,438.693665 443.979156,437.992157 
	C441.586823,436.849213 440.716156,438.328888 440.622070,441.122070 
z"/>
<path fill="#000000" opacity="1.000000" stroke="none" 
	d="
M579.048462,410.950134 
	C590.939575,402.884583 605.252258,405.060638 614.042297,416.001312 
	C624.362549,428.846619 624.055298,450.746796 613.386230,462.759583 
	C602.703918,474.787231 585.313904,474.764465 574.849304,462.595459 
	C563.160461,449.002869 563.832581,422.978973 579.048462,410.950134 
M599.979797,434.576477 
	C604.123291,430.117920 604.762878,426.239105 602.026245,422.164886 
	C599.620300,418.583008 594.522766,416.660217 590.750549,417.911743 
	C585.135864,419.774536 582.296875,424.996155 584.244812,429.877258 
	C586.722412,436.085114 592.894531,438.186737 599.979797,434.576477 
M582.179321,438.274353 
	C580.254211,438.368896 578.843262,439.064941 579.718323,441.262848 
	C580.290039,442.698883 581.701599,442.990387 582.981201,442.138611 
	C584.821655,440.913483 584.789856,439.583710 582.179321,438.274353 
z"/>
<path fill="#000000" opacity="1.000000" stroke="none" 
	d="
M519.827515,510.278625 
	C503.210114,513.955261 488.357147,503.195190 486.683258,486.674744 
	C486.212250,482.026276 486.249420,477.375549 486.689941,472.734772 
	C487.110626,468.302887 489.971741,466.066833 494.476471,466.268005 
	C506.605774,466.809540 518.733643,466.989624 530.864868,466.158905 
	C535.102844,465.868652 538.231934,467.997864 538.755127,472.162354 
	C539.819092,480.632050 539.826721,489.095367 535.818298,497.046692 
	C532.480286,503.668121 527.174927,507.877197 519.827515,510.278625 
M499.801880,479.083923 
	C496.993622,488.907623 504.240387,498.005188 511.460785,498.830627 
	C519.509460,499.750702 526.141663,493.090881 526.646973,483.422668 
	C526.816162,480.186615 526.002319,478.526093 522.364136,478.532623 
	C515.057434,478.545746 507.749329,478.098816 499.801880,479.083923 
z"/>
<path fill="#000000" opacity="1.000000" stroke="none" 
	d="
M376.095306,488.172546 
	C370.888611,485.476440 367.360168,482.077667 367.672699,476.018097 
	C367.976410,470.128143 371.933167,467.130951 376.679138,465.199585 
	C387.101135,460.958496 397.425262,460.986481 407.080780,467.430267 
	C415.612366,473.123962 415.341553,482.991699 406.261078,487.906952 
	C396.557709,493.159393 386.446838,492.471771 376.095306,488.172546 
z"/>
<path fill="#000000" opacity="1.000000" stroke="none" 
	d="
M617.471069,486.604706 
	C610.999207,480.303680 611.287476,473.434753 617.932434,468.110809 
	C626.796448,461.008911 642.853943,460.468475 652.071106,466.961945 
	C660.315002,472.769714 660.229126,482.190063 651.408875,487.080566 
	C640.322327,493.227631 628.939270,493.342407 617.471069,486.604706 
z"/>
<path fill="#000000" opacity="1.000000" stroke="none" 
	d="
M497.982483,230.005432 
	C494.110077,226.229507 490.553772,222.544373 490.326111,217.164841 
	C490.139038,212.744675 491.000732,208.522797 495.197754,205.809601 
	C499.641113,202.937180 504.059631,203.502762 508.422729,205.833786 
	C510.006500,206.679916 511.383728,207.912659 513.089417,209.137146 
	C515.211853,207.298035 517.279968,205.392151 520.021790,204.486923 
	C524.527771,202.999222 530.078430,204.295471 532.838684,207.618652 
	C535.757019,211.132141 536.371765,217.903259 533.918762,222.277954 
	C529.575745,230.023209 522.531311,235.230728 515.877502,240.721069 
	C513.817444,242.420929 511.108063,241.814606 509.000214,239.928818 
	C505.404602,236.711884 501.818878,233.483902 497.982483,230.005432 
z"/>
</svg>