<svg version="1.1" id="Layer_1" xmlns="http://www.w3.org/2000/svg" xmlns:xlink="http://www.w3.org/1999/xlink" x="0px" y="0px"
	 width="100%" viewBox="0 0 1024 544" enable-background="new 0 0 1024 544" xml:space="preserve">
<path fill="#000000" opacity="1.000000" stroke="none" 
	d="
M619.359436,317.191223 
	C624.942993,311.323120 631.409485,309.604828 638.738586,311.971619 
	C647.245239,314.718658 652.530701,320.760345 654.132935,329.446564 
	C656.244568,340.893890 653.523254,350.927826 643.866455,358.337250 
	C642.809631,359.148163 641.488342,359.823700 641.544495,361.369507 
	C641.823425,369.044342 636.493774,371.111053 630.494141,372.544800 
	C629.082397,372.882141 627.674744,373.236969 625.704529,373.721771 
	C628.088013,376.981934 630.240845,379.880035 632.345642,382.812622 
	C653.588135,412.411133 666.025818,445.387146 670.042603,481.549927 
	C670.556274,486.174469 670.493652,490.864594 670.659729,495.525696 
	C670.785339,499.050995 668.232727,500.338409 665.560364,501.519562 
	C646.916077,509.760071 627.611023,515.990723 607.692261,520.262512 
	C582.251404,525.718567 556.547607,528.656372 530.498901,529.609314 
	C489.982697,531.091553 450.021057,527.785400 410.586792,518.408142 
	C394.199036,514.511230 378.338196,508.982544 362.754089,502.573700 
	C357.614655,500.460144 355.271454,497.696228 355.541870,491.803955 
	C356.844666,463.416107 364.070557,436.662872 376.657532,411.266907 
	C382.747986,398.978455 390.094666,387.499084 398.544312,376.709259 
	C399.132843,375.957703 399.535736,375.060791 400.389404,373.613739 
	C397.921478,373.095184 395.842102,372.784149 393.837128,372.212189 
	C388.857239,370.791412 384.905304,368.213715 384.701965,362.424988 
	C384.608673,359.769470 382.706268,358.776428 381.102051,357.391571 
	C371.745117,349.314240 368.648773,335.182434 373.808502,324.128601 
	C380.836975,309.071350 397.118469,306.968811 409.339600,319.879120 
	C410.899719,316.732391 411.287415,313.409851 411.562775,310.221466 
	C413.805664,284.249268 411.636230,258.278503 411.305389,232.306885 
	C410.944122,203.945450 410.733948,175.621155 421.787537,148.708496 
	C430.523285,127.439270 445.273773,111.748177 466.018280,101.878960 
	C469.702942,100.125977 471.008514,98.433075 469.734924,94.347855 
	C467.606689,87.521210 466.036194,80.521515 464.191040,73.605301 
	C463.643555,71.553268 463.467346,69.559669 465.323273,68.121674 
	C467.451965,66.472420 469.401428,67.545921 471.249695,68.853470 
	C478.292206,73.835533 485.335327,78.816727 493.006561,84.242691 
	C496.717285,77.690254 500.116699,71.687515 503.704102,65.352837 
	C499.732178,63.301773 499.330139,60.190914 500.706238,56.752518 
	C502.193054,53.037525 500.220184,50.873280 497.700378,48.669548 
	C495.849915,47.051243 493.659607,45.294682 494.798889,42.341717 
	C495.833008,39.661434 498.404907,39.736248 500.728485,39.585087 
	C504.399445,39.346279 506.921600,37.813751 508.150665,34.088177 
	C508.924286,31.743208 510.174957,29.188452 513.234375,29.314558 
	C515.970459,29.427334 517.159180,31.765951 517.867554,33.990025 
	C518.978943,37.479309 521.233643,38.984974 524.775513,39.374584 
	C527.300720,39.652367 530.440125,39.443451 531.368896,42.780579 
	C532.209778,45.801640 529.706055,47.290260 527.940674,48.935112 
	C525.981628,50.760342 524.760681,52.673538 525.264221,55.490982 
	C525.864746,58.851528 527.231384,62.365196 523.721313,65.166107 
	C523.370789,65.445847 523.551636,66.818306 523.892822,67.470749 
	C526.723633,72.883369 529.650208,78.245880 532.884766,84.248871 
	C539.476746,79.659943 545.350220,75.351952 551.463074,71.415764 
	C554.191284,69.658997 556.738831,65.526901 560.541321,68.077583 
	C564.389038,70.658585 561.438232,74.580132 560.805237,77.745941 
	C559.599792,83.774864 557.879517,89.706238 556.230530,95.638519 
	C555.533081,98.147751 556.119873,99.585487 558.561523,100.772652 
	C593.905762,117.957779 609.159912,148.053482 613.400024,185.517365 
	C616.452087,212.483932 614.187561,239.432144 614.127380,266.390717 
	C614.092041,282.200653 613.107178,298.037628 615.289246,313.791107 
	C615.560059,315.746765 616.088684,317.666687 616.499207,319.609467 
	C618.249756,319.682678 618.201721,318.002411 619.359436,317.191223 
M448.468628,517.821167 
	C469.227142,521.264404 490.199646,522.335999 511.168091,522.473022 
	C533.982056,522.622070 556.738892,521.036621 579.358704,517.699402 
	C606.328552,513.720337 632.546936,507.120422 657.789917,496.688049 
	C661.908997,494.985779 663.164551,492.719086 662.865906,488.425232 
	C661.385498,467.142090 656.556824,446.688721 648.445496,426.973145 
	C647.319397,424.236023 645.976318,423.230133 642.786011,423.895355 
	C632.425964,426.055511 621.819885,426.231628 611.426819,424.957703 
	C570.947144,419.996063 540.892639,398.902374 519.884888,364.366333 
	C517.506775,360.456726 515.493103,356.325470 513.066528,351.846741 
	C512.085815,353.679810 511.345917,354.952026 510.707062,356.273102 
	C489.173706,400.801361 440.426270,433.431885 382.679138,423.812317 
	C379.746521,423.323792 378.766266,424.649994 377.865997,426.804779 
	C369.778931,446.160553 365.210388,466.339050 363.214935,487.199615 
	C362.664886,492.950012 364.987122,495.392670 370.011383,497.394318 
	C395.052917,507.370972 420.874115,514.220154 448.468628,517.821167 
M541.204041,169.296570 
	C554.964294,178.088867 570.291138,182.460159 586.254639,184.585129 
	C591.387085,185.268356 593.767700,187.441025 594.164490,192.277435 
	C595.895386,213.373169 592.804810,233.177628 578.654724,250.016876 
	C577.940918,250.866379 576.845703,251.560944 577.039673,253.267365 
	C577.950195,253.629684 578.971985,254.122437 580.044250,254.450180 
	C601.655273,261.055969 610.440491,286.899139 596.118530,303.780182 
	C594.643127,305.519165 594.489502,307.226471 595.173523,309.313141 
	C601.329590,328.093262 611.041016,343.744232 630.773926,350.993591 
	C638.274963,353.749268 641.621094,352.639374 645.147217,345.304840 
	C650.574402,334.015869 645.700928,321.193604 635.113098,318.904755 
	C627.663391,317.294281 621.316711,323.679382 623.572083,330.571259 
	C624.279236,332.732239 625.576965,334.439301 628.101318,334.650757 
	C630.420044,334.844971 631.910522,333.758118 632.635498,331.577850 
	C633.485474,329.021729 635.057678,327.259827 637.815613,328.677032 
	C640.522339,330.067932 640.460815,332.575134 639.394104,335.188721 
	C636.287903,342.799530 626.761475,344.664642 619.641602,338.962219 
	C611.637085,332.551270 608.909851,323.525574 607.717712,313.917938 
	C604.501587,287.997040 606.643005,262.001038 607.255249,236.060089 
	C607.716187,216.528702 607.571045,197.095215 604.600098,177.791229 
	C601.077026,154.900421 592.367126,134.563599 573.908630,119.491455 
	C567.866577,114.557884 561.522034,110.034279 554.182373,107.585052 
	C552.067505,109.257477 551.983582,111.433128 551.677612,113.305801 
	C551.008545,117.400642 548.629639,119.175781 544.764648,119.990822 
	C525.126099,124.132118 505.499695,124.295013 485.700317,120.952621 
	C478.762909,119.781494 474.152893,117.283058 473.469482,109.783882 
	C473.404785,109.073807 472.687592,108.423195 472.114227,107.484505 
	C461.102966,111.975868 451.868256,118.676254 444.107086,127.285225 
	C426.024506,147.343048 420.612885,172.055252 419.391968,197.949905 
	C417.915649,229.262497 420.330475,260.579712 420.087219,291.899384 
	C420.011108,301.701752 419.768250,311.595551 417.211761,321.155182 
	C414.819855,330.099304 410.911926,338.150238 401.343750,341.537659 
	C394.730835,343.878845 387.876068,340.192078 386.427612,333.835083 
	C385.878204,331.423798 386.272430,329.405304 388.701202,328.452698 
	C391.052734,327.530334 392.517487,328.828430 393.285248,330.999146 
	C394.156525,333.462463 395.625824,335.159637 398.453644,334.575317 
	C401.315857,333.983917 402.409668,331.763367 402.737366,329.092468 
	C403.177765,325.502869 402.235504,322.410339 399.041718,320.429962 
	C394.762512,317.776611 390.483276,318.171875 386.359314,320.879913 
	C376.031982,327.661407 376.666046,346.305023 387.363770,352.597656 
	C388.886871,353.493591 390.066010,353.223480 391.564362,352.728516 
	C412.808563,345.710785 424.507446,330.022614 431.065887,309.562103 
	C431.814758,307.225922 431.379425,305.537384 429.952148,303.596863 
	C417.138672,286.175812 423.185394,264.231964 443.031494,255.599289 
	C445.104095,254.697754 447.529938,254.448502 449.201263,252.756271 
	C449.078400,252.293106 449.070892,251.925262 448.897247,251.670731 
	C448.242249,250.710419 447.574554,249.753082 446.838287,248.854691 
	C433.271423,232.300201 430.322754,212.976349 432.023651,192.406708 
	C432.429871,187.494003 434.718933,185.187897 439.831696,184.598053 
	C449.771973,183.451309 459.509064,181.046997 468.834930,177.365189 
	C487.157898,170.131393 502.216736,159.298706 509.076569,139.744034 
	C509.716980,137.918549 510.815674,136.427582 512.931396,136.304916 
	C515.435181,136.159760 516.382141,138.032166 517.065979,139.962860 
	C521.475403,152.411469 529.743042,161.704803 541.204041,169.296570 
M515.199097,153.479874 
	C514.469177,152.662430 514.336609,151.245697 512.653748,151.107758 
	C508.886444,157.313843 504.574402,163.195648 499.052368,168.099594 
	C485.437866,180.190186 469.065674,186.388092 451.632782,190.312744 
	C439.132355,193.126923 438.904053,193.116196 439.334259,206.042694 
	C440.151733,230.605804 450.957977,249.212219 473.442230,259.933655 
	C490.738892,268.181458 509.127563,270.119720 528.054199,267.240204 
	C541.781555,265.151703 554.599426,260.876251 565.478760,251.901840 
	C582.361877,237.974945 587.656677,219.477432 586.902954,198.391006 
	C586.736328,193.727814 585.099792,191.964432 580.706055,191.374451 
	C570.594177,190.016617 560.854736,187.121841 551.469666,183.140686 
	C536.732727,176.889221 524.161560,167.906906 515.199097,153.479874 
M583.863831,410.618988 
	C603.020813,417.986786 622.617737,419.880676 643.367554,416.042358 
	C642.287781,413.750366 641.664185,412.226471 640.878906,410.790924 
	C633.347961,397.023773 624.773376,383.957550 614.195923,372.322113 
	C596.424561,352.773224 575.648743,337.666626 550.124084,329.774872 
	C547.622620,329.001434 545.117615,327.808533 542.353149,328.623871 
	C535.137573,330.751923 528.249329,333.496002 522.108154,338.032776 
	C518.617249,340.611694 517.657104,343.090118 519.558594,347.301208 
	C532.727295,376.464813 553.339172,398.016449 583.863831,410.618988 
M435.964661,350.492371 
	C412.705078,367.577087 396.085419,389.965149 382.814362,416.021820 
	C395.591919,418.502411 407.511597,418.735596 419.360352,416.668091 
	C461.793365,409.264008 490.089233,384.188721 507.433136,345.604065 
	C508.566742,343.082153 507.904999,341.265076 505.840759,339.501587 
	C500.551361,334.982758 494.413757,332.191223 487.935120,329.869446 
	C483.814789,328.392822 480.004913,328.414368 475.840057,329.786713 
	C461.642365,334.464844 448.562897,341.219421 435.964661,350.492371 
M479.360046,289.092804 
	C480.551849,298.485565 481.945618,307.841492 484.228821,317.046234 
	C484.722198,319.035248 485.151733,320.991455 487.442322,321.673462 
	C496.945160,324.502838 505.523895,329.079651 513.242493,335.825287 
	C520.440857,328.811676 528.992798,324.871124 538.101685,321.993713 
	C540.254333,321.313690 541.360596,319.921326 541.774902,317.744690 
	C542.209106,315.464050 542.943298,313.238312 543.337219,310.952576 
	C545.391968,299.031067 548.123779,287.187103 546.910156,274.917999 
	C546.535278,271.128174 544.851929,271.153320 541.886963,272.131287 
	C539.373474,272.960358 539.428589,274.952789 538.872864,276.805786 
	C535.471375,288.147522 525.957153,295.917145 515.024658,296.311096 
	C502.088989,296.777222 492.429596,290.398376 487.980682,278.428802 
	C487.517639,277.182922 487.183289,275.889832 486.753479,274.630829 
	C485.809082,271.864532 483.294830,271.481750 481.069153,271.640045 
	C478.790741,271.802032 479.331604,274.138092 479.303070,275.683563 
	C479.226349,279.840454 479.311859,284.000366 479.360046,289.092804 
M475.214233,85.746696 
	C477.197998,93.305527 479.204376,100.858528 481.151337,108.426819 
	C481.716705,110.624443 482.414398,112.313698 485.101044,112.872208 
	C503.611755,116.720314 522.095459,116.756775 540.614258,112.985329 
	C542.775146,112.545265 544.181396,111.766426 544.771484,109.411346 
	C547.186157,99.774391 549.763916,90.178307 552.461670,79.880013 
	C546.826660,83.826004 541.826782,87.364128 536.787720,90.845665 
	C531.485657,94.508965 530.114868,94.229179 527.013367,88.824806 
	C524.444580,84.348534 521.956726,79.825790 519.436279,75.321815 
	C517.452087,71.776154 515.472778,68.227730 513.083923,63.951283 
	C508.213623,72.786446 503.894989,80.638542 499.558929,88.481003 
	C496.364014,94.259514 495.084656,94.442856 489.495544,90.927658 
	C484.550507,87.817482 480.229523,83.691017 474.194855,80.931709 
	C474.590576,82.826294 474.821655,83.932617 475.214233,85.746696 
M472.185333,292.967072 
	C471.299896,285.828430 471.513977,278.675537 471.956543,271.524475 
	C472.036255,270.236481 472.981537,268.578339 471.548523,267.841827 
	C466.549103,265.272430 462.144196,261.223236 456.347412,260.575500 
	C447.087708,259.540833 435.827576,267.070801 432.326508,276.233063 
	C428.499908,286.247192 431.508942,296.579468 440.121613,302.874786 
	C444.493561,306.070404 449.379639,308.035004 454.692871,309.114410 
	C460.548218,310.303925 465.815643,309.598053 470.718323,305.831146 
	C475.400574,302.233582 472.119507,297.862976 472.185333,292.967072 
M585.625122,303.174774 
	C593.317688,297.360504 597.214355,289.753662 595.062500,280.148865 
	C590.910522,261.616669 570.010742,254.994431 555.138000,267.206726 
	C553.825012,268.284882 553.868530,269.363098 554.109619,270.711853 
	C555.746399,279.869873 554.782532,288.995361 553.196594,298.001373 
	C552.289062,303.154388 554.532349,305.780396 558.601807,307.837738 
	C562.159485,309.636322 565.891235,310.037445 569.771362,309.437408 
	C575.276917,308.586029 580.363708,306.627594 585.625122,303.174774 
M600.012024,348.457916 
	C604.437317,352.484497 609.159973,356.236694 613.201477,360.617340 
	C616.989746,364.723480 621.460022,365.970032 626.632019,365.627594 
	C629.213013,365.456726 632.730347,365.571960 633.307617,362.532013 
	C633.884277,359.494965 630.433594,358.796509 628.203735,358.044312 
	C612.414001,352.717926 602.078613,341.488220 594.365845,327.297668 
	C593.540344,325.778809 593.260559,323.744293 591.127563,323.011658 
	C587.273071,324.708862 583.381836,326.422241 579.494568,328.133850 
	C579.769958,330.241943 580.997192,331.435486 581.824646,332.843231 
	C585.979675,339.912659 593.707092,342.805725 600.012024,348.457916 
M438.336578,324.545227 
	C436.983215,324.084045 435.962250,322.607544 434.024048,323.255432 
	C433.706421,323.832092 433.292267,324.530884 432.927246,325.254456 
	C425.165161,340.641083 414.182739,352.558411 397.430511,358.293518 
	C396.340576,358.666626 395.220795,359.125153 394.305328,359.801666 
	C391.980713,361.519470 391.775757,363.195679 394.687286,364.588043 
	C399.690552,366.980774 407.812378,365.639679 411.808044,361.591644 
	C419.646515,353.650391 428.063232,346.422760 437.347473,340.203583 
	C441.712555,337.279602 444.544312,333.131378 446.781006,327.926483 
	C443.864227,326.785919 441.421143,325.830597 438.336578,324.545227 
M507.818115,276.024384 
	C503.772400,275.456573 499.724426,274.954254 495.578979,275.310883 
	C497.144226,283.194885 504.223480,288.745483 512.492920,288.817200 
	C522.099915,288.900513 529.249390,283.548065 530.981934,274.698608 
	C523.521851,275.215637 516.181946,276.589294 507.818115,276.024384 
M554.549377,314.300262 
	C553.363586,313.854858 552.450134,312.575226 550.606628,313.202515 
	C550.970032,316.078308 546.820740,319.706970 551.202271,321.844727 
	C557.148865,324.746094 563.588501,326.636810 569.783569,328.948639 
	C567.854980,321.126862 563.816772,315.816162 555.654419,314.849182 
	C555.500061,314.830902 555.358582,314.703674 554.549377,314.300262 
M471.769318,323.156525 
	C477.782898,321.038147 477.872131,320.754730 474.931885,313.111816 
	C459.949951,318.802185 459.147644,319.503479 456.653381,329.063232 
	C461.438904,327.196228 466.243622,325.321686 471.769318,323.156525 
M517.901245,48.917568 
	C520.061157,43.917004 513.334290,45.302303 513.475708,40.786758 
	C511.485565,44.087551 509.487823,45.477402 506.604065,46.643364 
	C508.752502,48.736240 509.085510,51.206196 509.633484,54.013935 
	C512.228027,52.401505 514.572815,53.707779 516.849365,54.113972 
	C517.152771,52.371620 517.402893,50.935757 517.901245,48.917568 
M584.446777,317.991089 
	C587.035156,316.645905 590.295959,315.578125 587.080200,311.545105 
	C582.534363,313.368774 578.149109,315.127991 573.725586,316.902588 
	C573.799744,320.228394 575.381348,321.296021 578.219910,320.449615 
	C580.113037,319.885101 581.922119,319.038574 584.446777,317.991089 
M439.001740,311.850952 
	C436.353424,314.613129 437.888794,316.745972 440.620026,317.262207 
	C444.466797,317.989166 448.127411,324.226288 452.419952,318.082001 
	C452.548431,317.898071 452.322418,317.466492 452.221252,316.940033 
	C448.092163,315.248993 443.860779,313.516052 439.001740,311.850952 
z"/>
<path fill="#000000" opacity="1.000000" stroke="none" 
	d="
M464.926941,209.391022 
	C465.072510,211.294800 465.007294,212.825729 465.340576,214.264328 
	C466.211914,218.025299 468.470856,220.440582 472.486389,220.810150 
	C476.491943,221.178787 479.123322,219.269623 480.749908,215.718033 
	C481.606476,213.847641 481.771271,211.883896 481.723969,209.872574 
	C481.663116,207.284317 482.356415,204.973068 485.365631,204.979080 
	C487.928894,204.984192 489.022827,207.018341 489.223724,209.390991 
	C489.778259,215.939438 488.030151,221.720917 482.565369,225.668030 
	C477.255707,229.503098 471.322693,229.744553 465.604645,226.624649 
	C459.432953,223.257202 457.223145,217.400879 457.105316,210.729553 
	C457.061676,208.259430 457.591522,205.431946 460.745667,204.973541 
	C463.486084,204.575256 464.405914,206.703827 464.926941,209.391022 
z"/>
<path fill="#000000" opacity="1.000000" stroke="none" 
	d="
M553.769165,228.485626 
	C543.107178,227.887787 536.262817,220.490494 536.856934,210.602158 
	C537.012939,208.004944 537.549683,205.183853 540.675781,205.056549 
	C544.006714,204.920898 544.454529,207.675400 544.374207,210.365524 
	C544.313110,212.415527 544.848755,214.341919 545.725098,216.136749 
	C547.137085,219.028534 549.381897,220.821457 552.761169,220.857224 
	C556.061401,220.892166 558.502380,219.458054 560.094360,216.576996 
	C561.245728,214.493256 561.789734,212.278290 561.657166,209.877655 
	C561.529114,207.559143 561.952881,205.267365 564.721802,205.014969 
	C567.752197,204.738770 568.536316,207.234406 569.014343,209.567719 
	C570.402161,216.341507 565.677063,224.708237 558.972717,227.316162 
	C557.450195,227.908417 555.767700,228.089676 553.769165,228.485626 
z"/>
<path fill="#000000" opacity="1.000000" stroke="none" 
	d="
M504.177948,231.405502 
	C503.541931,229.028702 503.920105,227.263718 506.098602,226.648102 
	C509.734314,225.620697 510.851013,228.859314 512.529358,230.914459 
	C514.716736,230.695602 514.850037,228.564056 516.092529,227.580322 
	C517.700134,226.307434 519.381287,225.874374 521.105469,227.135712 
	C522.700806,228.302795 522.851562,230.104263 521.937439,231.614548 
	C520.135071,234.592407 518.271912,237.595078 515.997314,240.207321 
	C513.942078,242.567535 511.467133,242.007019 509.661835,239.584167 
	C507.777710,237.055557 506.099976,234.373169 504.177948,231.405502 
z"/>
</svg>