<svg version="1.1" id="Layer_1" xmlns="http://www.w3.org/2000/svg" xmlns:xlink="http://www.w3.org/1999/xlink" x="0px" y="0px"
	 width="100%" viewBox="0 0 1024 1024" enable-background="new 0 0 1024 1024" xml:space="preserve">
<path fill="#000000" opacity="1.000000" stroke="none" 
	d="
M207.138474,563.352539 
	C177.583725,568.345520 149.080582,567.197571 121.548889,555.207092 
	C91.033409,541.917053 70.883911,508.062317 74.869469,475.157745 
	C77.391571,454.335449 89.731781,440.007141 107.597855,430.054535 
	C123.693680,421.088135 141.492340,417.295593 159.277924,413.708191 
	C211.723862,403.129639 258.540894,381.729431 297.045593,343.657898 
	C311.601044,329.266174 327.961212,317.324249 347.587891,310.425812 
	C361.108337,305.673615 374.793640,304.324097 388.759430,307.790314 
	C391.631226,308.503082 393.844025,308.003845 396.272949,306.585571 
	C424.826935,289.912170 455.785522,281.224762 488.629547,278.542480 
	C527.140137,275.397369 564.747620,278.910522 601.114929,292.683228 
	C611.431641,296.590302 621.188904,301.616486 630.830994,306.904175 
	C632.438354,307.785645 633.821228,308.551025 635.927612,308.017151 
	C657.803040,302.472382 677.737549,308.162079 696.693542,318.927460 
	C708.644775,325.714691 719.415222,334.165985 729.148804,343.791321 
	C767.492676,381.708923 814.036804,403.327148 866.380066,413.801422 
	C884.660400,417.459412 902.876221,421.528015 919.365723,430.898682 
	C937.262817,441.069305 949.060364,455.707275 951.124878,476.557648 
	C953.168396,497.196747 946.895630,515.639038 934.043762,531.929749 
	C918.760803,551.302063 897.746887,560.371765 874.321533,564.028259 
	C833.075256,570.466492 794.539673,561.830872 758.864319,540.498291 
	C745.663208,532.604492 734.053772,522.552795 723.421753,511.425232 
	C722.292053,510.242981 721.464844,508.771790 719.917114,506.632812 
	C717.592590,511.553101 716.051514,515.185059 714.208069,518.656494 
	C702.910400,539.932434 685.635681,555.190491 665.166931,567.234192 
	C658.256287,571.300354 651.077271,574.832520 643.595215,577.642761 
	C639.395142,579.220337 639.169434,581.375610 641.227173,584.606201 
	C642.664917,585.296143 643.554871,584.341064 644.527710,583.784729 
	C660.613281,574.586182 677.220337,574.357910 693.962585,581.471497 
	C707.391296,587.177124 715.330322,597.986694 721.619995,610.914978 
	C732.606628,633.497620 721.677429,660.751099 707.698730,671.708435 
	C699.687073,677.988403 690.708252,682.232056 680.461975,683.198303 
	C677.979004,683.432434 676.491272,684.340393 675.432922,686.502258 
	C663.612061,710.647583 632.765442,718.245117 611.524109,713.745117 
	C607.519043,712.896667 604.347046,713.097290 600.974854,715.836121 
	C581.127319,731.955872 547.410706,732.427795 529.369873,716.955139 
	C527.867615,715.666626 526.163696,715.345215 524.267090,715.382751 
	C521.435120,715.438965 518.594604,715.516418 515.769226,715.367126 
	C506.057281,714.853760 497.546204,716.656799 488.455872,721.599609 
	C468.553711,732.421631 447.674469,730.651733 428.706970,718.440613 
	C422.116364,714.197632 416.403687,713.936279 409.288300,714.603638 
	C390.039368,716.408997 372.312378,712.062256 358.537689,697.674988 
	C344.638733,683.158020 341.998596,657.941589 351.518494,637.723938 
	C357.581879,624.846924 366.137573,614.277649 379.695374,608.649597 
	C382.062378,607.667114 382.698090,606.091370 382.904358,603.655334 
	C383.408386,597.702332 383.770111,591.653870 385.179688,585.885986 
	C386.418701,580.816162 384.727936,578.820740 380.273865,576.936584 
	C356.722504,566.973633 336.188934,552.903442 320.568695,532.240723 
	C316.006256,526.205566 312.501892,519.631287 309.205994,512.892517 
	C308.411957,511.269043 307.972931,509.427216 305.986237,507.753448 
	C279.496033,537.340088 246.653244,555.930603 207.138474,563.352539 
M127.463280,438.044739 
	C120.747917,440.614258 114.322594,443.757263 108.450821,447.932465 
	C96.377815,456.517181 89.023262,468.270477 89.753403,483.038513 
	C91.135132,510.985596 105.195557,531.008179 130.938141,542.348267 
	C152.209671,551.718750 174.706100,552.430420 197.139923,549.305481 
	C233.788727,544.200562 265.250702,528.301636 290.755737,501.097900 
	C297.703979,493.686859 304.572876,486.506409 300.928101,475.026276 
	C300.544678,473.818420 300.820251,472.370941 300.920319,471.044464 
	C302.863129,445.288361 312.287140,422.626465 329.211487,403.124908 
	C331.146637,400.895020 332.998535,396.371338 336.358612,398.532745 
	C339.513397,400.562164 337.095642,404.678345 335.889282,407.652557 
	C331.633270,418.145081 326.866302,428.440491 322.896484,439.036713 
	C314.990906,460.138031 313.524017,481.474243 321.939545,502.885986 
	C332.021332,528.537048 351.642487,545.093018 375.086975,557.616028 
	C396.362091,568.980225 419.493408,575.557312 442.569672,582.147217 
	C444.526642,582.706116 447.397675,582.906006 447.189911,585.800842 
	C446.967102,588.906616 444.082306,588.877136 441.808807,589.016052 
	C435.301178,589.413879 428.838104,588.636169 422.430878,587.677124 
	C415.590485,586.653198 408.811981,585.215698 401.775513,583.916138 
	C401.192474,585.987122 400.546478,587.702026 400.237061,589.475708 
	C398.372253,600.164673 397.919800,610.834473 399.130951,621.711914 
	C401.844513,646.082764 408.814697,668.953125 422.059723,689.654358 
	C437.229156,713.363281 460.067963,716.967590 480.569977,708.842224 
	C486.562775,706.467163 489.652374,701.794250 489.811096,695.277161 
	C489.949188,689.609192 489.689178,683.981201 488.940247,678.341187 
	C488.154297,672.422729 486.536774,666.575562 486.996552,660.526062 
	C487.112000,659.007385 487.493988,657.393921 489.284027,657.057190 
	C490.877838,656.757385 491.632416,658.118286 492.281891,659.262634 
	C497.578278,668.594543 501.495880,678.438293 503.284546,689.071899 
	C503.906036,692.766724 501.455170,697.627930 504.652405,699.955505 
	C507.698486,702.173218 512.416748,700.515686 516.390381,700.768860 
	C516.722229,700.789978 517.059387,700.739563 517.389771,700.769531 
	C520.539551,701.055969 521.881226,699.771118 521.856445,696.471069 
	C521.765076,684.332397 525.889893,673.282776 531.198669,662.628296 
	C532.430725,660.155579 533.339417,655.844543 537.095825,657.248840 
	C540.355591,658.467407 539.197998,662.428589 538.786682,665.317688 
	C537.379883,675.197937 535.853394,685.035706 536.097595,695.091980 
	C536.264038,701.942932 539.230530,706.719055 545.447510,709.036316 
	C561.207336,714.910278 576.445862,714.272034 590.520081,704.193542 
	C600.476257,697.063965 606.419800,686.753418 611.551697,676.063477 
	C620.566589,657.285156 625.919922,637.378662 627.499146,616.621521 
	C628.330933,605.689087 627.474731,594.730835 624.304626,584.138123 
	C621.980347,583.693665 620.104919,584.443115 618.185974,584.894592 
	C606.647705,587.609314 594.996948,589.412842 583.097961,588.984375 
	C581.306274,588.919861 579.177551,588.842773 578.746216,586.491150 
	C578.259460,583.837280 580.271729,583.157410 582.280273,582.546753 
	C587.692505,580.901184 593.089539,579.205994 598.497986,577.547974 
	C621.303040,570.556519 643.916565,563.135986 664.055359,549.816528 
	C678.565063,540.220154 691.234009,528.790100 699.567505,513.298035 
	C712.662598,488.954132 712.264771,463.815948 702.853821,438.482544 
	C698.565552,426.939026 693.533386,415.673401 688.994568,404.219910 
	C688.248413,402.337036 687.209961,399.714355 689.706604,398.372772 
	C691.875000,397.207611 693.446838,399.277771 694.730530,400.689697 
	C703.191589,409.996002 710.230347,420.264160 715.341797,431.799835 
	C722.625122,448.237152 725.807800,465.382263 724.332031,483.353271 
	C724.128479,485.832794 724.198425,488.194061 726.001465,490.398987 
	C740.299866,507.884186 756.957153,522.489319 777.108154,532.937012 
	C805.395874,547.603271 835.392944,553.239929 867.012207,549.558960 
	C882.751648,547.726685 897.723816,543.233154 910.419922,533.239258 
	C928.293457,519.169983 937.492676,500.702301 935.386414,477.907074 
	C933.631165,458.910400 920.748657,448.015472 904.351746,440.687012 
	C892.122375,435.221191 879.195068,431.948059 866.107178,429.422516 
	C808.640564,418.333191 757.630554,394.851837 715.739929,352.937836 
	C701.991333,339.181549 685.999451,328.218719 666.769287,323.041199 
	C660.706421,321.408844 654.561707,320.361908 647.398987,321.760345 
	C652.136597,327.351288 657.293640,331.699280 660.418640,337.569427 
	C661.643677,339.870544 664.860596,342.411560 662.105835,345.088074 
	C659.165833,347.944580 657.224976,344.010468 654.913208,342.880524 
	C654.179749,342.522003 653.568909,341.903442 652.921265,341.379883 
	C638.361572,329.610809 623.019958,319.097656 605.835449,311.428375 
	C567.884521,294.491180 528.063049,290.375854 487.130829,294.085358 
	C444.276642,297.968964 406.013489,313.046936 373.233215,341.315186 
	C371.481079,342.826141 369.438629,344.022186 367.447266,345.225708 
	C366.272003,345.936005 364.933319,346.216766 363.779633,345.032166 
	C362.657196,343.879730 362.883301,342.592102 363.536743,341.344055 
	C365.238525,338.093689 367.053192,334.917053 369.442627,332.096008 
	C372.275269,328.751709 375.044342,325.353577 378.219696,321.521729 
	C376.340668,321.335663 375.213104,321.147614 374.082062,321.123474 
	C356.700562,320.752716 342.244202,328.519623 328.377625,337.751709 
	C315.824463,346.109375 305.722778,357.333923 294.445709,367.186340 
	C260.694824,396.673553 221.181976,414.670258 178.027634,425.353790 
	C161.406662,429.468597 144.265884,431.491119 127.463280,438.044739 
M706.141479,647.673889 
	C711.304199,638.008118 714.320251,628.288391 706.994019,618.246948 
	C706.517578,617.593933 706.273987,616.744873 706.027405,615.954102 
	C701.814453,602.442261 692.083435,595.108093 678.695801,592.695190 
	C666.324280,590.465515 654.437622,591.471558 645.190857,601.657410 
	C642.626892,604.481812 642.369080,606.666382 646.298767,608.600037 
	C666.631226,618.605164 676.352112,635.831482 679.560181,657.551147 
	C680.032227,660.746887 679.238342,664.188293 681.089233,667.463806 
	C692.619507,665.132202 701.626831,659.903015 706.141479,647.673889 
M385.561859,632.585205 
	C385.100922,629.705444 384.639984,626.825684 384.168610,623.880676 
	C367.169708,630.101624 356.752716,658.337097 363.689606,677.082153 
	C370.590302,695.729492 396.126862,702.923767 409.243439,698.496277 
	C397.056427,678.329529 388.999329,656.685181 385.561859,632.585205 
M626.701721,679.043152 
	C623.378235,685.629761 620.054749,692.216431 616.429626,699.400818 
	C624.246033,699.956177 631.277222,699.936096 638.213379,697.742798 
	C652.362549,693.268738 662.136536,684.814636 663.940308,669.283936 
	C665.863708,652.722412 660.280945,638.943359 647.946594,627.861755 
	C646.311218,626.392517 644.732239,624.501221 641.592957,624.626160 
	C639.447937,643.380737 634.859192,661.326904 626.701721,679.043152 
z"/>
<path fill="#000000" opacity="1.000000" stroke="none" 
	d="
M397.402405,450.382568 
	C392.721405,438.258575 392.979523,426.595123 398.246185,415.140717 
	C403.411377,403.906921 414.693512,396.963135 426.155792,397.754028 
	C437.463593,398.534210 447.383484,406.766632 451.055725,418.569061 
	C454.537323,429.758881 454.405945,440.783569 449.559753,451.657593 
	C444.500671,463.009277 436.214661,470.251190 423.538544,470.069946 
	C410.689392,469.886230 402.424774,462.292908 397.402405,450.382568 
M417.257080,429.192627 
	C422.551331,433.358887 425.764465,433.795990 430.405701,430.965118 
	C434.573334,428.423096 437.138214,424.934479 436.234131,419.838837 
	C435.329834,414.741791 432.164886,411.505798 427.100159,410.425812 
	C422.594269,409.465057 418.684204,410.969818 416.137115,414.708466 
	C412.986633,419.332764 413.395386,424.129425 417.257080,429.192627 
M437.409332,439.471985 
	C439.645538,438.693451 441.404541,437.594879 439.923615,434.860382 
	C439.248413,433.613525 438.037994,433.067444 436.595490,433.314911 
	C435.561279,433.492310 434.751953,434.103088 434.451111,435.103149 
	C433.809570,437.235809 434.939392,438.502930 437.409332,439.471985 
z"/>
<path fill="#000000" opacity="1.000000" stroke="none" 
	d="
M587.835449,401.662079 
	C601.978699,393.622375 618.120361,398.034668 626.134521,412.687714 
	C634.387390,427.777222 633.832947,443.286255 624.359314,457.621246 
	C612.605347,475.406647 588.616882,474.420105 578.353577,455.764282 
	C569.967102,440.519928 570.006714,424.945007 579.378296,409.835358 
	C581.442688,406.507050 584.379822,404.080231 587.835449,401.662079 
M609.897949,414.753448 
	C605.051453,409.708344 599.943237,408.743225 594.784973,411.898163 
	C590.708191,414.391632 588.546631,419.999603 589.950867,424.439789 
	C591.947205,430.752594 598.696838,434.204712 604.577576,431.920654 
	C611.291626,429.312958 613.510864,422.934357 609.897949,414.753448 
M584.931519,436.336182 
	C586.083435,438.904083 587.669861,440.650787 590.513000,438.491638 
	C592.171692,437.231934 591.859741,435.524353 590.384521,434.304535 
	C588.070129,432.390808 586.198059,432.954834 584.931519,436.336182 
z"/>
<path fill="#000000" opacity="1.000000" stroke="none" 
	d="
M511.189636,512.947693 
	C498.445862,511.859222 488.215332,507.481934 482.384155,495.670502 
	C474.358093,479.413055 481.655914,463.202850 499.276825,458.720703 
	C508.449493,456.387482 517.702759,456.123108 526.905212,458.718658 
	C539.122681,462.164612 546.187195,470.344391 546.972961,481.882690 
	C547.710693,492.715973 539.957886,505.050598 529.606384,509.378296 
	C523.868286,511.777283 517.890625,513.104553 511.189636,512.947693 
M498.796112,475.246490 
	C494.073944,478.462860 492.826691,483.159088 495.473358,488.628113 
	C498.760010,495.419647 504.365784,498.722992 511.834747,498.850128 
	C519.473572,498.980164 525.998230,496.407166 530.134277,489.774719 
	C534.080322,483.446747 531.720459,476.467407 524.663940,474.007324 
	C516.280090,471.084534 507.749084,471.163574 498.796112,475.246490 
z"/>
<path fill="#000000" opacity="1.000000" stroke="none" 
	d="
M665.244873,494.531921 
	C654.446289,498.479523 644.073059,498.835876 633.874512,493.872162 
	C628.811523,491.407959 625.120239,487.756775 624.689026,481.789062 
	C624.245422,475.651184 627.265259,471.215393 632.213806,468.076935 
	C644.406311,460.344208 656.772461,460.738007 668.982849,467.965454 
	C674.061340,470.971405 676.884827,475.588898 676.316528,481.717957 
	C675.699463,488.371765 671.060486,491.751770 665.244873,494.531921 
z"/>
<path fill="#000000" opacity="1.000000" stroke="none" 
	d="
M400.843811,478.572571 
	C401.754364,485.259613 398.650055,489.765900 393.598602,492.582794 
	C381.865601,499.125580 369.656158,499.526123 357.824432,493.018799 
	C346.271210,486.664795 346.125122,474.508972 357.364166,467.636749 
	C368.525879,460.811859 380.095367,460.943512 391.603027,466.888977 
	C396.223236,469.276062 399.503998,472.951996 400.843811,478.572571 
z"/>
</svg>