<svg version="1.1" id="Layer_1" xmlns="http://www.w3.org/2000/svg" xmlns:xlink="http://www.w3.org/1999/xlink" x="0px" y="0px"
	 width="100%" viewBox="0 0 1024 1024" enable-background="new 0 0 1024 1024" xml:space="preserve">
<path fill="#000000" opacity="1.000000" stroke="none" 
	d="
M449.902344,654.076294 
	C441.107971,657.382141 432.159851,658.668640 422.998260,661.329346 
	C424.244232,669.123596 425.430664,676.841858 422.077087,684.333130 
	C418.839661,691.564880 413.682251,697.006653 405.727142,701.475037 
	C412.295380,704.453186 417.745667,707.098816 423.329315,709.424072 
	C441.334503,716.922058 459.540314,723.813660 478.902985,727.061035 
	C491.634583,729.196350 504.442139,729.021057 517.252686,728.292053 
	C520.369019,728.114563 523.420898,728.153076 523.854797,731.743042 
	C524.303467,735.455933 521.281372,736.053894 518.186340,736.410400 
	C491.082672,739.531616 465.118469,734.519348 439.893127,725.096375 
	C426.957031,720.264160 414.008301,715.206482 401.769348,708.887085 
	C396.440582,706.135681 391.875061,705.941528 386.396149,706.122498 
	C369.656036,706.675476 355.622864,700.115356 343.830139,688.463440 
	C332.178894,676.951416 321.892761,664.299255 312.510559,650.892212 
	C310.616638,648.185852 308.939758,645.283081 305.711273,642.860168 
	C304.854065,646.724548 306.065857,650.051453 306.876587,653.219604 
	C317.507416,694.763794 341.328156,726.684753 377.781494,749.079163 
	C407.210968,767.158508 439.369843,777.309814 473.668152,780.782593 
	C517.996948,785.270935 560.333252,778.115601 600.255737,758.207703 
	C634.364380,741.198914 662.565857,716.906677 686.204407,687.105286 
	C705.019958,663.384460 720.782043,637.751160 734.740845,610.958679 
	C736.245239,608.071167 738.407166,606.801086 741.193115,608.163391 
	C744.345947,609.705139 744.270874,612.647827 742.862427,615.491882 
	C737.096863,627.134094 731.575439,638.900269 725.121582,650.192810 
	C708.738403,678.858826 689.389832,705.262634 665.027954,727.694946 
	C633.036072,757.152954 596.108643,777.656555 553.519714,787.238647 
	C500.930756,799.070801 449.609528,794.531982 399.922699,773.692139 
	C367.979095,760.294250 340.591827,740.658447 320.398102,712.022583 
	C306.252258,691.963074 297.575897,669.613098 293.701508,645.401794 
	C292.809753,639.829102 292.280396,634.199280 291.452850,628.615295 
	C290.321014,620.977966 284.778107,615.332947 282.048676,608.392944 
	C281.707703,607.526001 279.790924,607.211731 278.557404,606.773254 
	C266.300110,602.415039 259.315247,592.559448 258.615326,579.553772 
	C257.672668,562.038208 263.652771,546.543213 271.815521,531.596436 
	C272.693512,529.988708 273.663971,528.431702 274.556885,526.831787 
	C274.705994,526.564575 274.676331,526.197571 274.812592,525.371582 
	C270.142334,524.061768 265.402344,522.782837 260.692047,521.402466 
	C240.838623,515.584412 223.097153,506.115021 208.645004,491.047272 
	C206.506546,488.817719 204.012405,487.402985 201.135284,486.338989 
	C193.102371,483.368469 187.967209,477.580688 185.431030,469.446350 
	C185.184708,468.656311 184.709229,467.686554 184.955963,467.032562 
	C187.578857,460.080902 183.477966,455.462738 179.870026,450.284119 
	C175.683090,444.274292 176.223846,437.624115 179.937714,431.412750 
	C181.981354,427.994812 184.324997,424.734833 186.755859,421.574799 
	C190.426941,416.802582 192.398911,411.549072 192.724457,405.495789 
	C194.480789,372.838257 205.530609,343.836212 227.087601,319.029358 
	C228.480103,317.426910 229.880005,315.830872 231.614487,313.844788 
	C223.957230,309.543884 216.707230,305.503265 210.052597,300.547241 
	C185.209763,282.045593 165.270309,259.619659 155.380020,229.711426 
	C149.884140,213.091858 149.766953,196.199036 154.659897,179.125534 
	C160.225021,159.706543 182.516800,145.251755 203.679031,151.075912 
	C224.689606,156.858307 241.490692,168.763229 255.961945,184.509109 
	C265.926788,195.351654 274.277924,207.379120 281.744904,220.043503 
	C283.063049,222.279114 284.484985,224.453552 285.993347,226.871658 
	C287.597961,224.836487 287.568146,223.012207 287.658142,221.212326 
	C289.236633,189.644058 312.951233,161.234009 343.612213,154.305344 
	C351.466400,152.530487 359.404083,151.943741 367.393524,153.612396 
	C371.324615,154.433441 374.932434,155.782669 376.032013,160.116882 
	C377.082062,164.255676 375.256012,167.513306 372.268524,170.348740 
	C363.740173,178.443176 357.153442,187.696243 355.691986,199.758316 
	C353.332001,219.236084 365.496155,238.108826 384.130035,242.198746 
	C391.624908,243.843781 398.903931,242.917786 405.325806,238.901489 
	C412.039612,234.702621 417.862000,229.746399 421.997894,222.344910 
	C435.113525,198.873535 451.136993,177.708298 474.153107,162.777145 
	C484.354248,156.159393 495.288696,151.613098 507.431091,150.018036 
	C523.406616,147.919449 541.780029,158.762848 547.663208,173.725021 
	C558.686829,201.760483 553.611389,228.077835 538.779175,253.047821 
	C523.725891,278.390076 503.118835,298.123199 476.775391,311.656708 
	C476.038879,312.035095 475.331757,312.482880 474.657471,312.963623 
	C474.417938,313.134369 474.317047,313.499603 473.933411,314.145569 
	C475.851898,316.441284 477.854156,318.848694 479.868530,321.245911 
	C497.759460,342.537170 507.171082,367.459961 511.346985,394.637360 
	C511.980255,398.758698 512.278259,402.883423 512.394043,407.055023 
	C512.530640,411.973602 514.111450,416.483093 517.182800,420.457397 
	C519.420105,423.352417 521.601868,426.318878 523.504578,429.438751 
	C529.796082,439.755066 529.326721,446.086395 521.467468,455.225342 
	C519.669495,457.316101 518.724609,459.372009 519.358459,462.001129 
	C521.901489,472.548523 513.284546,481.986084 505.386261,485.479767 
	C501.029877,487.406738 497.320709,489.793396 493.969116,493.125427 
	C485.399475,501.645142 475.744324,508.675079 464.594574,513.522156 
	C464.014282,513.774475 463.555817,514.307129 462.727539,514.953613 
	C466.187866,518.259338 470.110382,519.286560 474.569702,518.923767 
	C483.881500,518.166016 493.171295,517.467346 502.094666,521.391663 
	C510.258850,524.982178 516.816956,530.380920 519.144592,539.138916 
	C520.635498,544.748596 523.606323,545.275085 528.257324,544.373291 
	C543.851257,541.349854 558.843628,536.473816 573.394897,530.138550 
	C608.141479,515.010864 640.429871,495.187286 673.914185,477.648743 
	C700.342773,463.805908 726.931213,450.292633 756.498474,444.148224 
	C773.177307,440.682220 789.917236,441.126923 806.698853,443.204132 
	C809.553833,443.557587 811.412720,444.933624 811.729370,447.827942 
	C812.066589,450.909149 810.529724,453.006470 807.599792,453.824005 
	C780.257019,461.453278 758.906555,478.608246 738.452454,497.207001 
	C729.448059,505.394592 720.720459,513.862793 712.414124,522.759766 
	C710.434937,524.879639 708.163025,526.504211 705.522339,524.263672 
	C702.869995,522.013306 703.417175,519.244385 705.441101,516.717590 
	C716.420105,503.010284 728.918701,490.798828 742.293640,479.466339 
	C754.267822,469.320709 766.826355,460.003540 781.965576,452.479645 
	C770.880188,451.705078 761.215759,453.742035 751.719971,456.267548 
	C727.897522,462.603394 705.987793,473.560883 684.282410,484.934418 
	C655.071655,500.240723 626.649353,517.032593 596.965149,531.443604 
	C573.667542,542.754028 549.838623,552.524170 523.745605,555.285217 
	C522.386108,555.429138 520.836609,555.478149 520.362000,556.930115 
	C518.620728,562.257080 514.666016,567.055847 517.986572,573.434021 
	C520.419006,578.106201 521.767456,583.377930 523.294312,588.473755 
	C524.303223,591.841003 525.820129,592.796204 529.462830,592.077393 
	C559.633362,586.123779 587.062378,573.662231 613.040710,557.575378 
	C643.907715,538.461243 671.686768,515.376892 698.714294,491.309784 
	C699.706299,490.426483 700.672974,489.480194 701.785461,488.774414 
	C703.716309,487.549347 705.662231,487.750793 707.208862,489.455170 
	C708.609863,490.999023 708.602051,492.805237 707.426636,494.502258 
	C706.768372,495.452515 705.998657,496.357178 705.145935,497.136566 
	C677.440918,522.458008 648.831604,546.608704 616.646057,566.205994 
	C590.408752,582.181458 562.671082,594.372681 532.413574,600.411011 
	C531.635254,600.566345 530.907227,600.974365 530.267944,601.221252 
	C529.692261,603.362427 531.032837,604.613586 531.835449,605.982971 
	C545.040649,628.512207 532.351501,654.576904 506.583099,658.404602 
	C493.803436,660.302917 482.508728,656.732361 471.845581,650.418091 
	C467.715576,647.972595 464.225250,647.217102 459.917297,649.882202 
	C456.986420,651.695374 453.507202,652.622192 449.902344,654.076294 
M493.328827,369.121521 
	C486.094452,347.866180 474.353821,329.595062 457.505341,314.639587 
	C453.702240,311.263794 454.347748,308.416443 459.030243,306.383179 
	C462.694977,304.791870 466.477448,303.447937 470.056946,301.687714 
	C497.282074,288.299500 517.730042,267.801819 531.968262,241.232544 
	C542.142517,222.246872 544.695007,202.138351 537.932617,181.336349 
	C533.963745,169.127640 521.937317,160.809937 509.532440,162.377090 
	C495.781982,164.114273 482.761108,168.771622 472.150818,177.798706 
	C454.743652,192.608521 440.882507,210.477158 429.996826,230.609909 
	C428.873383,232.687698 428.197113,234.801224 428.154816,237.244720 
	C427.916901,250.989532 423.726166,263.406586 415.177124,274.240479 
	C413.313354,276.602417 411.248138,278.714050 411.161041,282.033569 
	C411.112854,283.871918 409.824432,285.551117 407.958221,285.092377 
	C403.518250,284.000946 400.812408,287.059814 397.547577,288.820374 
	C370.155762,303.591156 342.908630,302.646637 316.334961,287.132385 
	C310.712280,283.849762 306.156616,281.702454 299.957886,284.646759 
	C296.613068,286.235504 294.349945,284.851379 293.486603,280.954865 
	C285.968872,247.025787 270.148102,217.556778 247.021408,191.563797 
	C233.718887,176.612564 218.011444,166.910553 198.608093,162.778473 
	C186.438004,160.186783 173.984512,166.060699 168.529160,177.238647 
	C163.237122,188.081985 162.477234,199.571915 163.832230,211.368637 
	C166.330017,233.114517 176.905670,250.951965 190.765015,267.182800 
	C205.758774,284.742188 223.955368,297.852875 245.516663,306.236847 
	C250.935577,308.343964 251.396713,311.515106 246.974396,315.417358 
	C244.727600,317.399902 242.423126,319.334717 240.334518,321.476257 
	C217.157257,345.241241 207.075150,374.689270 203.268829,406.884369 
	C202.306534,415.023773 203.168884,423.125671 195.405655,429.826538 
	C184.131622,439.557861 185.332077,444.412537 198.186066,452.435547 
	C203.572678,455.797668 204.073380,459.370026 199.836639,464.211456 
	C196.605713,467.903412 196.934204,471.589264 200.884552,474.847473 
	C202.991699,476.585449 205.519562,477.375610 208.198257,477.828583 
	C210.658005,478.244598 212.960938,478.881531 214.880051,480.823547 
	C233.678329,499.846375 256.609131,510.732269 282.808502,515.180115 
	C291.125580,516.592102 292.165070,519.125916 287.232025,526.073914 
	C279.135468,537.477661 272.904297,549.781250 270.033966,563.489380 
	C268.429749,571.150757 268.074982,579.056519 271.081390,586.620239 
	C273.813568,593.493958 280.588318,597.221680 287.242004,595.616089 
	C287.053528,594.810608 286.863953,594.004761 286.676544,593.198364 
	C286.525635,592.549133 286.350464,591.904175 286.232758,591.248962 
	C285.801208,588.847290 286.310883,586.760864 288.921448,586.133850 
	C291.497528,585.515137 292.352570,587.594543 293.105438,589.493896 
	C295.398499,595.278748 296.339447,595.588257 301.592041,592.202942 
	C307.590851,588.336731 310.627106,580.833069 309.203461,573.459412 
	C308.384949,569.219849 307.129333,565.009644 307.833221,560.623718 
	C308.275726,557.866577 309.839417,555.959900 312.777405,555.903870 
	C315.561066,555.850769 316.912872,557.636658 317.350128,560.256470 
	C317.925232,563.702148 318.661316,567.124939 319.123901,570.584839 
	C321.351807,587.247864 315.708008,598.685364 301.820099,604.541565 
	C297.631866,606.307739 297.065216,608.110779 298.918396,611.961182 
	C306.971039,628.692627 320.476166,639.112000 337.385742,645.655762 
	C341.424225,647.218567 345.605988,648.324646 349.898010,649.051575 
	C352.331512,649.463684 355.415375,649.925903 355.086121,653.262573 
	C354.707062,657.103943 351.338470,656.233337 348.778320,656.232605 
	C347.626129,656.232239 346.477905,655.892883 345.321228,655.768982 
	C338.832092,655.074097 332.835480,652.331848 325.481598,650.443481 
	C333.845612,660.875854 341.238953,670.515381 349.939484,679.053406 
	C357.437164,686.411011 365.747253,692.420227 376.373993,694.230164 
	C381.813812,695.156555 387.309387,695.242126 392.904388,693.402710 
	C392.189819,692.032837 391.169159,691.449341 390.358185,690.652527 
	C388.713348,689.036316 387.496307,687.051270 389.210999,684.936401 
	C391.068726,682.645142 393.089508,684.056152 394.932831,685.298706 
	C395.485229,685.671082 396.006561,686.089294 396.556488,686.465515 
	C402.919189,690.819336 406.114014,690.091736 410.222595,683.386292 
	C411.719360,680.943542 412.745209,678.298523 413.352264,675.528870 
	C415.369568,666.325317 410.625122,660.403015 401.265686,660.318420 
	C399.432861,660.301880 397.596802,660.329529 395.768188,660.228638 
	C393.193604,660.086548 390.172211,659.729492 390.156372,656.572998 
	C390.140259,653.362915 393.311066,653.094055 395.778717,652.887024 
	C401.748657,652.385986 407.755768,652.273621 413.709106,651.639954 
	C428.047302,650.113831 442.501831,647.551147 454.572968,639.704346 
	C463.046692,634.196045 469.189789,634.307739 476.186646,640.558350 
	C476.797729,641.104309 477.587921,641.454163 478.307739,641.873108 
	C485.310883,645.948853 492.645142,649.128113 500.944122,648.616638 
	C505.470093,648.337708 510.129211,647.803650 513.418579,644.099304 
	C513.017212,643.317566 512.899902,642.997681 512.708618,642.730713 
	C510.853485,640.141296 505.692841,638.099670 509.134033,634.350464 
	C512.489624,630.694580 515.325745,635.068604 517.822693,637.166321 
	C519.976135,638.975464 521.354614,638.321838 522.750671,636.422485 
	C526.302734,631.589783 527.497681,626.277283 526.246521,620.368347 
	C525.065247,614.788818 521.865723,610.322571 518.432251,606.025330 
	C516.507263,603.616028 515.271423,601.053284 514.514771,598.069397 
	C511.350891,585.592285 507.109039,573.544739 500.145294,562.578125 
	C496.732941,557.204285 492.557892,552.454773 488.592560,547.524231 
	C487.231201,545.831543 485.618652,543.860962 487.862305,541.863220 
	C489.950439,540.003967 492.056915,541.313782 493.611786,542.876587 
	C496.896576,546.178162 499.981079,549.678955 503.146942,553.098816 
	C504.329254,554.375977 504.953156,556.402283 507.232391,556.218872 
	C510.825531,549.850769 510.178162,543.095642 505.445435,537.189270 
	C500.136017,530.563232 488.438446,526.880493 480.518494,529.502258 
	C480.898346,530.255493 481.248749,530.981689 481.626709,531.693115 
	C482.399139,533.147217 483.592529,534.627075 481.931427,536.170776 
	C480.473267,537.525879 478.794403,537.078003 477.276855,536.256592 
	C475.818634,535.467224 474.394714,534.574158 473.082581,533.562134 
	C467.363068,529.151001 461.044586,525.784668 454.405182,523.057434 
	C447.001282,520.016174 439.552246,517.119812 431.202118,518.681396 
	C427.924683,519.294312 423.319214,520.762268 422.785583,515.637817 
	C422.298065,510.956390 427.011780,511.236633 430.126068,510.960938 
	C450.858124,509.125458 468.488831,500.444733 483.702667,486.638062 
	C488.402313,482.373138 492.647278,478.364868 499.433807,476.954315 
	C507.595734,475.257874 509.124268,468.986694 503.935150,462.886017 
	C500.708557,459.092651 501.102417,456.250916 505.234100,453.328247 
	C508.221069,451.215302 511.360535,449.275269 514.123901,446.899689 
	C517.606384,443.906006 518.419006,440.425049 515.252502,436.430420 
	C512.764343,433.291626 510.559113,429.826447 507.331177,427.476074 
	C503.232452,424.491669 501.954132,420.614471 501.964294,415.831085 
	C501.997925,400.004517 498.323120,384.831512 493.328827,369.121521 
M344.038971,213.912827 
	C341.541382,194.904449 346.626007,178.439346 361.615814,164.685852 
	C351.931091,163.493927 343.949860,165.864639 336.542419,169.521072 
	C310.275421,182.486847 298.463623,204.426254 299.376312,233.117706 
	C300.035645,253.844055 309.082153,270.376282 327.996643,280.142181 
	C340.077026,286.379517 353.150696,288.419098 366.762756,286.727783 
	C385.569855,284.390930 400.382507,275.693878 410.405151,259.452179 
	C412.331482,256.330536 414.038574,252.880264 413.850159,248.688232 
	C383.725769,266.425140 348.497803,243.799942 344.038971,213.912827 
z"/>
<path fill="#000000" opacity="1.000000" stroke="none" 
	d="
M581.390808,670.395142 
	C628.399231,648.673706 663.290833,613.334412 694.450562,573.688477 
	C702.883606,562.958801 711.418335,552.278809 718.824036,540.789185 
	C720.785339,537.746277 723.294128,536.341431 726.282043,538.204041 
	C729.451660,540.179871 728.721863,543.289062 726.937439,546.101135 
	C717.208740,561.433105 707.005859,576.434265 695.695129,590.655334 
	C672.954102,619.247864 647.274963,644.704407 616.430176,664.604370 
	C588.014099,682.937378 556.973511,694.483337 523.527649,698.983643 
	C500.671326,702.059082 477.731079,701.091309 454.937805,697.352661 
	C451.769928,696.833069 449.850647,695.103027 450.243256,692.062256 
	C450.703918,688.494507 453.622223,687.906982 456.725769,688.327698 
	C471.468323,690.326050 486.295776,690.304260 501.107269,689.880798 
	C529.091187,689.080933 555.630371,682.072449 581.390808,670.395142 
z"/>
<path fill="#000000" opacity="1.000000" stroke="none" 
	d="
M840.256226,573.361145 
	C838.834290,577.016602 840.426147,580.193481 840.742310,583.427673 
	C841.452637,590.695374 842.651184,597.914978 843.379395,605.181396 
	C844.113220,612.503418 840.461365,614.945496 833.626099,611.848633 
	C825.593567,608.209351 817.565613,604.554810 809.620544,600.730469 
	C806.793030,599.369385 804.387512,599.498291 801.622131,600.922119 
	C793.634583,605.034485 785.579651,609.023987 777.459351,612.867798 
	C770.917419,615.964539 767.310913,613.715027 767.776550,606.518555 
	C768.279541,598.743652 769.282776,590.985352 770.426453,583.272949 
	C771.237244,577.805237 770.519531,573.441589 765.958557,569.508606 
	C760.178345,564.524353 755.043884,558.781738 749.721924,553.278198 
	C744.126526,547.491821 745.216309,543.677063 752.936096,541.856567 
	C761.187805,539.910583 769.425110,537.878479 777.734680,536.213013 
	C782.046814,535.348755 784.729309,533.107239 786.723999,529.273315 
	C790.486084,522.042358 794.620605,515.005981 798.539490,507.855377 
	C799.951721,505.278564 801.478027,502.861176 804.827148,502.959381 
	C807.965271,503.051453 809.231873,505.511536 810.563171,507.880951 
	C814.719727,515.279053 819.006836,522.604614 823.096008,530.039368 
	C824.672424,532.905518 826.727966,534.317688 830.072021,534.837524 
	C839.098022,536.240601 848.079468,537.975464 857.025757,539.832642 
	C863.937195,541.267334 865.330383,545.616516 860.621216,550.914246 
	C853.990112,558.374268 847.184753,565.679321 840.256226,573.361145 
M763.991028,556.510010 
	C767.659851,560.142944 771.228027,563.885254 775.026184,567.377441 
	C778.703491,570.758545 779.628906,574.579712 778.865173,579.519531 
	C777.636902,587.464111 776.403625,595.465088 776.330261,604.670044 
	C783.837341,600.839417 790.658569,597.791626 797.024048,593.982422 
	C802.771851,590.542969 807.857117,590.103699 813.780640,593.643188 
	C820.151062,597.449707 827.052734,600.344360 834.939575,603.270874 
	C834.310791,597.631409 834.310364,592.602478 833.110596,587.878113 
	C830.324829,576.908691 831.122559,567.488159 841.009644,559.988281 
	C845.088135,556.894470 848.045288,552.322449 851.959412,547.919983 
	C843.138367,545.046326 834.901428,543.932190 826.770935,542.505615 
	C822.067688,541.680481 818.985901,539.632812 816.803223,535.363159 
	C813.117554,528.153564 808.995422,521.167175 804.516541,513.115723 
	C799.996582,521.570007 795.908691,528.958435 792.082275,536.479736 
	C790.115662,540.345215 787.404480,542.636658 783.022278,543.397034 
	C776.308838,544.561829 769.645996,546.060120 763.019897,547.658447 
	C761.272217,548.080078 758.910400,547.820679 757.625854,551.017883 
	C759.440918,552.563660 761.466736,554.288940 763.991028,556.510010 
z"/>
<path fill="#000000" opacity="1.000000" stroke="none" 
	d="
M846.147949,483.838531 
	C840.259155,478.523834 833.342346,476.936279 826.088562,476.342926 
	C823.296570,476.114563 820.360352,475.835175 820.156677,472.367401 
	C819.956909,468.967010 823.010193,468.791718 825.435669,468.272980 
	C826.574097,468.029510 827.729797,467.864990 828.880066,467.679108 
	C844.993774,465.075775 854.196533,455.734711 856.734375,439.449707 
	C857.118347,436.985748 857.521057,434.512115 858.146301,432.102997 
	C858.539795,430.587250 859.651978,429.457581 861.359863,429.367249 
	C863.271912,429.266083 864.604248,430.290222 865.086365,432.065521 
	C865.913696,435.111816 866.600098,438.200287 867.239868,441.292969 
	C870.167480,455.444092 878.039124,464.633331 892.824829,466.957184 
	C894.633789,467.241547 896.431213,467.605194 898.226318,467.969910 
	C900.491394,468.430084 902.523865,469.330048 902.532471,472.021271 
	C902.542114,475.028198 900.252197,475.772156 897.820129,476.184784 
	C895.854492,476.518311 893.867126,476.745422 891.919922,477.162384 
	C876.379089,480.490143 868.139404,489.670441 866.280945,505.632965 
	C866.050171,507.615021 865.705444,509.584229 865.394165,511.556366 
	C865.069458,513.613892 863.922241,515.000061 861.795349,515.031616 
	C859.686462,515.062805 858.397034,513.625427 857.917969,511.728668 
	C857.063416,508.345032 856.568542,504.868713 855.671814,501.498016 
	C853.941345,494.993561 851.456787,488.844696 846.147949,483.838531 
M851.527466,466.073608 
	C848.741211,468.061310 845.955017,470.049042 842.637573,472.415710 
	C852.162720,476.020691 856.590454,484.128967 861.731079,492.277496 
	C866.056702,482.973877 872.324402,476.396271 881.664673,471.933624 
	C871.608521,467.904053 866.311218,460.366211 861.786072,451.503265 
	C858.523499,456.829956 856.313293,461.942017 851.527466,466.073608 
z"/>
<path fill="#000000" opacity="1.000000" stroke="none" 
	d="
M230.425995,607.506104 
	C231.988251,607.706787 233.178802,607.711548 234.292923,608.005737 
	C236.001694,608.457031 237.312317,609.414734 237.404709,611.416443 
	C237.503876,613.565247 236.399887,614.925293 234.454514,615.511719 
	C233.036652,615.939087 231.537476,616.143127 230.059280,616.316956 
	C212.455521,618.386719 203.219147,627.718201 201.282288,645.381348 
	C201.065094,647.362061 200.683044,649.325012 200.370605,651.295044 
	C200.045822,653.342957 198.881012,654.746216 196.817673,654.895386 
	C194.462418,655.065613 193.116974,653.530029 192.616730,651.395325 
	C191.896255,648.320984 191.423859,645.189209 190.730728,642.107727 
	C186.942825,625.267883 178.375198,617.796265 161.092636,616.239746 
	C158.328934,615.990845 155.320938,615.636780 155.072861,612.267822 
	C154.803009,608.602783 158.158173,608.483093 160.693146,607.909851 
	C163.604752,607.251404 166.599152,606.925476 169.475311,606.149963 
	C183.683548,602.319092 189.366714,591.631104 191.667969,578.280090 
	C192.006943,576.313538 192.356567,574.348877 192.710663,572.384949 
	C193.082153,570.324463 194.299683,568.979919 196.396118,568.989807 
	C198.492050,568.999756 199.718536,570.430420 200.135025,572.403809 
	C200.684097,575.005432 201.068451,577.641296 201.561142,580.255371 
	C204.550247,596.114563 214.129730,605.082581 230.425995,607.506104 
M189.023788,620.529053 
	C191.447922,624.210938 193.872070,627.892822 196.609344,632.050354 
	C200.763031,623.108032 206.363373,616.090515 216.106598,611.970215 
	C206.699738,606.859436 200.534546,600.135986 196.463333,589.606995 
	C192.697647,600.262756 186.435547,607.014648 177.096207,611.723389 
	C181.998260,614.407288 185.688263,616.660645 189.023788,620.529053 
z"/>
<path fill="#000000" opacity="1.000000" stroke="none" 
	d="
M633.355591,698.336670 
	C653.277588,682.936340 670.444458,665.366882 684.867310,645.139282 
	C686.503052,642.845337 688.659546,640.739624 691.499084,642.694946 
	C694.491516,644.755676 693.512024,647.570740 691.679382,650.127380 
	C668.176636,682.916687 638.545349,708.771729 603.213684,728.123291 
	C590.195251,735.253723 576.699341,741.374146 562.655212,746.235291 
	C561.241028,746.724854 559.781677,747.086243 558.375610,747.596436 
	C555.653625,748.583862 553.159363,748.243835 552.131531,745.383972 
	C551.037048,742.338501 553.292480,740.715271 555.805542,739.865784 
	C563.393372,737.300720 570.684937,734.032166 578.033081,730.880798 
	C597.748657,722.425659 615.876648,711.290039 633.355591,698.336670 
z"/>
<path fill="#000000" opacity="1.000000" stroke="none" 
	d="
M600.027222,263.139221 
	C600.709595,260.671265 601.307434,258.594147 601.821411,256.496521 
	C602.365601,254.275757 603.114075,252.160629 605.889893,252.298233 
	C608.322510,252.418823 609.210266,254.176727 609.397583,256.402130 
	C609.438904,256.892487 609.654114,257.365570 609.734924,257.855560 
	C612.309265,273.467438 621.040771,283.336487 636.648743,286.908112 
	C638.927979,287.429688 641.279480,288.315399 641.241455,291.340210 
	C641.203369,294.367584 638.815735,294.991608 636.542236,295.649414 
	C635.585144,295.926300 634.613342,296.160675 633.637695,296.363892 
	C622.701599,298.641998 615.589233,305.113190 612.330627,315.798218 
	C611.360840,318.978302 610.453186,322.177307 609.504883,325.364014 
	C608.977295,327.137146 607.860535,328.234039 605.933472,328.284027 
	C603.763855,328.340363 602.549316,327.073700 601.971069,325.157715 
	C601.637268,324.051605 601.529663,322.875732 601.338684,321.728210 
	C598.893127,307.035400 589.719299,299.213287 575.612610,296.171967 
	C572.453430,295.490814 567.505005,296.215851 567.295959,291.530334 
	C567.066101,286.380005 572.312195,287.691376 575.300110,286.851776 
	C587.676453,283.373932 597.043945,276.936005 600.027222,263.139221 
M620.768372,293.342194 
	C621.825806,292.466431 623.717896,292.533295 623.965027,290.130829 
	C615.816711,286.514282 609.658447,280.492798 605.395264,271.298553 
	C601.176819,280.727600 594.740723,286.670532 585.629272,291.228180 
	C594.919556,295.355499 601.331360,301.068115 605.695190,310.027893 
	C609.530884,302.469635 613.572388,296.872131 620.768372,293.342194 
z"/>
<path fill="#000000" opacity="1.000000" stroke="none" 
	d="
M242.442093,690.374146 
	C245.314941,686.131775 246.448151,681.594177 247.528748,677.067505 
	C248.073456,674.785645 248.746368,672.777039 251.492050,672.776367 
	C254.255768,672.775696 255.038284,674.715454 255.327728,677.091187 
	C256.858765,689.658325 263.799286,697.293091 276.201233,699.993713 
	C278.574982,700.510620 280.895477,701.615601 280.778992,704.460266 
	C280.673218,707.043823 278.447601,707.959290 276.206909,708.300598 
	C263.706299,710.204834 257.543121,718.152161 255.416809,729.974609 
	C255.004593,732.266418 254.284012,734.348633 251.485504,734.229126 
	C248.770538,734.113159 248.039551,732.036865 247.713409,729.739197 
	C246.027039,717.859314 238.933685,711.154541 227.484467,708.617432 
	C224.863464,708.036621 221.858093,707.615845 221.900421,704.081055 
	C221.943085,700.520386 225.119354,700.337524 227.631287,699.636719 
	C233.359085,698.038818 238.542099,695.572937 242.442093,690.374146 
M245.180969,697.690125 
	C242.548569,699.802368 239.916183,701.914551 236.809387,704.407471 
	C243.522049,706.907898 247.283051,712.064697 251.644257,717.446533 
	C254.936951,711.285034 259.595978,707.204712 265.701508,704.004578 
	C259.595520,700.005432 254.368057,696.236572 251.514343,689.402222 
	C249.223618,692.478271 248.026840,695.293945 245.180969,697.690125 
z"/>
<path fill="#000000" opacity="1.000000" stroke="none" 
	d="
M622.187927,605.139404 
	C629.869934,600.427795 637.246338,595.914307 644.627869,591.409302 
	C647.036621,589.939209 649.758667,588.710449 651.646301,591.679749 
	C653.471497,594.550903 652.106506,597.075928 649.352844,598.836243 
	C625.514282,614.075256 601.026123,628.170166 575.635986,640.674927 
	C572.207947,642.363281 568.786560,644.068665 565.316528,645.667175 
	C562.612305,646.912842 559.591003,647.844421 558.050415,644.315247 
	C556.575623,640.936829 558.994263,639.235657 561.793152,637.881104 
	C582.316833,627.948059 602.386475,617.171082 622.187927,605.139404 
z"/>
<path fill="#000000" opacity="1.000000" stroke="none" 
	d="
M656.764404,377.153137 
	C654.833313,367.551727 649.076782,362.279541 640.067810,360.256866 
	C637.895508,359.769165 635.623779,359.096252 635.553650,356.380371 
	C635.481079,353.565918 637.818054,353.118927 639.968994,352.519867 
	C648.917786,350.027496 654.806824,344.592010 656.566528,335.166962 
	C657.015869,332.760437 657.212280,329.753510 660.553528,329.680267 
	C664.028076,329.604126 664.070129,332.595825 664.452576,335.051666 
	C665.936951,344.584015 671.769531,350.036407 680.799011,352.463715 
	C682.759155,352.990601 684.931335,353.314728 685.113953,355.856567 
	C685.318237,358.700073 683.012573,359.556335 680.916260,359.980988 
	C671.366943,361.915619 666.405762,368.131287 664.385071,377.214264 
	C663.902893,379.381866 663.433105,381.771759 660.749390,381.931091 
	C657.945923,382.097534 657.439941,379.647278 656.764404,377.153137 
M658.572876,364.543427 
	C659.171204,365.278442 659.769531,366.013489 660.635437,367.077209 
	C663.548096,362.443604 667.063599,358.863190 672.059265,355.859711 
	C666.601013,353.063782 663.425049,349.123413 660.201294,344.275757 
	C657.390198,349.809235 653.539856,353.253174 648.746948,356.111786 
	C652.677490,358.382172 655.974243,360.583130 658.572876,364.543427 
z"/>
<path fill="#000000" opacity="1.000000" stroke="none" 
	d="
M254.350174,437.632446 
	C239.052094,418.432281 246.665298,394.582855 269.737305,388.391174 
	C285.645630,384.122009 304.086792,394.541046 306.962677,410.114868 
	C310.584167,429.726379 298.661316,443.114349 282.603882,446.343048 
	C271.782837,448.518799 262.688904,444.837402 254.350174,437.632446 
M293.484314,411.950287 
	C293.880737,411.228333 294.367920,410.541016 294.658691,409.778748 
	C296.343109,405.362976 294.592651,401.978027 291.138977,399.385406 
	C287.174744,396.409424 282.369965,396.698456 278.836914,399.999756 
	C275.610840,403.014343 274.568115,406.548370 276.606079,410.753326 
	C279.822357,417.389526 286.462616,418.124329 293.484314,411.950287 
M283.566620,428.645355 
	C286.185150,428.503998 287.584534,427.063782 287.356049,424.506012 
	C287.218719,422.968262 286.110809,421.803345 284.472473,421.470642 
	C282.780060,421.126984 281.471832,421.932465 280.776733,423.351288 
	C279.614197,425.724274 280.438354,427.496826 283.566620,428.645355 
z"/>
<path fill="#000000" opacity="1.000000" stroke="none" 
	d="
M458.355194,412.811218 
	C459.639832,429.854675 449.934723,443.233795 434.408020,446.275604 
	C418.999023,449.294342 403.283417,440.500244 398.897247,426.404510 
	C393.988892,410.630707 401.642548,395.071075 416.977020,389.648926 
	C433.526550,383.797119 450.696381,391.140930 456.653625,406.668030 
	C457.364166,408.519958 457.775665,410.486603 458.355194,412.811218 
M410.426056,404.190796 
	C409.828247,412.403076 415.019318,417.949127 421.823029,416.367249 
	C426.390289,415.305328 429.765869,411.272491 429.642792,406.711029 
	C429.514648,401.960663 426.648071,399.056702 422.439148,397.608826 
	C417.915131,396.052429 413.682404,398.315918 410.426056,404.190796 
M436.699768,427.292206 
	C438.272247,425.070282 437.670563,423.196655 435.545959,421.876129 
	C434.058441,420.951569 432.324097,420.959290 431.038757,422.358063 
	C429.794098,423.712494 429.741486,425.468658 430.677124,426.928802 
	C432.089355,429.132690 434.095123,429.177826 436.699768,427.292206 
z"/>
<path fill="#000000" opacity="1.000000" stroke="none" 
	d="
M462.113525,284.145630 
	C457.333893,288.068634 452.804535,291.733887 447.759369,294.693848 
	C444.875031,296.386078 441.873566,297.869324 438.523804,298.289246 
	C432.691162,299.020355 430.401886,296.600281 431.514282,290.788086 
	C432.843933,283.840485 436.039673,277.595032 439.256226,271.386108 
	C444.957672,260.380585 451.880676,250.258270 460.858887,241.615829 
	C465.387421,237.256683 470.513824,234.018982 476.672241,232.522461 
	C485.485016,230.380951 491.147217,235.610352 489.845978,244.498001 
	C488.588135,253.089447 483.968567,260.014282 478.914001,266.624359 
	C474.062561,272.968781 468.622070,278.849945 462.113525,284.145630 
z"/>
<path fill="#000000" opacity="1.000000" stroke="none" 
	d="
M250.650299,248.392303 
	C259.750580,259.816162 267.140411,271.827332 271.917664,285.316467 
	C273.358795,289.385620 275.360596,294.226807 271.805634,297.517303 
	C268.044769,300.998352 263.344604,298.054230 259.779877,295.970581 
	C242.512436,285.877563 228.252289,272.585846 218.560699,254.882751 
	C216.253067,250.667526 214.821335,246.009048 215.407547,240.976562 
	C216.213623,234.056580 220.610825,230.768524 227.518127,232.091293 
	C231.511169,232.855942 235.095230,234.571518 238.401794,236.897156 
	C242.927597,240.080353 246.858444,243.903534 250.650299,248.392303 
z"/>
<path fill="#000000" opacity="1.000000" stroke="none" 
	d="
M368.729919,568.772583 
	C376.525818,567.998657 383.025024,565.414917 388.219452,559.948669 
	C390.075287,557.995667 392.412689,556.779297 394.893158,558.433411 
	C397.702698,560.307007 396.838074,563.137512 395.796265,565.648804 
	C394.619690,568.484924 392.537384,570.691406 390.002167,572.367065 
	C372.474548,583.951660 348.600983,579.693970 335.722839,567.794312 
	C325.428802,558.282410 325.643341,541.369934 336.119781,530.409790 
	C348.725677,517.221863 364.903229,513.106018 382.588013,514.220947 
	C388.362640,514.585022 394.152557,515.632507 399.567078,517.985718 
	C401.837189,518.972351 404.890900,519.747437 404.007019,522.976807 
	C403.015228,526.600342 399.651642,525.553955 397.261749,524.925781 
	C388.285400,522.566162 379.244995,521.727051 370.093842,523.325256 
	C358.273193,525.389648 347.627167,529.722839 340.989777,540.501221 
	C335.371765,549.624268 338.842194,559.638550 348.722260,563.302307 
	C351.282654,561.778625 350.560028,558.483887 352.239777,556.455750 
	C353.464508,554.977112 354.760895,553.599487 356.856079,554.513367 
	C358.574341,555.262817 359.114929,556.769836 358.896301,558.638977 
	C357.733643,568.579956 357.892578,568.737976 368.729919,568.772583 
z"/>
<path fill="#000000" opacity="1.000000" stroke="none" 
	d="
M223.634216,456.897278 
	C222.163300,451.170105 223.392578,447.616028 227.993027,445.268585 
	C236.349762,441.004272 244.918198,440.823761 253.394180,444.986694 
	C256.884247,446.700836 259.102081,449.559509 259.288147,453.599243 
	C259.483124,457.832214 256.894379,460.326202 253.515503,462.177490 
	C243.994583,467.394073 230.936279,465.212311 223.634216,456.897278 
z"/>
<path fill="#000000" opacity="1.000000" stroke="none" 
	d="
M477.070770,461.265900 
	C468.739044,465.418823 460.594788,466.161682 452.332184,462.373077 
	C448.709625,460.712097 445.805237,458.327362 445.728271,453.865784 
	C445.647919,449.204315 448.554871,446.609924 452.331268,444.801575 
	C459.759491,441.244476 467.350098,440.962250 474.932861,444.260193 
	C483.623016,448.039764 484.612488,455.037903 477.070770,461.265900 
z"/>
<path fill="#000000" opacity="1.000000" stroke="none" 
	d="
M368.933289,446.208679 
	C371.435150,445.302856 372.817352,443.643250 374.207184,441.966553 
	C375.324493,440.618652 376.715729,439.563446 378.530273,440.407562 
	C380.591736,441.366516 380.608673,443.406860 380.195801,445.188141 
	C379.225403,449.374695 376.430634,452.166931 372.575256,453.837128 
	C366.996429,456.253937 361.398224,455.799683 356.266174,452.808289 
	C353.634369,451.274200 351.851349,451.127808 349.188324,452.792114 
	C344.102295,455.970764 338.465607,456.200256 332.883942,453.965027 
	C329.368103,452.557037 326.629791,450.196167 325.301270,446.480591 
	C324.524994,444.309692 324.205170,442.081329 326.331360,440.601440 
	C328.742035,438.923645 330.443756,440.640625 331.716797,442.468811 
	C334.075500,445.856171 337.346802,447.024353 341.249084,446.673767 
	C346.630096,446.190338 349.444031,442.168152 348.069305,436.905823 
	C347.456818,434.561249 346.842987,432.252502 349.017853,430.470154 
	C350.888214,428.937317 353.123596,429.160004 355.163513,430.097351 
	C357.872589,431.342224 357.475220,433.838135 357.229828,436.177216 
	C356.378693,444.290375 359.954376,447.504211 368.933289,446.208679 
z"/>
</svg>