<svg version="1.1" id="Layer_1" xmlns="http://www.w3.org/2000/svg" xmlns:xlink="http://www.w3.org/1999/xlink" x="0px" y="0px"
	 width="100%" viewBox="0 0 1024 1024" enable-background="new 0 0 1024 1024" xml:space="preserve">
<path fill="#000000" opacity="1.000000" stroke="none" 
	d="
M252.912842,431.515198 
	C253.463745,428.562927 255.350647,426.868042 257.267761,424.916351 
	C251.319107,420.803162 246.160522,416.424377 242.684067,410.347260 
	C237.703598,401.640991 238.868011,397.516754 247.588196,392.755798 
	C250.793457,391.005829 253.984329,389.099060 256.801666,386.798401 
	C261.488342,382.971039 265.284058,378.632965 265.588837,371.909149 
	C266.457520,352.745361 273.025269,335.153229 281.436676,318.199554 
	C283.051331,314.945099 282.747528,312.762573 281.055634,309.640045 
	C267.586487,284.781799 262.383026,258.214600 265.422821,230.075897 
	C266.984650,215.618484 269.723816,201.445251 275.931152,188.154114 
	C277.338623,185.140488 278.722076,182.088654 280.445007,179.254013 
	C288.565826,165.893356 299.598694,161.073181 315.063507,163.080536 
	C342.654602,166.661835 367.673187,177.113083 391.490143,190.915359 
	C400.290985,196.015579 408.834717,201.543182 416.302277,208.513779 
	C418.020569,210.117722 419.314209,209.844269 421.164276,209.057816 
	C429.664185,205.444672 438.492706,203.130875 447.786713,202.999832 
	C450.025909,202.968246 451.432617,201.684891 452.945038,200.341492 
	C461.364685,192.862717 471.042328,187.939499 482.234619,186.218979 
	C490.366791,184.968872 494.954315,187.574951 498.011719,195.239395 
	C501.496643,195.149292 504.571472,193.373581 507.817200,192.303192 
	C517.287292,189.180038 526.881592,187.338104 536.789795,189.726212 
	C547.304199,192.260406 550.490173,198.390167 546.908203,208.715637 
	C546.583679,209.651443 546.151550,210.549942 545.645386,211.763000 
	C550.491821,213.645126 554.170349,213.675751 558.645203,209.920349 
	C588.383606,184.963333 622.573792,169.286484 660.898438,163.045334 
	C678.970886,160.102249 690.227417,166.202499 698.248596,184.351639 
	C715.946228,224.395081 716.392212,264.629089 697.455261,304.581512 
	C697.241272,305.032898 697.056702,305.513367 696.763000,305.909546 
	C692.833984,311.210388 693.508606,316.052521 696.498108,321.950653 
	C704.917603,338.561646 709.793274,356.348572 711.286316,374.973236 
	C711.442932,376.926086 712.083923,378.430206 713.325378,379.890533 
	C718.254028,385.688171 723.979126,390.373383 731.031982,393.409668 
	C736.915405,395.942535 738.491699,399.713745 736.402832,405.852539 
	C734.358887,411.859131 730.579468,416.653381 725.751343,420.668457 
	C724.105957,422.036774 722.401672,423.334412 720.387085,424.931610 
	C724.212708,428.526703 724.890259,432.853668 724.289001,437.446808 
	C723.905029,440.380798 725.353516,441.541382 727.898376,442.415680 
	C739.916016,446.544373 739.898010,446.596741 744.461792,434.645844 
	C757.677734,400.037415 797.010010,384.747284 829.241455,402.167816 
	C841.459778,408.771606 850.894348,418.393799 853.403748,432.902740 
	C856.245850,449.335358 847.487915,464.180298 831.685974,470.071259 
	C826.353577,472.059235 820.837158,473.287933 815.105042,473.327545 
	C811.382751,473.353271 807.903992,474.134155 804.649353,476.537628 
	C810.967468,489.094788 807.638794,502.071472 806.753174,514.884094 
	C806.346985,520.760620 806.295776,521.039917 812.003235,520.259888 
	C846.714050,515.516235 882.419006,539.081421 891.381531,572.741821 
	C899.097778,601.721680 890.697021,627.053772 872.946960,649.817627 
	C851.022644,677.934570 821.338623,694.328064 787.783875,704.527588 
	C785.760437,705.142639 783.767700,705.858643 781.044373,706.766418 
	C794.587830,711.783264 806.614990,717.956421 817.073364,726.970520 
	C834.976746,742.401306 835.781433,763.451477 818.980652,780.081543 
	C805.472900,793.451904 788.432190,800.635559 771.129822,807.286499 
	C754.329407,813.744568 737.102539,818.842285 719.508240,822.674500 
	C716.894287,823.243835 714.539124,824.327454 712.191528,825.687012 
	C695.286743,835.477112 676.783630,840.941833 657.903564,845.271118 
	C630.598938,851.532349 602.912781,855.031677 575.016785,857.571472 
	C534.083130,861.298279 493.180359,861.503784 452.287201,858.073853 
	C417.617554,855.165955 383.084351,851.010010 349.496735,841.286621 
	C335.068573,837.109802 321.295135,831.509094 307.819244,824.721008 
	C299.831299,820.697327 290.293121,819.805298 281.515106,817.285217 
	C260.191101,811.163269 239.157166,804.270630 220.017136,792.684875 
	C210.537750,786.946838 201.590408,780.561035 196.009338,770.614136 
	C188.626724,757.456421 190.245346,743.526794 200.313965,732.283020 
	C210.692612,720.693054 224.047668,713.632385 238.049377,707.584229 
	C251.200241,701.903625 264.845367,697.617737 279.278656,693.451294 
	C277.044037,690.451538 275.145752,687.792969 273.135437,685.222046 
	C257.076477,664.684998 245.459106,641.773499 236.335175,617.442139 
	C224.722855,586.474854 218.951584,554.304993 216.019363,521.536621 
	C215.204163,512.426514 215.419113,503.222137 214.548538,494.119598 
	C213.091812,478.888855 220.747345,468.859009 232.435120,460.828217 
	C239.202148,456.178528 246.516434,452.568207 254.112762,449.557800 
	C257.683014,448.142914 258.224945,446.461945 256.169830,443.221558 
	C254.025238,439.840149 252.494019,436.108582 252.912842,431.515198 
M343.666046,250.851700 
	C349.203247,247.549713 354.740448,244.247711 360.264801,240.953384 
	C359.930634,240.068634 359.859100,239.535782 359.569672,239.180283 
	C358.835480,238.278458 358.039246,237.419556 357.205566,236.607452 
	C344.771698,224.495865 330.055817,216.348694 313.468140,211.455185 
	C312.033051,211.031815 310.553986,210.679443 309.207153,210.053528 
	C307.223053,209.131439 306.042694,207.471512 306.439423,205.236847 
	C306.839996,202.980331 308.542847,201.861145 310.740204,201.774918 
	C312.215607,201.717010 313.758820,201.841003 315.181641,202.220871 
	C336.626862,207.946442 354.949127,219.064804 370.461456,234.801666 
	C376.189301,240.612457 375.353638,243.389206 367.684204,246.644699 
	C366.768372,247.033447 365.912933,247.568542 365.041718,248.057449 
	C343.575439,260.103882 324.918701,275.478394 309.918945,295.072845 
	C291.176483,319.556549 279.113007,346.755524 277.122955,377.876923 
	C276.859863,381.990997 275.076416,385.066986 272.520752,388.073944 
	C267.045746,394.515717 259.909149,398.768524 252.984680,402.961945 
	C252.992966,405.619843 254.625961,406.954071 255.913986,408.413269 
	C261.228668,414.434631 267.812683,418.496338 275.467041,420.881714 
	C277.374390,421.476105 279.562927,422.044525 279.776337,424.471069 
	C280.000183,427.016937 278.141754,428.369720 276.073914,429.253143 
	C273.937469,430.165802 271.734161,430.944824 269.514160,431.634277 
	C265.646271,432.835541 264.524200,434.735443 266.810242,438.567230 
	C273.049164,449.024689 281.688416,456.362732 293.388153,459.944458 
	C295.524506,460.598450 297.955017,461.202728 297.874512,463.862000 
	C297.771606,467.261688 299.947601,469.004669 302.054596,470.815186 
	C314.032318,481.107391 328.323639,487.002289 342.942993,492.314819 
	C346.460205,493.592957 349.289368,493.346375 352.831879,491.747742 
	C378.372711,480.222107 403.432495,480.231293 427.467682,496.021942 
	C435.634064,501.387054 440.844818,509.245148 444.859283,517.852966 
	C449.043365,516.573059 449.028381,516.661072 452.951599,517.329773 
	C471.905273,520.560364 490.948212,521.514099 510.163452,520.203186 
	C522.465576,519.363953 534.729980,518.528625 546.815552,515.954468 
	C548.616638,515.570862 550.242249,515.959534 550.949890,517.823120 
	C551.692505,519.778687 550.434265,520.992859 548.893616,521.844055 
	C547.883423,522.402222 546.772522,522.833435 545.656494,523.136536 
	C519.986694,530.108643 494.007965,532.544800 467.559723,528.596619 
	C460.559082,527.551575 453.730927,525.693787 446.353912,523.972900 
	C446.671753,531.511719 446.143799,538.392029 443.401093,545.539978 
	C512.351990,547.936157 580.332825,547.673523 648.360046,539.647766 
	C647.596191,536.750183 646.160828,535.772644 645.069275,534.546143 
	C636.452881,524.864624 625.195435,519.055359 613.967041,513.138855 
	C609.108032,510.578552 604.531738,508.964630 598.879761,510.844727 
	C595.505127,511.967316 591.628662,511.795593 587.977295,511.800079 
	C585.332764,511.803345 582.145325,511.455475 581.927307,507.957886 
	C581.700134,504.312897 584.864075,504.034973 587.530029,503.690369 
	C597.937744,502.344910 608.246094,500.486908 618.358948,497.660187 
	C637.506287,492.308136 656.359497,486.253235 672.597595,474.179932 
	C675.961365,471.678925 679.500732,469.037384 680.962280,465.101624 
	C682.246521,461.643555 684.531067,460.298553 687.577332,459.065796 
	C697.404968,455.088867 705.470947,448.848877 711.190796,439.800415 
	C714.499878,434.565704 714.225403,433.758057 708.617310,431.507446 
	C706.147278,430.516174 703.563171,429.725006 701.249695,428.446869 
	C697.430847,426.336945 697.524475,423.495850 701.405823,421.473419 
	C704.799133,419.705231 708.460815,418.414154 711.731079,416.456451 
	C717.141235,413.217651 722.084473,409.389893 724.351807,403.039368 
	C721.439880,401.352203 718.722229,400.039948 716.291016,398.322296 
	C707.114807,391.839264 697.535522,385.538971 699.542297,371.929657 
	C699.565430,371.772339 699.493652,371.601685 699.470215,371.436707 
	C695.414673,342.927155 684.265137,317.448822 666.649780,294.747192 
	C650.987610,274.562683 631.839600,258.507141 609.099243,246.874115 
	C602.260925,243.375900 601.368408,241.009293 606.397644,235.351593 
	C620.178223,219.848953 637.814636,210.404327 657.007629,203.488098 
	C659.340271,202.647552 661.813782,202.069839 664.271606,201.741882 
	C666.586548,201.432953 668.683411,202.255295 669.279846,204.820969 
	C669.831055,207.192413 668.960938,209.102692 666.622559,210.117599 
	C665.556152,210.580414 664.458557,210.996521 663.340637,211.311417 
	C654.779114,213.723053 646.795532,217.469604 639.206116,222.025238 
	C630.653015,227.159332 622.712280,233.092972 615.813232,241.008087 
	C643.940247,256.131165 666.029297,277.344971 684.007568,304.048004 
	C687.285889,299.057770 689.243408,294.352051 691.064880,289.590271 
	C698.709900,269.603851 701.063293,248.900070 698.502625,227.755005 
	C696.712830,212.975037 692.543091,198.771469 685.639282,185.462204 
	C681.645142,177.762405 675.660706,173.521286 666.736633,174.388458 
	C663.099548,174.741867 659.452332,175.222778 655.880371,175.979218 
	C629.507141,181.564316 605.217224,192.227539 582.505188,206.570236 
	C576.525452,210.346466 570.587036,214.299896 565.663147,219.448334 
	C569.172180,223.748199 569.573303,224.631683 568.654297,226.277328 
	C567.583069,228.195450 565.881653,228.486237 563.917053,227.904541 
	C550.494995,223.930298 537.007446,221.724335 523.204346,226.129761 
	C521.711670,226.606171 520.181702,226.176682 519.367920,224.569580 
	C518.424072,222.705414 519.313293,221.302994 520.751587,220.263916 
	C523.720520,218.119125 526.832153,216.170135 529.779358,213.997223 
	C533.759155,211.063110 535.640503,206.989395 536.172485,201.935547 
	C532.480408,200.731720 528.997559,200.856552 525.554688,201.070633 
	C507.583893,202.187958 492.769653,210.193207 479.790924,222.176987 
	C478.506134,223.363312 477.229980,225.376160 475.164154,224.049438 
	C472.827667,222.548935 473.677063,220.245514 474.510162,218.209061 
	C476.111023,214.295761 478.997559,211.224869 481.414703,207.841827 
	C483.572388,204.821976 485.920410,201.830597 485.992401,197.924881 
	C484.312714,197.110962 483.050201,197.672729 481.769897,197.976273 
	C469.106903,200.978546 459.758362,208.560394 452.424164,219.025864 
	C450.899139,221.201965 449.921143,224.982697 446.359314,223.886612 
	C442.355011,222.654343 444.902832,219.115158 444.769531,216.539536 
	C444.754272,216.244644 444.514679,215.961349 444.348145,215.606720 
	C442.387146,215.047943 440.468750,215.489227 438.506378,215.886841 
	C430.720337,217.464447 423.755402,220.905151 416.931396,224.844788 
	C412.761566,227.252121 410.534882,226.196136 410.572388,221.917740 
	C410.596344,219.188217 408.990356,218.052246 407.439545,216.652969 
	C401.346222,211.155121 394.466736,206.772415 387.403229,202.650787 
	C364.218689,189.122360 339.962982,178.492432 313.112305,174.639664 
	C302.372955,173.098694 295.721436,175.962463 290.576385,185.219284 
	C288.803528,188.408951 287.253845,191.766144 285.995331,195.191254 
	C276.413696,221.267899 273.455505,247.860794 280.327698,275.094818 
	C282.883453,285.223022 286.195862,295.094543 291.931335,304.653198 
	C293.205841,302.996857 294.148773,301.890503 294.961731,300.695648 
	C300.406830,292.692871 306.506714,285.252625 313.085968,278.130219 
	C322.278687,268.178589 332.865295,259.833221 342.998657,251.000671 
	C342.998657,251.000671 342.977203,251.020462 343.666046,250.851700 
M575.259338,771.638672 
	C594.383057,768.524475 612.932373,763.248169 631.110657,756.636902 
	C675.567200,740.468201 713.010620,714.604309 741.314453,676.307312 
	C762.728149,647.333191 775.975464,614.630859 784.737549,579.925903 
	C787.291992,569.808167 789.184509,559.583191 790.601196,549.317932 
	C789.843384,549.085083 789.474976,548.830872 789.251953,548.924194 
	C784.802490,550.785950 780.402344,552.768433 775.928589,554.568665 
	C742.765198,567.913696 707.860901,574.141418 672.738159,579.088013 
	C635.141174,584.382996 597.243652,587.062256 559.323608,587.931763 
	C513.042297,588.992981 466.749023,588.977539 420.475708,585.678406 
	C392.741516,583.701050 365.091217,581.430542 337.602295,577.300537 
	C312.734253,573.564270 288.070160,568.861633 264.075775,561.150024 
	C253.044312,557.604675 242.163818,553.650574 231.463806,547.775208 
	C231.463806,549.359375 231.350220,550.187256 231.480133,550.974976 
	C237.376007,586.725159 247.842255,620.968811 265.879669,652.569702 
	C292.742401,699.632202 332.068817,732.491089 381.946564,752.933960 
	C412.032043,765.264771 443.340546,772.610779 475.813538,775.164978 
	C508.827179,777.761719 541.681824,777.212646 575.259338,771.638672 
M407.119507,827.199341 
	C424.177887,828.924805 441.275452,830.095764 458.387329,831.172668 
	C486.006134,832.911011 513.656189,833.443176 541.280640,832.426575 
	C584.710693,830.828369 627.975464,827.092163 670.850769,819.660156 
	C703.835815,813.942566 736.622681,807.352600 768.010681,795.328369 
	C782.648621,789.720703 797.000732,783.413757 809.034058,772.956543 
	C822.191895,761.522095 822.193237,747.577454 809.055542,736.239868 
	C808.299072,735.587036 807.521057,734.958679 806.743164,734.331116 
	C793.666992,723.782104 778.304260,717.870056 762.643677,712.546143 
	C759.247986,711.391663 755.921509,711.301331 752.347412,711.854004 
	C745.288269,712.945618 738.215515,714.582153 731.050842,714.195801 
	C725.624878,713.903137 721.494507,715.677979 717.633179,719.287598 
	C698.689148,736.997131 676.701050,750.052673 653.248291,760.765869 
	C650.131958,762.189331 648.078186,763.964111 647.018372,767.274475 
	C644.412781,775.413330 638.809326,781.285217 631.893616,785.940735 
	C626.044495,789.878174 619.463196,792.333496 612.780640,794.429688 
	C584.736938,803.226624 555.765320,805.910889 526.613403,807.132019 
	C501.105591,808.200562 475.672302,806.747253 450.414490,803.191223 
	C432.121155,800.615784 413.969940,797.156921 396.968048,789.375488 
	C387.341461,784.969604 379.691254,778.530579 376.101990,768.348755 
	C374.686493,764.333374 372.382782,762.030518 368.617676,760.394836 
	C339.368896,747.687683 313.687836,729.830383 291.833191,706.575378 
	C289.796143,704.407837 287.856934,704.177612 285.166809,704.804321 
	C269.062683,708.556030 253.449356,713.817078 238.415039,720.617188 
	C227.629105,725.495789 217.284271,731.236023 209.304916,740.416077 
	C201.801712,749.048279 201.343658,758.074585 208.258011,767.151306 
	C210.795700,770.482544 213.762283,773.393677 217.114120,775.910583 
	C231.155151,786.453796 247.132385,793.171692 263.585938,798.665771 
	C309.916168,814.136108 357.875916,821.615967 407.119507,827.199341 
M656.076233,570.554565 
	C683.026245,567.365540 709.810303,563.225647 736.181580,556.685608 
	C754.497803,552.143250 772.379456,546.445984 788.878479,537.045593 
	C790.289856,536.241455 792.184509,535.700256 792.527954,533.864807 
	C794.037048,525.799805 795.101257,517.690674 794.676575,508.530609 
	C785.682678,515.525818 776.786438,520.617432 767.132324,524.391418 
	C747.869324,531.921753 728.150696,537.851318 707.849365,541.872375 
	C678.288208,547.727661 648.500854,551.904236 618.468994,554.391052 
	C599.216553,555.985229 579.941895,556.933105 560.629150,557.559326 
	C520.825562,558.849976 481.050293,558.938232 441.291504,556.478577 
	C437.683014,556.255310 434.585358,556.646912 431.495148,558.973328 
	C426.671967,562.604492 421.054199,565.536194 415.105713,565.932495 
	C405.706238,566.558960 397.905029,572.867188 388.325958,572.208557 
	C390.579132,572.672058 392.752655,572.664429 394.899780,572.898743 
	C422.391571,575.898865 450.021851,576.582031 477.620880,577.496826 
	C496.427490,578.120178 515.270508,577.567200 534.095703,577.726929 
	C554.925903,577.903687 575.691895,576.378906 596.463501,575.320251 
	C616.063538,574.321289 635.608398,572.239380 656.076233,570.554565 
M784.223267,481.888489 
	C789.194031,471.732544 797.034729,464.933594 808.054077,462.242706 
	C812.059082,461.264648 816.304077,461.312103 820.411316,460.701324 
	C828.336853,459.522736 835.096741,456.171997 839.334229,449.106964 
	C844.557434,440.398590 842.474731,429.958282 834.059265,420.952728 
	C816.240540,401.884613 782.722534,402.896484 765.400208,422.908722 
	C756.855713,432.780060 752.857361,444.738861 749.288757,456.904419 
	C741.102722,484.811249 725.099243,506.696564 699.681702,521.237671 
	C689.568420,527.023438 679.222351,532.412354 668.224121,536.483398 
	C677.632202,535.246582 687.012329,534.030884 696.288025,532.266235 
	C705.587952,530.496887 714.802124,528.258545 724.020935,526.085754 
	C740.251282,522.260376 756.112061,517.355042 771.144714,509.973267 
	C774.507507,508.321960 776.617126,506.359131 777.370728,502.408142 
	C778.677917,495.555145 780.523438,488.782257 784.223267,481.888489 
M853.579041,541.922180 
	C839.520325,533.244507 824.362793,530.348145 808.081482,533.185242 
	C806.098145,533.530884 804.656677,534.018127 804.368103,536.382385 
	C803.508728,543.422485 802.499756,550.444275 801.526123,557.644714 
	C806.331848,557.245605 810.761841,556.861084 815.194580,556.512390 
	C839.158325,554.626892 858.609314,575.896973 854.879395,599.673645 
	C852.452698,615.142395 843.855347,627.095398 833.063049,637.497009 
	C813.477844,656.373291 789.767578,667.596741 763.313232,673.307861 
	C760.916870,673.825256 758.017761,673.632446 756.391602,675.721069 
	C749.918884,684.034241 743.645508,692.502625 737.055115,701.235718 
	C766.689270,699.780334 794.089294,692.244934 819.630554,678.363403 
	C844.810669,664.678101 865.465942,646.609436 876.794739,619.264709 
	C888.859802,590.142822 879.905579,558.736389 853.579041,541.922180 
M434.145905,538.459534 
	C438.224030,525.786133 434.434845,513.864563 423.223877,505.344025 
	C408.716583,494.318237 392.373810,491.216309 374.611237,494.650574 
	C362.734344,496.946869 352.013458,501.553772 343.462585,510.324188 
	C331.028656,523.077454 333.548889,541.983704 348.756439,550.611511 
	C351.611481,552.231262 354.608765,553.670227 358.141571,552.731140 
	C359.161469,549.535583 358.234589,546.202209 359.759552,543.292603 
	C360.749573,541.403625 362.058502,539.791321 364.334106,540.119690 
	C366.724365,540.464661 367.410553,542.369812 367.332886,544.600037 
	C367.303925,545.431458 367.329224,546.265381 367.348877,547.097717 
	C367.549652,555.609741 371.570160,559.938110 380.084961,560.671387 
	C382.567871,560.885193 385.075867,560.954407 387.567657,560.894653 
	C400.735809,560.578918 403.629974,557.845825 404.672272,544.887573 
	C404.698944,544.555969 404.691193,544.221802 404.706909,543.889160 
	C404.809692,541.717529 406.066467,540.465759 408.096680,540.218140 
	C410.441681,539.932129 411.918335,541.193237 412.326904,543.485901 
	C412.705780,545.611572 413.090698,547.767944 413.125641,549.916382 
	C413.190460,553.906433 415.247650,554.399048 418.367249,553.155884 
	C425.245758,550.414917 430.961029,546.356140 434.145905,538.459534 
M784.460999,620.849182 
	C779.539734,634.298279 773.395081,647.215210 766.026123,660.788818 
	C787.351196,654.729370 805.663940,645.995300 821.237976,632.110718 
	C829.877808,624.408142 837.307861,615.794922 841.118286,604.508728 
	C846.455078,588.701721 840.048828,574.179382 825.524353,569.814148 
	C817.965759,567.542480 810.463440,567.844788 802.969604,570.343628 
	C800.168213,571.277832 798.714966,572.708679 798.062317,575.791321 
	C794.856812,590.930725 790.705200,605.812134 784.460999,620.849182 
M357.502533,565.293274 
	C345.729584,563.272888 336.375885,557.405945 329.809845,547.419312 
	C328.375916,545.238342 326.668396,544.149780 324.294586,543.688049 
	C320.378204,542.926270 316.445587,542.235291 312.553101,541.365356 
	C283.739471,534.924927 255.138367,527.898560 230.246872,510.864105 
	C229.586014,510.411804 228.901413,509.843597 227.397964,510.416656 
	C226.967819,517.141296 228.360825,523.958313 228.964325,530.824951 
	C229.225967,533.801819 230.514069,535.533691 233.138107,536.980042 
	C243.238861,542.547913 253.761978,547.061218 264.748962,550.539429 
	C292.596497,559.355286 321.208618,564.577515 350.074432,568.515564 
	C356.901947,569.446960 363.735077,571.052673 370.766113,570.168152 
	C366.504578,568.741699 363.222137,564.949341 357.502533,565.293274 
M264.551331,515.852844 
	C282.428864,522.955200 301.116821,527.065735 319.861786,531.028992 
	C323.887939,531.880249 324.613403,530.531006 324.905182,526.881958 
	C325.471344,519.802002 327.920410,513.295532 332.336884,507.584076 
	C333.701447,505.819366 335.777771,504.431091 336.067474,501.650116 
	C325.098877,497.908630 314.735779,493.002380 304.833649,487.125824 
	C303.289124,486.209167 301.663300,486.317078 299.987579,486.628967 
	C293.918823,487.758514 287.922638,489.190735 282.156342,491.404236 
	C271.478577,495.503082 262.858185,502.177338 256.462372,511.715820 
	C258.636444,514.326111 261.486176,514.465881 264.551331,515.852844 
M500.509033,796.825867 
	C527.852173,797.127808 555.132324,796.240784 582.142822,791.588379 
	C596.760132,789.070557 611.257141,785.939758 624.441101,778.652832 
	C628.164124,776.595032 631.403137,774.001343 633.429199,769.907959 
	C551.503235,795.706848 469.914612,795.950928 388.019318,768.640259 
	C389.781311,772.658630 392.425110,775.093872 395.515991,777.143494 
	C401.412781,781.053833 407.967285,783.524841 414.656830,785.579529 
	C442.305084,794.071716 470.855438,795.877197 500.509033,796.825867 
M659.864014,526.104370 
	C679.725647,519.114258 698.641479,510.485504 714.125793,495.095062 
	C713.238525,494.532501 712.734375,494.153870 712.181274,493.870850 
	C702.269104,488.798706 691.084595,488.101196 680.673218,484.737152 
	C679.426941,484.334473 678.490723,485.316162 677.506592,485.895508 
	C662.842407,494.527161 647.687500,502.040771 631.117188,506.355438 
	C630.212769,506.590973 629.372803,507.074341 627.716858,507.774841 
	C637.710632,512.908203 646.142639,519.018127 653.716553,526.276672 
	C655.560425,528.043762 657.343933,527.327942 659.864014,526.104370 
M228.956573,491.504639 
	C231.665558,498.524353 237.791550,502.068024 243.618515,505.914917 
	C245.837662,507.380005 246.899582,505.916870 247.951050,504.249023 
	C255.410370,492.417053 266.611359,485.620483 279.355255,480.856171 
	C282.721954,479.597504 286.333008,478.784058 289.499664,476.129456 
	C287.959015,473.603760 286.483887,471.170685 283.860596,469.910492 
	C278.102417,467.144196 273.040588,463.423035 268.337341,459.163086 
	C267.170319,458.106079 266.095276,457.492096 264.349335,458.190277 
	C253.355667,462.586304 242.501221,467.269775 233.724274,475.489655 
	C229.380615,479.557526 225.821945,484.223389 228.956573,491.504639 
M388.193085,837.474609 
	C383.751740,836.805420 379.306030,836.164001 374.870361,835.459106 
	C370.655457,834.789307 366.451111,834.052979 362.242126,833.345886 
	C461.766449,853.971436 561.337463,854.463074 660.889526,833.642395 
	C660.131348,833.389038 659.350037,833.269897 658.616272,833.406433 
	C640.782898,836.724060 622.866333,839.108765 604.759766,840.707458 
	C577.389282,843.124023 549.996155,844.551697 522.556458,845.150208 
	C493.409698,845.786133 464.297150,844.419312 435.242706,842.155396 
	C419.826813,840.954102 404.456940,839.162781 388.193085,837.474609 
M700.692810,478.658936 
	C707.096802,479.863708 713.116089,482.281281 719.150208,484.618561 
	C721.227356,485.423096 722.830872,485.748688 724.244446,483.492493 
	C729.270691,475.470154 733.516296,467.107666 736.371521,457.825531 
	C731.418579,455.325928 726.379211,454.287750 721.466553,452.833954 
	C718.354248,451.912872 716.113098,452.595245 713.921204,454.947235 
	C708.088989,461.205414 701.292053,466.213409 693.507385,469.821381 
	C691.085754,470.943756 689.788025,472.828613 689.095947,475.728912 
	C692.854309,476.707123 696.367065,477.621399 700.692810,478.658936 
z"/>
<path fill="#000000" opacity="1.000000" stroke="none" 
	d="
M824.181030,309.045746 
	C813.909241,322.576233 799.521790,328.340454 784.107117,332.187164 
	C779.444397,333.350739 774.599609,333.765778 769.887390,334.757324 
	C767.088135,335.346375 764.790710,334.679077 763.250244,332.469116 
	C753.314880,318.215149 743.587952,303.766663 742.103821,285.768646 
	C741.349365,276.619507 743.700317,268.072388 750.978699,261.880981 
	C762.905762,251.735016 779.864136,255.428619 787.901428,269.653961 
	C788.705261,271.076538 789.394775,272.563721 790.322266,274.383820 
	C803.702026,269.650024 816.307556,269.627014 825.131165,282.494019 
	C830.986511,291.032349 830.018127,300.139832 824.181030,309.045746 
M806.069336,282.133423 
	C799.798157,281.573486 794.172180,283.018524 789.498169,287.447083 
	C788.186523,288.689758 786.959778,290.408417 784.838501,289.572998 
	C782.763794,288.755890 781.995117,286.809631 781.812622,284.745270 
	C781.515869,281.389252 780.846558,278.121155 779.287781,275.149292 
	C776.407715,269.658508 771.651733,266.755310 765.548828,266.678223 
	C759.696228,266.604309 755.544128,270.334747 753.313965,276.746216 
	C751.783142,281.147461 751.926880,285.586670 752.973145,290.030701 
	C755.727173,301.728973 761.476868,312.020935 768.041504,321.925201 
	C769.007446,323.382477 770.024231,324.417328 772.079041,324.145752 
	C786.541504,322.234436 800.065308,317.846802 811.408997,308.386261 
	C816.705994,303.968475 819.290588,297.960632 817.436218,290.936584 
	C816.058411,285.717987 812.095032,283.117828 806.069336,282.133423 
z"/>
<path fill="#000000" opacity="1.000000" stroke="none" 
	d="
M419.495087,349.524017 
	C431.589447,363.500610 433.124359,381.301178 423.721313,395.951691 
	C414.124664,410.903931 397.071777,417.549408 380.422119,412.825317 
	C363.559570,408.040833 351.725494,391.333679 352.830841,373.872375 
	C354.018463,355.111542 367.268860,340.371368 385.713959,337.746002 
	C398.744049,335.891449 410.071869,339.597717 419.495087,349.524017 
M415.386322,366.779297 
	C416.008392,358.790131 411.806976,352.446869 405.181030,351.371368 
	C397.782013,350.170410 391.787323,354.348602 390.109100,361.876190 
	C388.704865,368.174927 392.727570,374.664124 399.154572,376.467804 
	C406.212433,378.448517 412.304199,375.032410 415.386322,366.779297 
M409.776581,388.580627 
	C411.344269,390.176178 412.932587,390.017670 414.467255,388.567871 
	C415.584381,387.512543 415.623138,386.306305 414.717865,385.079773 
	C413.899567,383.971008 412.883423,383.106567 411.423492,383.625885 
	C409.351593,384.362976 408.920990,385.975647 409.776581,388.580627 
M369.638397,389.109619 
	C371.046478,391.006531 372.622986,392.576263 374.847168,390.258209 
	C376.159363,388.890564 375.622284,387.397736 374.212677,386.424072 
	C371.648468,384.652893 370.259277,385.929291 369.638397,389.109619 
z"/>
<path fill="#000000" opacity="1.000000" stroke="none" 
	d="
M624.465820,381.251343 
	C622.682251,398.015076 610.409668,410.303986 592.351746,413.795624 
	C577.652649,416.637787 560.695068,408.131042 553.476685,394.293915 
	C541.475159,371.288147 553.205994,343.809601 578.291260,338.491547 
	C610.613586,331.639252 628.230591,358.915100 624.465820,381.251343 
M588.305420,359.543854 
	C587.552429,358.265381 586.958252,356.853668 586.017883,355.732330 
	C582.602905,351.660034 576.333984,350.051361 571.539001,351.873901 
	C566.580261,353.758728 563.062500,358.895264 563.059875,364.254791 
	C563.057190,369.835388 566.001282,374.254456 571.187866,376.180786 
	C579.612671,379.309875 591.137573,372.742920 588.305420,359.543854 
M563.990601,383.598969 
	C561.957275,384.771118 561.919250,386.417358 563.035156,388.188965 
	C563.801331,389.405304 564.993286,389.953857 566.438538,389.453186 
	C567.606628,389.048523 568.528259,388.202728 568.474121,386.944489 
	C568.374512,384.625061 567.091064,383.351501 563.990601,383.598969 
M608.788025,387.571716 
	C607.688110,386.258545 606.559326,384.909393 604.688904,386.358002 
	C603.561951,387.230927 603.020508,388.434265 603.497314,389.865204 
	C603.903870,391.085083 604.845093,391.845093 606.123413,391.697296 
	C608.143311,391.463715 609.587280,390.561005 608.788025,387.571716 
z"/>
<path fill="#000000" opacity="1.000000" stroke="none" 
	d="
M498.879578,401.917603 
	C494.952820,404.269836 493.334442,407.021271 495.434723,411.236542 
	C497.850403,416.084625 504.821136,419.774261 509.641052,418.262085 
	C514.437134,416.757477 518.468262,414.339722 519.160156,408.577911 
	C519.466980,406.022675 520.922241,404.064087 523.851379,404.589355 
	C526.657166,405.092560 527.539673,407.340393 527.261047,409.887573 
	C526.493774,416.899261 522.904419,422.143005 516.463745,424.963043 
	C513.433044,426.289978 512.223877,427.890503 512.104248,431.228516 
	C511.900085,436.926514 510.397461,442.336182 507.173981,447.245911 
	C498.995483,459.702698 481.626709,460.148682 473.069946,447.952667 
	C469.851746,443.365692 467.779022,438.197968 467.807678,432.580383 
	C467.827881,428.616821 466.655701,426.150787 462.992462,424.325592 
	C457.461365,421.569672 454.146118,416.906769 453.236389,410.661285 
	C452.839111,407.933990 453.169891,405.381958 456.171600,404.650421 
	C459.162384,403.921539 460.567505,405.800934 461.359161,408.644623 
	C463.844879,417.573578 473.364075,421.172852 481.143677,416.274811 
	C486.648529,412.808960 487.343719,406.611847 482.712677,402.061554 
	C480.560333,399.946747 477.924652,397.853394 479.148163,394.442993 
	C480.448029,390.819672 483.880066,390.718567 487.126587,390.707886 
	C489.626068,390.699646 492.125702,390.690979 494.625061,390.709686 
	C497.722687,390.732849 500.845490,391.026978 502.143311,394.396271 
	C503.368256,397.576355 501.431122,399.776184 498.879578,401.917603 
M476.598083,433.836578 
	C477.370697,436.539825 478.018188,439.289917 479.589569,441.689850 
	C484.733826,449.546600 495.476379,449.855042 500.376495,442.303314 
	C502.126617,439.606110 503.032593,436.608185 503.585327,433.496948 
	C504.258453,429.708374 503.688995,426.900604 499.149689,425.625061 
	C496.070648,424.759888 493.374268,422.532745 490.395081,420.851654 
	C487.376038,422.332306 484.870789,425.086639 481.331726,425.646271 
	C476.881104,426.350037 475.642822,428.968903 476.598083,433.836578 
z"/>
<path fill="#000000" opacity="1.000000" stroke="none" 
	d="
M631.276611,408.889282 
	C639.447876,406.581787 646.843079,407.584412 653.718262,411.720093 
	C663.450378,417.574341 663.558411,427.790131 653.747131,433.396484 
	C643.027466,439.521881 631.986084,438.964355 621.595398,432.704895 
	C613.754822,427.981598 613.783020,419.386230 621.080994,413.778473 
	C624.008972,411.528625 627.381470,410.122772 631.276611,408.889282 
z"/>
<path fill="#000000" opacity="1.000000" stroke="none" 
	d="
M323.464966,412.321075 
	C335.028961,405.708038 346.040894,406.084534 356.511780,413.727112 
	C364.861847,419.821594 364.311401,428.891022 355.168213,433.724884 
	C345.268677,438.958588 334.866150,438.965851 324.965576,433.915497 
	C314.674011,428.665710 314.141052,419.705872 323.464966,412.321075 
z"/>
<path fill="#000000" opacity="1.000000" stroke="none" 
	d="
M343.008911,250.990479 
	C341.081085,251.311737 339.481812,250.393646 337.802704,249.649704 
	C331.616028,246.908554 325.218719,250.114838 324.345520,256.667664 
	C323.959534,259.564117 322.629944,261.129150 320.170502,262.264252 
	C316.465942,263.974030 313.522400,266.632874 311.202942,269.982544 
	C310.262085,271.341339 309.412872,273.187164 307.362762,272.237152 
	C305.199188,271.234497 304.136688,269.251923 304.766235,266.868408 
	C305.788147,262.999481 307.970642,259.789124 311.731934,258.237030 
	C315.246124,256.786865 317.424164,254.523972 318.492920,250.882751 
	C319.916901,246.031326 323.840454,243.879410 328.325043,242.581665 
	C330.810822,241.862305 333.039734,241.119476 333.504608,238.034424 
	C333.733978,236.511978 334.703369,235.170166 336.428955,235.037781 
	C338.313538,234.893188 339.657593,236.084015 340.314423,237.665161 
	C341.970001,241.650635 343.502899,245.704086 343.038818,250.592926 
	C342.977203,251.020462 342.998657,251.000671 343.008911,250.990479 
z"/>
<path fill="#000000" opacity="1.000000" stroke="none" 
	d="
M660.214233,263.535461 
	C655.870728,262.879822 653.392639,261.247528 652.607910,256.710419 
	C651.543884,250.558273 645.232483,247.362991 639.268555,249.231140 
	C634.430054,250.746735 632.882080,249.345154 633.977478,244.286758 
	C634.506531,241.843292 635.409424,239.497040 637.118042,237.591034 
	C640.123535,234.238235 642.992249,234.740372 644.047302,239.146469 
	C644.681885,241.796616 646.555603,241.885132 648.330688,242.565613 
	C653.601868,244.586365 658.322266,247.165237 659.584656,253.374222 
	C660.092407,255.871643 662.309570,256.549225 664.210999,257.508636 
	C668.161072,259.501740 670.756653,262.520538 671.554810,266.953217 
	C671.956238,269.182129 671.195251,271.042603 669.198914,271.940674 
	C667.100403,272.884735 665.810669,271.211700 664.705933,269.738098 
	C663.238403,267.780487 662.990295,264.986328 660.214233,263.535461 
z"/>
<path fill="#000000" opacity="1.000000" stroke="none" 
	d="
M369.758362,304.664307 
	C373.216095,301.355591 377.466675,301.078339 381.432587,300.115234 
	C382.562439,299.840881 383.801544,300.158447 384.290527,301.484528 
	C384.622314,302.384155 384.121368,303.482147 383.391357,303.485229 
	C377.953644,303.507904 374.236176,307.693573 369.390106,309.063477 
	C368.843689,309.217926 368.148407,308.845734 367.581970,308.729980 
	C367.014038,306.709625 368.549500,305.971252 369.758362,304.664307 
z"/>
<path fill="#000000" opacity="1.000000" stroke="none" 
	d="
M597.181335,304.066315 
	C595.873840,303.280731 594.833435,302.661987 595.475159,301.205658 
	C603.005798,299.915863 608.531189,302.958954 608.546143,308.674957 
	C603.977112,309.341675 601.457703,304.904602 597.181335,304.066315 
z"/>
<path fill="#000000" opacity="1.000000" stroke="none" 
	d="
M484.047455,691.978271 
	C472.331757,682.277527 462.326172,671.775452 458.346100,656.843079 
	C454.321442,641.743408 461.405914,627.281189 475.333771,623.096436 
	C487.072357,619.569580 497.335876,622.737854 506.078461,631.104065 
	C507.866425,632.815063 509.395386,634.796692 511.091888,636.707886 
	C513.396179,635.814392 514.107849,633.593323 515.527771,632.073486 
	C523.709717,623.315918 533.663452,619.910645 545.379333,622.576965 
	C555.706543,624.927307 562.632690,631.296570 564.854065,641.741089 
	C567.728088,655.254944 562.396729,666.613159 554.027039,676.701721 
	C543.373413,689.543091 530.064880,699.197571 515.782593,707.631958 
	C512.494873,709.573669 509.714264,709.405029 506.499786,707.500977 
	C498.746674,702.908813 491.341980,697.843506 484.047455,691.978271 
z"/>
<path fill="#000000" opacity="1.000000" stroke="none" 
	d="
M733.013977,741.815979 
	C740.529907,738.794556 743.700562,740.097229 749.183472,748.126770 
	C749.344421,748.166504 749.509827,748.253845 749.665710,748.239136 
	C758.054810,747.450439 761.753418,749.093872 763.640686,754.458435 
	C765.597839,760.021606 763.192932,765.234436 756.439392,769.192261 
	C750.760071,772.520691 744.554626,774.296509 737.915588,774.424500 
	C736.532471,774.451172 735.122253,774.505920 734.295532,773.262390 
	C729.277222,765.714050 725.852905,757.690369 728.104187,748.386841 
	C728.729431,745.802856 730.381714,743.579468 733.013977,741.815979 
z"/>
<path fill="#000000" opacity="1.000000" stroke="none" 
	d="
M273.021179,772.327576 
	C268.717255,770.743958 264.934082,768.993042 261.925171,766.004944 
	C258.446442,762.550354 257.106873,758.519775 259.065643,753.733948 
	C260.906677,749.235840 264.555237,747.802124 269.037476,747.698853 
	C270.982086,747.654053 272.818115,747.946838 274.410919,745.996704 
	C278.844696,740.567993 283.305450,739.215210 288.145905,741.364685 
	C292.653564,743.366394 295.613983,749.210510 295.031799,755.240051 
	C294.841095,757.215454 294.422302,759.187561 293.916626,761.110901 
	C290.470032,774.220032 286.888519,776.182434 273.021179,772.327576 
z"/>
</svg>