<svg version="1.1" id="Layer_1" xmlns="http://www.w3.org/2000/svg" xmlns:xlink="http://www.w3.org/1999/xlink" x="0px" y="0px"
	 width="100%" viewBox="0 0 1024 1024" enable-background="new 0 0 1024 1024" xml:space="preserve">
<path fill="#000000" opacity="1.000000" stroke="none" 
	d="
M215.012375,504.939575 
	C202.377121,489.100189 196.191772,471.174438 196.088837,451.466736 
	C195.981033,430.826965 203.279755,412.437988 215.242630,395.724976 
	C225.185699,381.833801 237.606659,370.184052 248.962112,357.567993 
	C257.776062,347.775574 265.971069,337.558899 272.137573,325.762268 
	C274.580353,321.089172 274.243439,317.503265 272.188171,312.798279 
	C259.848877,284.550812 261.312683,256.626862 276.211548,229.781570 
	C285.232941,213.526505 298.793945,208.655502 318.045959,213.369888 
	C329.798706,216.247849 340.809601,220.937424 350.688843,227.967896 
	C353.413147,229.906616 355.245972,230.059036 358.108063,228.069092 
	C386.246643,208.504913 417.494598,197.740372 451.708466,195.748413 
	C454.710968,195.573608 456.116730,194.452164 457.111694,191.731140 
	C459.854919,184.229034 462.740448,176.772705 465.824432,169.404877 
	C466.902100,166.830261 468.468781,164.356186 470.253387,162.201675 
	C475.079285,156.375458 482.876709,156.184311 488.279388,161.424606 
	C491.618591,164.663452 493.392212,168.781281 495.053497,172.959122 
	C497.635803,179.453125 500.250275,185.941971 502.543854,192.539810 
	C503.628510,195.659897 505.552094,197.057388 508.643646,197.506226 
	C537.659546,201.718796 564.128845,212.478439 588.322571,228.887863 
	C591.004700,230.707016 592.685364,230.068237 594.953735,228.555359 
	C607.155579,220.417603 620.349304,214.667618 634.968384,212.589752 
	C653.309387,209.982880 663.967834,215.207062 672.338379,232.092285 
	C685.582458,258.808258 686.574585,286.116058 674.328186,313.509338 
	C672.392334,317.839661 672.868286,320.757751 675.998657,324.175995 
	C688.767395,338.119049 700.125488,352.946533 706.852356,371.000427 
	C718.474121,402.191589 715.500610,432.007446 699.595703,460.870483 
	C687.810120,482.258087 686.352478,503.750336 698.511292,525.590149 
	C703.958435,535.374451 708.319763,545.621704 709.607361,556.929443 
	C709.731567,558.020691 710.381226,559.052124 710.909485,560.430969 
	C719.565796,557.406250 728.111023,554.724182 737.034302,553.559509 
	C788.825256,546.799744 840.260803,581.349792 848.329651,634.599548 
	C851.054077,652.578979 847.730225,669.741272 841.770508,686.562683 
	C839.153137,693.950500 836.393250,701.294312 835.644531,709.140869 
	C834.756104,718.451843 837.771729,726.786377 845.917053,729.002075 
	C853.738403,731.129456 862.140320,723.526794 860.347473,715.609497 
	C860.164368,714.800903 859.828430,714.028076 859.606079,713.226807 
	C859.172302,711.663757 858.197876,709.959839 860.164734,708.766174 
	C861.826843,707.757263 863.415405,708.441772 864.822266,709.431335 
	C871.935120,714.434570 875.065613,721.611328 875.279480,730.005676 
	C875.752563,748.567444 866.955505,762.638611 851.845703,772.075562 
	C823.288269,789.911255 793.808960,790.205872 764.240906,773.982178 
	C762.222900,772.874939 760.463257,771.253540 757.886414,771.417725 
	C738.161560,772.674500 721.651489,765.890625 707.712524,750.541321 
	C706.763977,753.422241 705.943481,755.651794 705.294067,757.930176 
	C701.679932,770.609558 696.019775,782.258240 686.998291,791.941956 
	C674.357788,805.510559 658.310913,810.666504 640.096497,809.668640 
	C629.724304,809.100220 620.728882,805.454041 613.535889,797.605469 
	C611.221069,795.079651 611.152832,789.994751 607.392456,789.866333 
	C604.427185,789.765076 601.471252,792.675232 598.334229,793.713379 
	C588.348938,797.017700 578.268188,796.551025 568.382507,793.347839 
	C565.012573,792.255920 562.932983,792.812195 560.587524,795.410706 
	C545.456177,812.173645 526.304138,817.027527 504.736267,813.048401 
	C493.764069,811.024048 484.921082,805.319519 480.844025,794.044617 
	C480.073853,794.351379 479.470367,794.394348 479.256378,794.705322 
	C469.205414,809.315002 454.404144,811.619629 438.474854,809.812134 
	C415.674255,807.224854 399.284119,795.137146 389.108887,774.612732 
	C387.038422,770.436462 384.705963,766.319580 383.262054,761.923096 
	C381.825928,757.550232 379.584534,756.113647 374.947144,756.216858 
	C355.463226,756.650391 337.335968,751.440430 320.884155,741.144165 
	C297.176697,726.307007 280.878693,699.927429 286.561462,668.028259 
	C286.791290,666.738037 286.744324,665.398560 286.849548,663.708801 
	C281.222382,662.648376 275.555603,662.738159 270.107330,661.330750 
	C257.151245,657.983887 245.906647,651.806824 237.512680,641.250061 
	C227.261353,628.357483 224.838486,614.014404 230.897202,598.548035 
	C232.489227,594.484009 234.889130,590.754700 239.094452,588.866577 
	C242.782318,587.210938 245.245407,588.960693 244.773697,592.632812 
	C243.501663,602.534912 249.026474,610.975952 259.215668,613.229065 
	C269.915863,615.595215 279.782654,613.660156 287.471161,604.993347 
	C288.917938,603.362488 290.080963,601.606384 290.724609,599.453003 
	C292.848938,592.345581 292.099274,590.411682 285.454865,587.196533 
	C273.238922,581.285400 263.475677,572.851990 257.600464,560.368042 
	C255.305664,555.492004 253.669586,550.365356 253.782883,544.986633 
	C253.951614,536.975769 249.695847,531.777954 243.366348,528.143188 
	C232.704651,522.020691 223.265427,514.514404 215.012375,504.939575 
M666.703186,298.213715 
	C672.040894,276.839417 670.008728,256.230133 659.948120,236.586990 
	C654.612305,226.168884 646.544067,222.484863 635.079346,224.831024 
	C613.669006,229.212448 596.290955,240.425354 582.257385,256.863739 
	C576.275574,263.870636 571.031189,271.291138 573.893982,281.725098 
	C574.950073,285.574249 573.703857,290.000885 572.158569,293.932281 
	C571.595642,295.364441 570.629578,296.594696 568.856018,296.534058 
	C566.981445,296.469971 566.400513,295.016357 566.032776,293.520172 
	C565.755859,292.393738 565.670715,291.220703 565.490295,290.069946 
	C563.647156,278.314117 560.269165,267.308319 550.536804,259.395264 
	C547.824707,257.190155 545.127380,254.966553 542.440369,252.730835 
	C540.862122,251.417633 540.217590,249.721359 541.141174,247.838821 
	C542.071655,245.942337 543.931030,245.386429 545.831848,245.871658 
	C547.744324,246.359848 549.635620,247.115112 551.378967,248.047409 
	C556.822021,250.958252 561.382996,255.080780 566.287842,259.678650 
	C570.640625,253.058762 575.238831,247.071915 580.756409,240.933426 
	C558.641357,225.994308 535.488281,215.472366 509.090118,211.272446 
	C509.848877,218.184143 512.980286,223.790497 514.484375,229.846817 
	C515.199890,232.727875 516.816406,234.286438 519.770081,235.042953 
	C524.114502,236.155701 528.429810,237.543304 532.351562,239.799728 
	C534.747986,241.178513 536.100403,243.394867 534.869446,246.106827 
	C533.728271,248.621140 531.454468,247.951340 529.208862,247.542877 
	C525.713745,246.907135 522.431702,244.997910 518.229065,245.365005 
	C520.242981,258.204071 513.335938,265.216309 502.642883,269.040955 
	C487.439606,274.478851 471.944183,274.881866 456.607697,269.431946 
	C444.354401,265.077637 437.278778,257.289368 440.163116,243.766281 
	C440.217621,243.510788 439.928284,243.181992 439.695251,242.649445 
	C435.927826,242.294785 432.328278,243.876923 428.581451,244.229935 
	C426.013947,244.471817 423.890320,244.000793 423.078003,241.179321 
	C422.266144,238.359390 423.777832,236.772385 426.119568,235.678787 
	C430.542816,233.613068 435.310791,232.758850 440.040558,231.801910 
	C441.512634,231.504089 443.264526,231.628967 443.947052,230.048233 
	C446.750427,223.555801 448.907501,216.860596 450.665955,209.066040 
	C418.432434,210.990967 390.914734,222.464233 364.953674,239.876801 
	C367.297150,242.489960 369.031860,244.278885 370.603149,246.201401 
	C377.641510,254.813019 377.566467,254.721024 387.454437,249.275269 
	C394.774628,245.243744 402.591797,242.359467 410.691315,240.279099 
	C413.176178,239.640854 415.430084,239.944901 416.613129,242.554108 
	C417.912323,245.419434 415.965118,246.911194 413.853760,248.107224 
	C412.267609,249.005737 410.552734,249.683029 408.875580,250.413834 
	C387.282898,259.822815 367.688416,272.324402 351.037964,289.029816 
	C328.522797,311.619293 314.396027,339.146118 305.222778,369.389557 
	C301.005066,383.295105 296.626709,397.073334 287.813110,408.952484 
	C286.413147,410.839417 284.573151,412.595215 283.990784,415.612274 
	C285.886017,415.612274 287.381653,415.779144 288.829346,415.586182 
	C301.748749,413.864105 313.836517,409.804504 324.374664,401.978333 
	C341.347748,389.373230 351.882080,371.901276 360.570831,353.129578 
	C370.132385,332.472107 380.467957,312.358124 398.109833,297.121155 
	C407.755829,288.790161 417.912537,281.294983 430.482056,277.972046 
	C432.799713,277.359344 435.850067,276.856262 436.801056,280.123718 
	C437.611511,282.908386 435.358276,284.120361 433.188446,285.304138 
	C408.589020,298.724670 390.054932,317.885406 378.204498,343.407074 
	C374.629181,351.107086 370.928467,358.743835 366.898834,366.237183 
	C362.904541,373.664856 358.571991,380.867279 353.622101,388.103607 
	C354.729126,388.428619 355.325409,388.657562 355.942871,388.776825 
	C365.619202,390.646088 375.220917,389.423065 384.710144,387.627197 
	C414.993683,381.896088 440.685791,367.871094 461.106659,344.578918 
	C465.499084,339.568909 469.840942,334.524994 473.202606,328.706665 
	C474.420868,326.598114 476.432373,324.933929 479.017792,326.153564 
	C482.014191,327.567017 481.418335,330.145874 480.297729,332.601898 
	C479.330353,334.722076 478.496124,336.926788 477.310181,338.919830 
	C466.407440,357.242340 451.313995,371.243164 432.875275,381.760956 
	C431.243561,382.691711 429.203613,383.098694 428.268951,385.204071 
	C455.123169,388.396362 480.265045,383.933563 503.424957,370.232971 
	C518.194641,361.495758 529.891968,349.605530 537.835144,334.223816 
	C542.015503,326.128571 544.291443,317.506378 545.411743,308.501587 
	C545.733643,305.914124 546.183899,302.533203 549.519714,302.462982 
	C553.247925,302.384521 553.461914,306.064850 553.984314,308.723328 
	C555.001404,313.899292 553.817261,319.032684 552.720703,324.038605 
	C548.508850,343.266693 537.474976,358.368927 522.627258,370.569702 
	C493.567413,394.449005 459.984711,401.382782 423.252289,395.951752 
	C417.927856,395.164520 412.866119,392.187958 407.154694,393.929535 
	C387.633057,399.882263 367.761475,402.089874 347.473328,399.006378 
	C345.652344,398.729614 344.396149,398.782166 343.073639,400.259552 
	C333.025238,411.484528 320.520294,418.831421 306.155365,423.038025 
	C303.502563,423.814850 302.287292,425.058777 302.019226,427.784088 
	C300.257080,445.698975 299.073822,463.542877 301.763763,481.546631 
	C304.934692,502.769745 315.382446,519.564087 331.392853,533.183289 
	C344.337341,544.194397 359.073486,552.177979 375.055695,557.962097 
	C390.301971,563.479797 406.006683,567.051819 421.959595,569.703552 
	C424.436401,570.115234 427.333344,570.695618 427.377228,573.847900 
	C427.424377,577.235779 424.202454,577.614502 421.886780,577.687378 
	C417.087982,577.838318 412.256866,577.533691 407.462860,577.132019 
	C399.852966,576.494385 399.674561,576.333496 397.269501,583.541626 
	C389.912170,605.591614 386.139801,628.353760 384.308868,651.462097 
	C382.939819,668.741455 382.845734,686.007812 384.195923,703.329041 
	C385.782867,723.687988 388.814362,743.749634 397.232697,762.436768 
	C409.123138,788.831299 424.008636,797.825500 451.057037,796.638367 
	C463.458588,796.094055 469.358765,790.075806 469.597931,777.769348 
	C469.756348,769.619629 469.593475,761.469177 469.215820,753.308350 
	C468.993134,748.496765 467.226166,746.066101 462.986023,744.438904 
	C459.272736,743.013916 455.617889,741.271606 452.646027,738.482849 
	C450.813354,736.763062 448.531982,734.847412 450.372559,732.136414 
	C452.163910,729.497986 454.795105,730.599426 457.084198,731.799927 
	C468.876678,737.984497 481.410553,740.505310 494.705139,740.004517 
	C497.958893,739.882019 503.345886,737.865906 503.841797,743.002441 
	C504.282501,747.567017 498.982422,747.507202 495.542145,748.285095 
	C493.280365,748.796631 491.433807,749.253235 491.454437,752.250427 
	C491.518616,761.571167 491.240356,770.895813 491.393646,780.214050 
	C491.576050,791.301208 496.320160,797.947754 506.767761,800.003052 
	C525.475586,803.683350 544.903381,798.110229 556.266602,779.982178 
	C565.385864,765.433960 571.009460,749.448730 575.636963,733.055054 
	C576.546265,729.833679 577.454224,726.641968 579.450439,723.889465 
	C581.362427,721.253113 583.015076,721.865845 584.281799,724.419983 
	C585.765503,727.411743 585.208801,730.580627 584.915161,733.744751 
	C584.604797,737.088806 582.861938,740.318420 583.825928,744.159607 
	C591.955811,742.968140 599.765625,741.824707 607.158264,738.170959 
	C605.899048,735.333191 604.665344,732.978333 603.813721,730.492493 
	C603.189209,728.669495 602.357544,726.387207 604.734741,725.156311 
	C607.131287,723.915405 608.831116,725.451355 610.251892,727.248352 
	C613.142456,730.904297 616.068787,734.533569 618.882446,738.247986 
	C620.403931,740.256470 621.351807,742.382751 621.035950,745.163940 
	C619.852966,755.582153 619.050049,766.044495 619.396362,776.539368 
	C619.710632,786.062500 623.488281,792.156311 631.149048,794.413025 
	C646.072266,798.809204 660.205872,796.745361 672.878784,787.510254 
	C681.995667,780.866516 686.686340,770.992310 690.698608,760.866638 
	C698.740784,740.570740 700.440735,719.202759 700.887207,697.664490 
	C701.275513,678.930298 700.035217,660.389465 693.653015,642.544067 
	C690.911682,634.879211 686.645874,628.167542 680.381287,622.900391 
	C673.043335,616.730835 665.679016,616.210449 657.302185,620.804565 
	C653.826965,622.710632 651.322998,625.509033 648.967712,628.565613 
	C647.876892,629.981323 646.336243,630.718384 644.552185,629.934631 
	C642.601501,629.077759 642.059631,627.465942 642.395203,625.399231 
	C642.778564,623.038208 643.761353,620.974426 645.044434,618.991943 
	C647.032593,615.920227 649.955444,613.767151 653.030579,611.377625 
	C648.278870,607.263428 643.004028,605.176208 637.712830,603.283875 
	C621.750061,597.574951 605.213257,596.461426 588.466492,597.841003 
	C579.756592,598.558472 576.792664,597.113708 573.130127,589.215820 
	C571.729553,586.195740 570.245605,583.184509 569.202148,580.035828 
	C567.742126,575.629822 565.030640,574.619812 560.749878,575.760559 
	C554.256958,577.490784 547.587708,577.640320 540.908386,577.234253 
	C538.552124,577.091003 536.416199,576.203308 536.209961,573.642517 
	C536.015869,571.233826 538.112488,570.288818 540.120850,569.814758 
	C543.519531,569.012512 546.955994,568.368530 550.381104,567.680786 
	C576.386169,562.459656 601.345093,554.418335 623.348145,539.130188 
	C642.533203,525.799988 655.909668,508.295105 659.879028,484.672424 
	C662.740784,467.640991 662.185181,450.532013 660.699585,433.412262 
	C658.894348,412.607910 654.953369,392.252350 647.987793,372.536346 
	C638.835205,346.630035 624.570190,323.990875 604.244324,305.400299 
	C600.229614,301.728302 599.039246,297.486389 599.135620,292.501373 
	C599.403259,278.661163 605.402954,267.522705 615.491211,258.408356 
	C623.007080,251.618027 631.749512,247.437286 641.966309,246.833054 
	C644.741089,246.668930 647.714172,247.328445 648.014648,250.688507 
	C648.319885,254.101456 645.488525,254.729767 642.721130,255.414520 
	C625.653076,259.637909 614.809753,270.332275 610.506592,287.366913 
	C609.051270,293.127991 609.760071,298.211090 615.420227,302.257416 
	C619.813782,305.398224 623.257812,309.911682 626.960449,313.964355 
	C632.675659,320.219971 637.003418,327.530914 641.985352,335.069458 
	C654.589478,325.529816 662.010376,313.268341 666.703186,298.213715 
M744.378723,594.798767 
	C751.236572,596.233276 758.000061,597.915100 764.244080,601.276611 
	C793.401672,616.973816 802.231384,645.501587 798.793579,675.455872 
	C797.449219,687.169678 795.072510,698.757263 797.285095,710.670227 
	C801.102112,731.221741 819.745850,743.959351 838.302002,738.191650 
	C824.143127,729.806152 822.013123,716.802490 824.463257,702.220032 
	C825.875732,693.813354 829.416443,685.998108 831.984131,677.914307 
	C840.426636,651.335266 838.930420,625.828918 822.766418,602.490845 
	C804.401123,575.974548 777.822510,564.652832 746.374207,564.590515 
	C732.073120,564.562134 718.575317,569.380615 706.097229,576.565125 
	C694.754028,583.096130 685.491455,591.791199 678.913574,603.166321 
	C676.430969,607.459473 677.254089,608.803711 681.994019,610.230286 
	C684.549438,610.999451 685.678101,609.333191 687.102844,608.042480 
	C694.193298,601.618958 702.386658,597.283875 711.842041,595.859863 
	C714.927856,595.395142 719.655823,593.717468 720.597961,598.749451 
	C721.492371,603.526733 716.612061,603.398743 713.751465,604.267456 
	C705.498352,606.773865 697.987366,610.382751 691.938599,616.609802 
	C693.614807,621.147644 695.995300,622.554260 701.033081,621.242798 
	C715.861938,617.382446 732.942627,624.295593 741.219604,636.989380 
	C749.735962,650.050354 749.562256,664.372070 746.688354,678.930786 
	C745.112549,686.913757 742.903748,694.728882 741.858276,702.868164 
	C738.918762,725.754089 746.032532,744.340332 763.778931,759.160645 
	C785.869446,777.608582 823.123230,779.001770 846.309448,761.882751 
	C854.993286,755.471252 861.355713,747.525391 863.143616,736.212280 
	C844.178101,753.588135 817.087402,753.831116 799.775696,736.748230 
	C786.488831,723.637085 784.196777,707.082397 786.244751,689.555115 
	C787.499084,678.820740 789.373962,668.181702 788.731934,657.288940 
	C787.497131,636.336670 777.698242,620.725769 759.791443,610.031006 
	C751.423218,605.033142 742.026062,603.644714 732.622437,602.275085 
	C730.163757,601.916992 727.860413,601.189941 727.921448,598.156433 
	C727.986267,594.935120 730.338318,593.913757 733.061584,593.968628 
	C736.544861,594.038940 740.021118,594.460938 744.378723,594.798767 
M353.694855,597.209229 
	C355.325653,590.585815 354.728760,583.952759 353.524170,577.379944 
	C351.645081,567.126892 348.017212,558.485352 337.674072,553.112061 
	C322.483215,545.220337 310.873474,533.021057 301.500366,518.674377 
	C291.204407,502.915100 285.563904,486.004608 286.442719,466.895447 
	C286.986511,455.071381 287.704681,443.288208 289.222290,431.564575 
	C289.654907,428.222778 288.843506,426.984894 285.418945,427.063019 
	C281.769928,427.146210 278.111633,426.730377 274.454956,426.601624 
	C271.798004,426.508057 269.625061,427.298645 268.223114,429.844543 
	C266.376373,433.198273 264.290985,436.419586 262.371765,439.734619 
	C253.627304,454.838715 249.506439,471.215363 250.630295,488.541687 
	C252.262650,513.707275 263.831573,534.157959 281.977966,551.289551 
	C289.466522,558.359375 296.832275,565.530640 301.364075,575.189941 
	C312.298126,598.495300 300.984528,624.094543 269.814178,626.211670 
	C258.186096,627.001526 247.952179,623.134155 240.051468,613.858032 
	C238.933502,616.034607 239.374084,617.754272 239.921021,619.499695 
	C244.093903,632.816406 252.776001,641.968140 265.851929,646.604004 
	C298.936432,658.333679 347.396118,639.318420 353.694855,597.209229 
M242.177490,511.921082 
	C243.520645,510.272888 242.442307,508.612671 242.092789,507.029572 
	C237.432877,485.924011 238.782990,465.333740 247.514267,445.443481 
	C251.820847,435.632904 256.905792,426.182617 265.082825,419.008514 
	C269.359528,415.256317 273.351929,411.403198 276.724091,406.802917 
	C289.481323,389.399567 293.531372,368.584290 299.766510,348.620728 
	C300.190582,347.262939 300.185944,346.009827 298.771057,345.116425 
	C293.411987,341.732635 289.050446,337.161530 284.697052,332.623932 
	C282.724243,333.689026 282.137909,335.309937 281.272125,336.687988 
	C274.264923,347.841278 266.719452,358.513000 257.736633,368.277405 
	C246.708344,380.265350 234.900696,391.593933 225.687073,405.223755 
	C216.885895,418.243439 210.924042,432.461182 210.581009,448.010101 
	C210.002304,474.242096 219.967697,496.025055 242.177490,511.921082 
M326.660034,301.205200 
	C329.212799,298.128662 331.700684,294.994904 334.342773,291.997070 
	C335.918060,290.209747 336.306519,288.401459 335.857666,286.041901 
	C333.318451,272.693970 320.148743,259.006042 307.088470,256.306061 
	C303.563110,255.577240 298.692108,255.381836 299.788818,250.300797 
	C300.808563,245.576263 305.530182,247.004349 309.087585,247.160934 
	C309.251709,247.168152 309.413544,247.227280 309.576416,247.262360 
	C322.226044,249.986847 332.212952,256.715210 339.325439,267.492950 
	C341.667114,271.041412 343.399963,274.991638 345.618744,279.146729 
	C352.727417,272.870789 359.760742,267.103302 367.213837,262.068878 
	C366.880402,261.090790 366.796356,260.582397 366.548889,260.172699 
	C366.033356,259.319244 365.474518,258.484039 364.858551,257.700195 
	C351.479797,240.674072 334.126068,229.790161 313.072937,225.139969 
	C299.313324,222.100754 290.911102,226.820694 285.156006,239.851074 
	C280.809479,249.692291 278.642731,259.989258 277.885620,270.772217 
	C276.440491,291.355042 281.792328,309.625000 294.987823,325.488617 
	C298.125153,329.260315 301.395111,333.036682 306.221771,335.448120 
	C312.054596,323.486877 318.469696,312.225189 326.660034,301.205200 
M652.677124,595.922058 
	C657.178040,598.293274 661.242126,601.334778 665.098267,604.933044 
	C665.923035,603.788391 666.413696,603.309448 666.666321,602.727295 
	C672.403687,589.503418 681.469727,579.035767 693.413208,571.141541 
	C697.207642,568.633484 696.643311,565.442871 696.352722,561.952515 
	C695.476807,551.431519 691.333252,542.076660 686.444580,532.897461 
	C674.823242,511.076874 673.283447,488.439758 682.242920,465.407684 
	C688.116272,450.308960 691.295776,434.709442 691.461487,418.655792 
	C691.697998,395.739716 687.438660,373.624786 677.062378,352.946259 
	C673.261169,345.370911 668.793884,338.250000 662.702637,331.451416 
	C658.887146,335.405334 655.713745,339.338104 651.879822,342.459534 
	C648.902100,344.883820 648.710327,346.693329 650.421021,349.967010 
	C657.540771,363.591858 662.744629,377.973785 666.491821,392.882721 
	C670.643005,409.399414 672.593994,426.269043 673.667725,443.187103 
	C675.164124,466.763763 674.611633,490.201721 663.735596,512.050476 
	C662.222717,515.089722 662.160156,517.962219 663.233215,521.170959 
	C665.289978,527.320740 667.022888,533.533386 667.384399,540.118103 
	C668.441711,559.376831 663.948547,576.814880 651.085388,591.605774 
	C649.269531,593.693848 649.945374,594.725647 652.677124,595.922058 
M356.292908,715.233215 
	C361.419373,718.725586 366.530060,722.258728 373.554016,722.580750 
	C367.350983,671.942017 371.250397,623.019104 387.831116,575.124634 
	C379.302185,572.147583 371.266174,569.342590 362.605713,566.319641 
	C362.929199,568.015747 363.004822,568.822571 363.239105,569.580383 
	C368.346100,586.099182 366.219879,602.211731 359.805389,617.799255 
	C355.830139,627.459290 351.054565,636.813782 346.245636,646.102112 
	C333.681122,670.370117 335.192352,698.376892 356.292908,715.233215 
M298.356964,681.359375 
	C299.949188,702.866699 310.215790,719.237122 328.286774,730.590332 
	C342.942780,739.798096 358.943451,744.429077 376.432617,743.312683 
	C376.695160,733.578186 376.398560,733.164062 368.144226,731.002869 
	C344.024933,724.687561 327.890900,703.507629 327.540710,678.537354 
	C327.380890,667.139282 330.660126,656.746704 335.569946,645.569336 
	C327.403351,651.444763 319.621643,655.845032 310.865448,657.405518 
	C303.504669,658.717224 300.433807,662.751160 299.759552,669.624634 
	C299.403290,673.256287 298.825287,676.866211 298.356964,681.359375 
M713.166748,690.492920 
	C713.168335,700.307190 712.986206,710.177673 711.348999,719.814758 
	C709.534302,730.496887 712.320312,738.998779 720.329956,746.035645 
	C724.983826,750.124329 729.854187,753.923523 735.773438,755.951355 
	C738.943054,757.037170 742.073486,758.698547 745.651672,758.364868 
	C745.818787,756.508423 744.574646,755.704224 743.815125,754.683472 
	C733.930115,741.397949 729.154175,726.585510 729.618530,709.938110 
	C729.951904,697.988464 733.407715,686.710876 735.913086,675.204041 
	C737.884521,666.149597 738.160034,657.032898 734.666138,648.229004 
	C729.406372,634.975586 715.709961,627.839844 703.949585,632.119629 
	C704.379028,634.467407 706.403442,635.563416 707.919312,636.974182 
	C717.920044,646.281128 719.902039,656.093567 713.853088,668.389832 
	C712.440674,671.260803 711.933472,674.139587 712.505554,677.076294 
	C713.312988,681.221313 713.067627,685.360962 713.166748,690.492920 
M586.515808,570.163452 
	C578.597412,572.574097 578.591736,572.576233 581.449280,580.156189 
	C581.918274,581.400330 582.519653,582.596191 582.958740,583.849792 
	C583.763611,586.147461 585.245422,586.583984 587.623474,586.348999 
	C602.427368,584.886108 617.208496,584.986206 631.663391,588.911804 
	C636.088501,590.113647 639.168945,588.839111 641.851013,585.792725 
	C656.711487,568.913208 658.508240,549.430481 653.382996,527.727905 
	C635.606812,549.445129 612.512878,561.393066 586.515808,570.163452 
M480.236511,257.305969 
	C488.254913,260.232147 495.901154,259.657898 503.035614,254.775055 
	C504.815735,253.556747 506.948059,252.170303 506.518890,249.719330 
	C505.384125,243.238327 503.832336,236.841400 501.095734,230.309341 
	C486.156555,237.512039 471.901855,236.922546 458.083160,227.726761 
	C457.181091,230.126755 456.453217,231.954666 455.803833,233.810074 
	C453.237183,241.143494 453.724945,242.510651 459.975433,247.233047 
	C465.886688,251.699203 472.510101,254.689957 480.236511,257.305969 
M598.531250,779.165283 
	C608.812866,772.107910 606.064819,761.085571 607.800354,750.303528 
	C598.868164,753.152832 590.775208,755.541382 582.269653,755.692810 
	C580.934937,755.716614 580.217834,756.702454 579.794678,757.848328 
	C577.049255,765.282349 574.139832,772.651001 570.406921,780.187561 
	C580.042603,783.247437 589.001526,783.977112 598.531250,779.165283 
M471.372192,200.703049 
	C468.921112,199.383469 467.062988,199.361679 466.134552,202.600449 
	C465.130249,206.104050 463.851105,209.528976 462.686768,212.986511 
	C462.177521,214.498703 462.279114,215.778320 463.420990,217.111877 
	C470.800140,225.729691 487.403076,227.471603 496.337463,220.543167 
	C497.782288,219.422745 498.658997,218.433701 497.880554,216.404434 
	C496.218170,212.071014 494.786041,207.649078 493.270660,203.259567 
	C492.484558,200.982346 491.199280,200.218933 488.711548,201.066116 
	C483.208038,202.940323 477.625488,202.811920 471.372192,200.703049 
M477.495117,172.431885 
	C475.990570,175.758469 474.275452,179.009872 473.052246,182.436859 
	C472.170898,184.905975 469.637085,187.790802 472.555267,190.191116 
	C475.777191,192.841232 479.722351,193.642639 483.802765,191.899933 
	C486.767914,190.633545 488.378540,188.780624 486.879425,185.279007 
	C485.246490,181.464813 484.017029,177.475800 482.335938,173.685272 
	C481.582703,171.986893 480.512299,169.659470 477.495117,172.431885 
M281.505554,567.593811 
	C278.971863,564.880920 276.438141,562.168091 273.904449,559.455261 
	C273.552032,559.820923 273.199615,560.186523 272.847198,560.552185 
	C275.467987,564.373169 278.617462,567.650635 283.168671,569.511841 
	C282.757385,569.019287 282.346130,568.526794 281.505554,567.593811 
M456.132202,255.378372 
	C458.011932,256.216400 459.616394,257.721558 462.604584,257.898499 
	C458.720520,255.091354 454.905060,253.423065 451.334869,249.161011 
	C452.576904,252.529480 453.829315,253.967758 456.132202,255.378372 
z"/>
<path fill="#000000" opacity="1.000000" stroke="none" 
	d="
M802.025208,340.011993 
	C794.018616,343.146790 791.295532,350.065521 788.525208,356.873871 
	C787.275696,359.944580 786.479675,363.196808 785.339661,366.316162 
	C784.499573,368.614868 783.113037,370.516937 780.316895,370.423706 
	C777.619995,370.333862 776.135742,368.627625 775.352539,366.214203 
	C774.737122,364.317627 774.032166,362.433472 773.620483,360.490112 
	C770.781433,347.087097 762.278259,339.495422 749.227417,336.484894 
	C747.609314,336.111664 745.986084,335.701996 744.429810,335.132751 
	C741.880676,334.200439 740.098877,332.500671 740.296509,329.577759 
	C740.476013,326.923431 742.226929,325.513977 744.664917,324.735321 
	C748.302124,323.573700 751.910278,322.320618 755.525818,321.092010 
	C766.151611,317.481415 771.106384,309.242615 773.558777,298.968353 
	C774.060303,296.867493 774.379150,294.704773 775.083435,292.675079 
	C776.006165,290.015686 777.695862,287.855286 780.830933,287.994202 
	C783.748596,288.123505 785.110413,290.288757 785.856689,292.833344 
	C786.604309,295.382385 787.376343,297.936279 787.905396,300.535309 
	C790.333069,312.462708 798.070251,319.165588 809.289062,322.512634 
	C811.836975,323.272766 814.427734,323.926422 816.905518,324.873199 
	C819.095032,325.709869 820.368164,327.410950 820.265930,329.898224 
	C820.171692,332.190887 818.810852,333.555054 816.817444,334.333282 
	C812.013550,336.208679 807.185913,338.023346 802.025208,340.011993 
M778.491455,311.177979 
	C774.787598,320.710815 766.940491,325.770416 756.312134,330.138611 
	C769.598389,333.378296 776.243347,341.558655 780.415527,353.560638 
	C784.047058,340.848480 791.396729,333.328735 803.037109,329.373138 
	C791.362183,326.123444 784.665649,318.196320 780.621094,307.120911 
	C779.722839,308.833130 779.261353,309.712891 778.491455,311.177979 
z"/>
<path fill="#000000" opacity="1.000000" stroke="none" 
	d="
M214.573196,564.573730 
	C204.833603,567.759644 201.235367,575.555847 198.456238,583.992065 
	C197.571030,586.679199 196.898529,589.435730 196.043549,592.133545 
	C195.288849,594.514832 193.931915,596.307861 191.146301,596.391174 
	C188.278244,596.476990 186.970612,594.537292 186.176849,592.249695 
	C184.813675,588.320984 183.585953,584.342407 182.403381,580.354553 
	C180.032104,572.358154 174.691666,567.292664 166.948074,564.629761 
	C163.171799,563.331299 159.324051,562.242065 155.522888,561.014038 
	C152.881622,560.160706 151.169327,558.335510 151.197250,555.540039 
	C151.224121,552.850464 153.165878,551.469055 155.589249,550.756897 
	C156.866089,550.381775 158.145660,550.009155 159.439133,549.698425 
	C172.315155,546.605042 181.347641,539.570740 184.047714,525.919006 
	C184.465256,523.807922 185.192703,521.748474 185.894821,519.705688 
	C186.766113,517.170654 188.357635,515.176086 191.233276,515.200073 
	C194.121216,515.224121 195.615158,517.149841 196.339584,519.843689 
	C197.116577,522.732910 198.161179,525.551880 198.896378,528.450378 
	C201.477509,538.626038 208.281052,544.627747 217.905960,547.864136 
	C220.586594,548.765442 223.291290,549.613525 226.025360,550.332397 
	C228.666382,551.026978 230.848663,552.289062 230.875687,555.227112 
	C230.902267,558.116638 228.712799,559.554871 226.229523,560.449463 
	C222.470947,561.803528 218.694168,563.106995 214.573196,564.573730 
M193.670166,573.072266 
	C196.872086,563.941345 204.150208,559.125793 214.328125,555.471863 
	C202.484344,551.402527 194.840057,545.070190 191.200455,532.901062 
	C187.307251,544.915894 179.696014,551.356689 168.990540,555.610474 
	C174.767120,558.675110 179.499939,560.610779 183.285660,564.307617 
	C187.078537,568.011414 188.276428,573.184692 191.371323,577.368408 
	C192.101242,576.010742 192.727448,574.846069 193.670166,573.072266 
z"/>
<path fill="#000000" opacity="1.000000" stroke="none" 
	d="
M184.240814,268.286133 
	C190.933975,265.854523 194.361588,260.949646 196.417892,254.865601 
	C197.374832,252.034317 198.101288,249.125275 199.052383,246.291809 
	C199.779037,244.126953 201.068161,242.296188 203.623383,242.384842 
	C206.049255,242.468979 207.515976,244.076492 208.273270,246.293045 
	C209.238663,249.118713 210.235291,251.939423 211.047821,254.810547 
	C213.194565,262.396240 218.337341,266.856567 225.655212,269.156647 
	C228.190659,269.953552 230.705292,270.819519 233.213699,271.698822 
	C235.308289,272.433075 236.521866,273.909454 236.536865,276.170685 
	C236.551941,278.444153 235.288086,279.946320 233.249954,280.692474 
	C230.913269,281.547974 228.548996,282.415649 226.122406,282.921783 
	C218.764603,284.456543 214.037811,288.773834 211.685165,295.862244 
	C210.639145,299.013824 209.392258,302.098206 208.297592,305.234375 
	C207.510391,307.489746 206.062149,309.032288 203.637573,309.081177 
	C201.123734,309.131897 199.777527,307.363068 198.999939,305.208679 
	C197.985336,302.397644 197.009277,299.567200 196.164581,296.701477 
	C194.028198,289.453430 188.964874,285.385193 181.954971,283.346161 
	C179.722031,282.696655 177.516861,281.950043 175.277695,281.324005 
	C172.791733,280.628937 171.035461,279.132507 170.882477,276.532745 
	C170.723358,273.828461 172.548157,272.368164 174.957199,271.547852 
	C177.944138,270.530853 180.921188,269.484802 184.240814,268.286133 
M205.762619,289.185303 
	C208.826828,282.236237 214.849701,278.729523 222.631668,275.831512 
	C212.788834,273.278870 207.435547,267.249420 203.511429,257.900909 
	C200.485107,267.732422 194.463974,272.949615 185.208054,276.163788 
	C195.036148,279.179993 200.208389,285.248688 203.546158,293.512970 
	C204.411240,291.861694 204.950165,290.832977 205.762619,289.185303 
z"/>
<path fill="#000000" opacity="1.000000" stroke="none" 
	d="
M825.374756,431.014008 
	C823.288269,429.825806 822.521423,428.067108 822.175781,426.307495 
	C820.326904,416.895996 815.068359,411.157715 805.280701,409.998627 
	C804.319519,409.884796 803.345398,409.442596 802.491638,408.953278 
	C800.790344,407.978241 799.782349,406.489594 799.897278,404.450653 
	C800.005371,402.534332 801.290466,401.524445 802.905640,400.828613 
	C803.364075,400.631134 803.824463,400.400085 804.307739,400.303833 
	C814.618713,398.250519 820.629211,392.018860 822.541870,381.708527 
	C822.965149,379.426697 824.192688,377.512024 826.721069,377.389526 
	C829.501160,377.254761 830.789673,379.188599 831.492004,381.644745 
	C831.949036,383.243164 832.609619,384.784058 833.053284,386.385559 
	C834.801392,392.695129 838.728577,396.790436 845.105347,398.483765 
	C846.552734,398.868134 847.984619,399.324036 849.398132,399.819733 
	C851.800659,400.662231 854.336609,401.545258 854.132935,404.753571 
	C853.950989,407.620422 851.631470,408.608765 849.302673,409.055939 
	C839.769348,410.886566 834.050537,416.485474 831.762085,425.900970 
	C831.051758,428.823700 829.840332,431.808990 825.374756,431.014008 
M823.362183,397.854736 
	C821.188965,401.001099 817.719604,402.592072 814.221191,404.895691 
	C820.405823,407.306732 823.705444,412.049652 827.175293,417.264679 
	C830.101562,411.466034 833.488037,406.848541 840.089172,404.610413 
	C833.778870,402.026917 830.345886,397.470856 827.274353,392.074005 
	C825.947266,394.057617 824.864197,395.676544 823.362183,397.854736 
z"/>
<path fill="#000000" opacity="1.000000" stroke="none" 
	d="
M359.822235,429.065979 
	C358.589691,427.917969 357.476654,427.109650 356.734833,426.043152 
	C355.529388,424.310150 354.963013,422.166748 356.583374,420.543427 
	C358.349579,418.774017 359.928406,420.520905 361.346252,421.584625 
	C362.407043,422.380432 363.358124,423.324402 364.342987,424.218964 
	C366.336548,426.029877 367.977509,425.150635 369.502106,423.538452 
	C371.159882,421.785461 369.910004,420.705353 368.689697,419.394135 
	C363.918274,414.267090 363.780701,412.735077 367.470490,409.278534 
	C367.786072,409.365997 368.279358,409.359375 368.389496,409.561493 
	C372.255646,416.657745 377.187408,417.140076 385.057343,415.051147 
	C402.679962,410.373535 420.033417,424.313995 421.294342,442.721924 
	C422.005646,453.106476 420.621399,462.925598 413.653717,471.337616 
	C398.940948,489.100220 371.183258,484.582184 362.854614,462.953644 
	C359.452087,454.117584 358.957001,445.092712 362.322174,436.142639 
	C363.509521,432.984863 363.428497,430.746582 359.822235,429.065979 
M400.902435,435.392242 
	C400.288239,428.054962 394.905304,423.437042 388.861481,425.062469 
	C383.770660,426.431580 380.201782,431.178192 380.552032,436.114044 
	C380.905457,441.095398 385.112366,445.414215 389.835205,445.644226 
	C395.218262,445.906342 399.359924,442.342834 400.902435,435.392242 
M407.497467,462.181122 
	C407.899994,460.003418 406.917358,458.512817 404.899811,458.038513 
	C403.167236,457.631165 402.136719,458.943665 401.592346,460.429047 
	C401.096771,461.781219 401.325470,463.111389 402.599518,463.976715 
	C404.532928,465.289917 406.033508,464.579987 407.497467,462.181122 
z"/>
<path fill="#000000" opacity="1.000000" stroke="none" 
	d="
M600.976318,458.556519 
	C594.340393,479.854553 573.680176,488.398438 555.821777,477.575500 
	C544.843384,470.922119 538.942078,455.785248 541.654846,441.237061 
	C544.302490,427.037933 554.388977,416.441742 567.476746,414.078308 
	C571.848938,413.288727 576.040955,413.960693 580.242004,415.254852 
	C586.711426,417.247772 588.389343,416.525513 591.983826,410.674713 
	C592.816772,409.319000 593.227417,407.061035 595.407349,407.911560 
	C597.686707,408.800873 597.536743,411.108337 597.126892,413.105560 
	C596.433472,416.485535 594.014465,418.871246 591.784485,421.319092 
	C593.727722,425.173462 596.047119,425.389008 598.875610,422.614929 
	C599.706787,421.799713 600.538391,420.980957 601.420349,420.222626 
	C602.431702,419.352966 603.514099,418.330078 604.908325,419.458038 
	C606.200500,420.503510 606.565125,421.943298 605.967529,423.503082 
	C604.998962,426.031250 603.557983,428.272369 601.354431,429.891418 
	C599.429688,431.305542 599.223328,432.880981 600.011780,435.097748 
	C602.696960,442.647522 602.984985,450.366089 600.976318,458.556519 
M567.246399,424.973999 
	C566.165222,425.392120 565.043152,425.728088 564.009766,426.242249 
	C558.926514,428.771545 556.923889,434.681976 559.403931,439.707214 
	C562.044373,445.057404 567.966736,447.064697 573.265137,444.264893 
	C577.418518,442.070160 579.900757,438.756409 579.056458,433.804077 
	C578.049988,427.900146 574.625000,425.184448 567.246399,424.973999 
M553.259521,447.609344 
	C551.887146,449.456268 552.271729,450.990356 554.180847,452.121429 
	C555.853516,453.112396 557.366760,452.506378 558.651001,451.309814 
	C559.760254,450.276367 559.905701,448.993011 558.955017,447.786865 
	C557.475769,445.910095 555.681213,445.865387 553.259521,447.609344 
M582.309814,459.523163 
	C580.387024,458.211548 578.831848,458.899475 577.752869,460.622864 
	C576.884399,462.010040 577.194397,463.473480 578.447205,464.596619 
	C579.505859,465.545654 580.750183,465.971680 582.000366,465.045349 
	C583.871826,463.658661 584.260803,461.944519 582.309814,459.523163 
z"/>
<path fill="#000000" opacity="1.000000" stroke="none" 
	d="
M454.809723,642.065002 
	C451.362091,637.142456 449.432404,632.260620 450.302338,626.374878 
	C451.220093,620.165710 454.079468,615.794800 460.235321,614.012268 
	C466.426514,612.219482 472.058380,613.207031 476.799225,617.831604 
	C477.856659,618.863098 478.839172,619.971558 479.792084,620.976929 
	C481.366974,620.967957 481.800537,619.688660 482.574860,618.905640 
	C488.960297,612.447937 497.275848,611.284180 504.322021,615.906189 
	C510.359894,619.866760 512.512451,628.659973 509.376312,636.511780 
	C507.209351,641.937012 503.347870,646.113098 498.900513,649.607361 
	C494.340729,653.189941 489.336792,656.208191 484.519318,659.461670 
	C481.584961,661.443420 478.682953,661.466248 475.708649,659.440491 
	C468.284149,654.383850 460.897797,649.291138 454.809723,642.065002 
z"/>
<path fill="#000000" opacity="1.000000" stroke="none" 
	d="
M362.883759,501.162170 
	C353.614502,504.777252 344.665955,504.896820 335.845398,501.173737 
	C331.107666,499.174011 327.017792,496.217529 326.706024,490.427277 
	C326.384216,484.451080 330.457581,481.274536 335.160583,479.291321 
	C346.030670,474.707581 356.695251,475.657593 366.453491,482.340729 
	C374.176605,487.630096 372.655701,495.701935 362.883759,501.162170 
z"/>
<path fill="#000000" opacity="1.000000" stroke="none" 
	d="
M614.785095,503.826294 
	C608.788696,503.771881 603.389038,502.802582 598.505493,500.057251 
	C590.255432,495.419464 589.937683,486.233704 597.963135,481.267059 
	C608.310486,474.863495 619.050720,474.562134 629.694702,480.506622 
	C638.209778,485.262177 638.442505,493.748383 630.346497,499.217865 
	C625.807983,502.284027 620.543762,503.211853 614.785095,503.826294 
z"/>
<path fill="#000000" opacity="1.000000" stroke="none" 
	d="
M458.688354,494.082947 
	C456.939026,491.342773 455.873871,488.746704 455.719391,485.845093 
	C455.550598,482.674011 456.661041,480.074188 459.925720,479.371216 
	C462.960114,478.717865 464.265625,481.058105 465.378784,483.453156 
	C469.969086,493.329529 477.760986,496.741364 487.699799,493.385590 
	C492.477844,491.772308 495.444489,488.475250 497.331879,483.912231 
	C498.485260,481.123718 499.877716,477.857208 503.745178,479.215240 
	C507.703491,480.605194 507.853882,484.194763 506.895874,487.617859 
	C505.400482,492.960968 501.988770,497.078247 497.469421,500.134460 
	C484.853210,508.665924 468.693359,506.203888 458.688354,494.082947 
z"/>
<path fill="#000000" opacity="1.000000" stroke="none" 
	d="
M481.909485,469.707642 
	C485.525757,469.778870 489.052765,470.202454 488.386200,474.343079 
	C487.781097,478.101807 484.363403,479.551788 480.709595,479.156219 
	C477.442719,478.802551 473.855560,477.425293 474.075531,473.696381 
	C474.318451,469.578766 478.257477,469.721985 481.909485,469.707642 
z"/>
</svg>